<?xml version="1.0" encoding="utf-8"?>
<!-- Generator: Adobe Illustrator 24.3.0, SVG Export Plug-In . SVG Version: 6.00 Build 0)  -->
<svg version="1.1" id="Layer_1" xmlns="http://www.w3.org/2000/svg" xmlns:xlink="http://www.w3.org/1999/xlink" x="0px" y="0px"
	 viewBox="0 0 415.62 407.83" style="enable-background:new 0 0 415.62 407.83;" xml:space="preserve">
<style type="text/css">
	.st0{fill:#DAECF9;}
	.st1{enable-background:new    ;}
	.st2{fill:#FBAE44;}
	.st3{fill:#F36E44;}
	.st4{fill:#FBF05D;}
	.st5{fill:#FFC641;}
	.st6{fill:#948E34;}
	.st7{fill:#AED4F1;}
	.st8{fill:#4D8AC8;}
	.st9{fill:#FFFFFF;}
	.st10{fill:#F9D3AA;}
	.st11{fill:#333333;}
	.st12{fill:#A1CE5C;}
	.st13{fill:#57AA46;}
	.st14{fill:#292562;}
	.st15{fill:#D9D9D8;}
	.st16{fill:#AFAFAE;}
	.st17{fill:#989898;}
	.st18{fill:#010101;}
	.st19{fill:#26262F;}
	.st20{fill:url(#SVGID_1_);}
	.st21{fill:#4A68B1;}
	.st22{fill:#4E4E4E;}
	.st23{fill:#A9A8A8;}
	.st24{fill:#7991C9;}
	.st25{fill:#FBAA2D;}
	.st26{fill:#866C38;}
	.st27{fill:#303030;}
	.st28{fill:#F3F3F3;}
	.st29{fill:#E6E6E5;}
	.st30{fill:#71BD44;}
	.st31{fill:#3957A6;}
	.st32{fill:#FBEF4E;}
	.st33{fill:#F79132;}
	.st34{fill:#FEE043;}
	.st35{fill:#AED365;}
	.st36{fill:#FAB68C;}
	.st37{fill:#F4899D;}
	.st38{fill:#272626;}
	.st39{fill:#646464;}
	.st40{fill:#F15E78;}
	.st41{fill:#FFE5CC;}
</style>
<g>
	<g>
		<g>
			<polygon class="st0" points="274.13,175.19 277.95,186.37 295.99,190.94 278.82,196.45 276.97,207.79 262.55,200.01 
				243.34,202.47 251.62,192.14 241.6,182.31 261.13,183.71 			"/>
		</g>
		<g>
			<polygon class="st0" points="360.69,206.36 354.41,217.15 366.23,226.29 346.57,226.13 335.28,235.44 329.36,224.57 
				310.57,221.18 326.59,214.6 326.26,203.21 342.06,210.02 			"/>
		</g>
		<g>
			<polygon class="st0" points="409.61,258.88 394.87,266.39 397.23,277.71 380.28,271.89 362.45,276.65 366.72,265.53 
				353.34,257.16 372.94,256.12 382.5,246.18 390.32,256.65 			"/>
		</g>
		<g>
			<polygon class="st0" points="394.14,299.61 391.88,310.93 406.69,318.45 387.41,320.67 379.68,331.13 370.03,321.19 
				350.43,320.13 363.75,311.77 359.37,300.66 377.25,305.43 			"/>
		</g>
		<g>
			<polygon class="st0" points="358.08,349.17 346.34,358.29 352.69,369.09 334.05,365.41 318.31,372.21 318.52,360.82 
				302.45,354.23 321.2,350.86 327.03,339.98 338.4,349.3 			"/>
		</g>
		<g>
			<polygon class="st0" points="265,364.59 266.81,375.94 283.99,381.54 265.93,386.02 262.11,397.18 249.11,388.61 229.58,389.92 
				239.6,380.13 231.36,369.78 250.55,372.31 			"/>
		</g>
		<g>
			<polygon class="st0" points="189.91,367.88 181.69,378.22 191.76,388.03 172.21,386.66 159.26,395.2 155.39,384.03 137.32,379.5 
				154.46,373.96 156.27,362.61 170.73,370.36 			"/>
		</g>
		<g>
			<polygon class="st0" points="114.97,197.92 114.71,209.31 130.75,215.93 111.95,219.26 106.09,230.13 94.75,220.8 75.08,220.9 
				86.87,211.79 80.57,200.98 99.19,204.69 			"/>
		</g>
		<g>
			<polygon class="st0" points="82.58,249.94 69.22,258.29 73.54,269.39 55.68,264.59 38.77,270.38 41.08,259.07 26.31,251.52 
				45.6,249.34 53.39,238.88 62.99,248.85 			"/>
		</g>
		<g>
			<polygon class="st0" points="70.34,293.4 66,304.51 79.36,312.91 59.76,313.91 50.15,323.83 42.38,313.34 23.07,311.09 
				37.86,303.6 35.58,292.28 52.47,298.13 			"/>
		</g>
		<g>
			<polygon class="st0" points="97.31,334.66 103.16,345.55 121.95,348.95 105.89,355.51 106.14,366.91 90.37,360.06 71.76,363.69 
				78.06,352.9 66.29,343.75 85.98,343.93 			"/>
		</g>
		<g>
			<polygon class="st0" points="203.79,180.36 193.71,190.12 201.92,200.5 182.72,197.93 168.27,205.62 166.48,194.27 
				149.34,188.66 167.43,184.2 171.3,173.03 184.24,181.64 			"/>
		</g>
	</g>
	<g>
		<g class="st1">
			<g>
				<polygon class="st2" points="241.01,182.13 240.98,192.14 230.96,182.31 230.99,172.29 				"/>
			</g>
			<g>
				<polygon class="st2" points="285.38,180.92 285.36,190.94 268.18,196.45 268.21,186.43 				"/>
			</g>
			<g>
				<polygon class="st3" points="251.94,189.99 251.91,200.01 232.7,202.47 232.73,192.45 				"/>
			</g>
			<g>
				<polygon class="st2" points="266.36,197.77 266.33,207.79 251.91,200.01 251.94,189.99 				"/>
			</g>
			<g>
				<polygon class="st3" points="268.21,186.43 268.18,196.45 266.33,207.79 266.36,197.77 				"/>
			</g>
			<g>
				<polygon class="st4" points="263.52,165.17 267.34,176.35 285.38,180.92 268.21,186.43 266.36,197.77 251.94,189.99 
					232.73,192.45 241.01,182.13 230.99,172.29 250.52,173.69 				"/>
			</g>
		</g>
		<g class="st1">
			<g>
				<polygon class="st3" points="315.98,204.58 315.95,214.6 315.62,203.21 315.65,193.19 				"/>
			</g>
			<g>
				<polygon class="st3" points="350.08,196.34 350.05,206.36 343.78,217.15 343.81,207.13 				"/>
			</g>
			<g>
				<polygon class="st2" points="318.75,214.55 318.73,224.57 299.93,221.18 299.96,211.16 				"/>
			</g>
			<g>
				<polygon class="st2" points="355.62,216.27 355.59,226.29 335.93,226.13 335.96,216.11 				"/>
			</g>
			<g>
				<polygon class="st5" points="324.67,225.42 324.64,235.44 318.73,224.57 318.75,214.55 				"/>
			</g>
			<g>
				<polygon class="st3" points="335.96,216.11 335.93,226.13 324.64,235.44 324.67,225.42 				"/>
			</g>
			<g>
				<polygon class="st4" points="350.08,196.34 343.81,207.13 355.62,216.27 335.96,216.11 324.67,225.42 318.75,214.55 
					299.96,211.16 315.98,204.58 315.65,193.19 331.45,200 				"/>
			</g>
		</g>
		<g class="st1">
			<g>
				<polygon class="st2" points="356.11,255.51 356.08,265.53 342.7,257.16 342.73,247.14 				"/>
			</g>
			<g>
				<polygon class="st3" points="399,248.86 398.97,258.88 384.23,266.39 384.26,256.37 				"/>
			</g>
			<g>
				<polygon class="st3" points="369.68,261.87 369.65,271.89 351.81,276.65 351.84,266.63 				"/>
			</g>
			<g>
				<polygon class="st2" points="386.62,267.69 386.59,277.71 369.65,271.89 369.68,261.87 				"/>
			</g>
			<g>
				<polygon class="st4" points="399,248.86 384.26,256.37 386.62,267.69 369.68,261.87 351.84,266.63 356.11,255.51 342.73,247.14 
					362.33,246.1 371.89,236.16 379.71,246.63 				"/>
			</g>
		</g>
		<g class="st1">
			<g>
				<polygon class="st3" points="383.54,289.59 383.51,299.61 381.24,310.93 381.27,300.91 				"/>
			</g>
			<g>
				<polygon class="st2" points="353.15,301.75 353.12,311.76 348.74,300.66 348.77,290.64 				"/>
			</g>
			<g>
				<polygon class="st5" points="396.08,308.43 396.05,318.45 376.77,320.67 376.8,310.65 				"/>
			</g>
			<g>
				<polygon class="st2" points="359.43,311.17 359.4,321.19 339.79,320.13 339.82,310.11 				"/>
			</g>
			<g>
				<polygon class="st5" points="369.07,321.11 369.04,331.13 359.4,321.19 359.43,311.17 				"/>
			</g>
			<g>
				<polygon class="st3" points="376.8,310.65 376.77,320.67 369.04,331.13 369.07,321.11 				"/>
			</g>
			<g>
				<polygon class="st4" points="383.54,289.59 381.27,300.91 396.08,308.43 376.8,310.65 369.07,321.11 359.43,311.17 
					339.82,310.11 353.15,301.75 348.77,290.64 366.64,295.41 				"/>
			</g>
		</g>
		<g class="st1">
			<g>
				<polygon class="st3" points="347.47,339.15 347.45,349.17 335.7,358.29 335.73,348.27 				"/>
			</g>
			<g>
				<polygon class="st2" points="307.91,350.8 307.89,360.82 291.81,354.23 291.84,344.21 				"/>
			</g>
			<g>
				<polygon class="st2" points="342.08,359.07 342.05,369.09 323.41,365.41 323.44,355.39 				"/>
			</g>
			<g>
				<polygon class="st3" points="323.44,355.39 323.41,365.41 307.67,372.21 307.7,362.2 				"/>
			</g>
			<g>
				<polygon class="st4" points="347.47,339.15 335.73,348.27 342.08,359.07 323.44,355.39 307.7,362.2 307.91,350.8 291.84,344.21 
					310.6,340.84 316.42,329.96 327.79,339.28 				"/>
			</g>
		</g>
		<g class="st1">
			<g>
				<polygon class="st5" points="228.99,370.12 228.96,380.13 220.72,369.78 220.75,359.76 				"/>
			</g>
			<g>
				<polygon class="st2" points="273.38,371.52 273.35,381.54 255.29,386.02 255.32,376 				"/>
			</g>
			<g>
				<polygon class="st2" points="238.5,378.59 238.47,388.61 218.94,389.92 218.97,379.9 				"/>
			</g>
			<g>
				<polygon class="st5" points="251.5,387.16 251.48,397.18 238.47,388.61 238.5,378.59 				"/>
			</g>
			<g>
				<polygon class="st3" points="255.32,376 255.29,386.02 251.48,397.18 251.5,387.16 				"/>
			</g>
			<g>
				<polygon class="st4" points="254.39,354.57 256.2,365.92 273.38,371.52 255.32,376 251.5,387.16 238.5,378.59 218.97,379.9 
					228.99,370.12 220.75,359.76 239.94,362.3 				"/>
			</g>
		</g>
		<g class="st1">
			<g>
				<polygon class="st3" points="179.3,357.86 179.27,367.88 171.05,378.22 171.08,368.2 				"/>
			</g>
			<g>
				<polygon class="st2" points="144.79,374.01 144.76,384.03 126.68,379.5 126.71,369.48 				"/>
			</g>
			<g>
				<polygon class="st2" points="181.15,378.01 181.12,388.03 161.57,386.66 161.6,376.64 				"/>
			</g>
			<g>
				<polygon class="st5" points="148.65,385.18 148.62,395.2 144.76,384.03 144.79,374.01 				"/>
			</g>
			<g>
				<polygon class="st3" points="161.6,376.64 161.57,386.66 148.62,395.2 148.65,385.18 				"/>
			</g>
			<g>
				<polygon class="st4" points="179.3,357.86 171.08,368.2 181.15,378.01 161.6,376.64 148.65,385.18 144.79,374.01 126.71,369.48 
					143.85,363.94 145.67,352.59 160.12,360.34 				"/>
			</g>
		</g>
		<g class="st1">
			<g>
				<polygon class="st6" points="104.36,187.9 104.33,197.92 104.07,209.31 104.1,199.29 				"/>
			</g>
			<g>
				<polygon class="st5" points="76.27,201.77 76.24,211.79 69.93,200.98 69.96,190.96 				"/>
			</g>
			<g>
				<polygon class="st2" points="120.14,205.91 120.11,215.93 101.31,219.26 101.34,209.24 				"/>
			</g>
			<g>
				<polygon class="st2" points="84.14,210.78 84.11,220.8 64.45,220.9 64.47,210.88 				"/>
			</g>
			<g>
				<polygon class="st5" points="95.49,220.11 95.46,230.13 84.11,220.8 84.14,210.78 				"/>
			</g>
			<g>
				<polygon class="st3" points="101.34,209.24 101.31,219.26 95.46,230.13 95.49,220.11 				"/>
			</g>
			<g>
				<polygon class="st4" points="104.36,187.9 104.1,199.29 120.14,205.91 101.34,209.24 95.49,220.11 84.14,210.78 64.47,210.88 
					76.27,201.77 69.96,190.96 88.58,194.67 				"/>
			</g>
		</g>
		<g class="st1">
			<g>
				<polygon class="st3" points="71.98,239.92 71.95,249.94 58.59,258.29 58.62,248.27 				"/>
			</g>
			<g>
				<polygon class="st5" points="30.48,249.05 30.45,259.07 15.67,251.52 15.7,241.5 				"/>
			</g>
			<g>
				<polygon class="st5" points="62.93,259.38 62.9,269.39 45.04,264.59 45.07,254.57 				"/>
			</g>
			<g>
				<polygon class="st3" points="45.07,254.57 45.04,264.59 28.13,270.38 28.16,260.36 				"/>
			</g>
			<g>
				<polygon class="st4" points="71.98,239.92 58.62,248.27 62.93,259.38 45.07,254.57 28.16,260.36 30.48,249.05 15.7,241.5 
					34.99,239.32 42.78,228.87 52.38,238.83 				"/>
			</g>
		</g>
		<g class="st1">
			<g>
				<polygon class="st5" points="27.25,293.58 27.23,303.6 24.94,292.28 24.97,282.26 				"/>
			</g>
			<g>
				<polygon class="st3" points="59.74,283.38 59.71,293.4 55.36,304.51 55.39,294.49 				"/>
			</g>
			<g>
				<polygon class="st2" points="31.77,303.32 31.74,313.34 12.44,311.09 12.47,301.07 				"/>
			</g>
			<g>
				<polygon class="st5" points="68.75,302.89 68.72,312.91 49.12,313.91 49.15,303.89 				"/>
			</g>
			<g>
				<polygon class="st5" points="39.54,313.81 39.51,323.83 31.74,313.34 31.77,303.32 				"/>
			</g>
			<g>
				<polygon class="st3" points="49.15,303.89 49.12,313.91 39.51,323.83 39.54,313.81 				"/>
			</g>
			<g>
				<polygon class="st4" points="59.74,283.38 55.39,294.49 68.75,302.89 49.15,303.89 39.54,313.81 31.77,303.32 12.47,301.07 
					27.25,293.58 24.97,282.26 41.87,288.11 				"/>
			</g>
		</g>
		<g class="st1">
			<g>
				<polygon class="st5" points="67.45,342.88 67.43,352.9 55.66,343.75 55.69,333.73 				"/>
			</g>
			<g>
				<polygon class="st3" points="111.34,338.94 111.32,348.95 95.26,355.51 95.28,345.49 				"/>
			</g>
			<g>
				<polygon class="st3" points="79.76,350.04 79.73,360.06 61.12,363.69 61.15,353.67 				"/>
			</g>
			<g>
				<polygon class="st5" points="95.54,356.89 95.51,366.91 79.73,360.06 79.76,350.04 				"/>
			</g>
			<g>
				<polygon class="st4" points="86.7,324.64 92.55,335.53 111.34,338.94 95.28,345.49 95.54,356.89 79.76,350.04 61.15,353.67 
					67.45,342.88 55.69,333.73 75.37,333.92 				"/>
			</g>
		</g>
		<g class="st1">
			<g>
				<polygon class="st3" points="193.18,170.34 193.15,180.36 183.07,190.12 183.1,180.11 				"/>
			</g>
			<g>
				<polygon class="st2" points="155.87,184.26 155.84,194.27 138.7,188.66 138.73,178.64 				"/>
			</g>
			<g>
				<polygon class="st2" points="191.31,190.48 191.28,200.5 172.09,197.93 172.12,187.91 				"/>
			</g>
			<g>
				<polygon class="st5" points="157.66,195.6 157.63,205.62 155.84,194.27 155.87,184.26 				"/>
			</g>
			<g>
				<polygon class="st3" points="172.12,187.91 172.09,197.93 157.63,205.62 157.66,195.6 				"/>
			</g>
			<g>
				<polygon class="st4" points="193.18,170.34 183.1,180.11 191.31,190.48 172.12,187.91 157.66,195.6 155.87,184.26 
					138.73,178.64 156.82,174.18 160.7,163.01 173.64,171.62 				"/>
			</g>
		</g>
	</g>
</g>
<g>
	<path class="st7" d="M24.04,127.02L99.7,83.34c1.07-0.62,2.05-0.67,2.81-0.26l0,0l2.25,1.09l-0.82,0.97l-0.03-0.01
		c0.11,0.45,0.18,0.96,0.18,1.52v44c0,3.23-1.96,6.98-4.39,8.38l-75.65,43.68c-0.25,0.14-0.48,0.25-0.72,0.33l0.01,1.14l-2.03-1.18
		c-1-0.49-1.64-1.77-1.64-3.61v-44C19.66,132.17,21.62,128.42,24.04,127.02z"/>
	<path class="st8" d="M26.17,183.94l75.65-43.68c2.42-1.4,4.39-5.15,4.39-8.38v-44c0-3.23-1.96-4.71-4.39-3.32l-75.65,43.68
		c-2.42,1.4-4.39,5.15-4.39,8.38v44C21.78,183.86,23.75,185.34,26.17,183.94z"/>
	<g>
		<g>
			
				<ellipse transform="matrix(0.5047 -0.8633 0.8633 0.5047 -111.8783 111.6171)" class="st9" cx="41.33" cy="153.31" rx="21.72" ry="12.54"/>
		</g>
		<g>
			<path class="st10" d="M35.36,152.33c0,4.62,2.71,6.8,6.06,4.87c3.34-1.93,6.06-7.24,6.06-11.87c0-4.62-2.71-6.8-6.06-4.87
				C38.08,142.39,35.36,147.7,35.36,152.33z"/>
			<path class="st11" d="M36.37,150.87l3.5-2.02c0.18-0.1,0.33-0.38,0.33-0.62v-0.11c0-0.24-0.15-0.35-0.33-0.25l-3.5,2.02
				c-0.18,0.1-0.33,0.38-0.33,0.62v0.11C36.05,150.87,36.19,150.98,36.37,150.87z"/>
			<path class="st11" d="M42.89,147.11l3.5-2.02c0.18-0.1,0.33-0.38,0.33-0.62v-0.11c0-0.24-0.15-0.35-0.33-0.25l-3.5,2.02
				c-0.18,0.1-0.33,0.38-0.33,0.62v0.11C42.56,147.11,42.71,147.22,42.89,147.11z"/>
			<path class="st11" d="M35.63,149.4l2.92-5.23c0.21-0.38,0.51-0.7,0.82-0.87l4.58-2.65c0.34-0.2,0.67-0.21,0.88-0.02l2.38,2.08
				c0-1.6-0.56-2.72-1.48-3.24c-0.91-0.52-2.18-0.43-3.57,0.37l-1.49,0.86C37.89,142.31,35.63,146.2,35.63,149.4z"/>
			<polygon class="st10" points="39.56,161.3 43.42,159.07 43.42,153.02 39.56,155.25 			"/>
			<path class="st12" d="M31.56,172.62c2.63,1.08,6.05,0.65,9.78-1.5c3.73-2.15,7.15-5.68,9.78-9.79c-0.28-4.3-3.53-5.94-7.49-3.66
				l-4.58,2.64C35.09,162.6,31.84,167.99,31.56,172.62z"/>
			<polygon class="st10" points="43.42,157.79 41.49,163.11 39.56,160.02 			"/>
			<polygon class="st13" points="39.56,160.02 41.49,163.11 43.42,157.79 44.97,159.87 41.49,171.02 38.01,163.88 			"/>
		</g>
	</g>
	<path class="st14" d="M21.78,135.82v6.37l84.43-48.74v-6.37c0-2.78-1.96-3.9-4.39-2.5l-75.65,43.68
		C23.75,129.65,21.78,133.04,21.78,135.82z"/>
	<g>
		<path class="st9" d="M62.63,129.8l37.9-21.88c0.85-0.49,1.54-1.8,1.54-2.93v-0.69c0-1.13-0.69-1.65-1.54-1.16l-37.9,21.88
			c-0.85,0.49-1.54,1.8-1.54,2.93v0.69C61.09,129.77,61.78,130.29,62.63,129.8z"/>
		<path class="st9" d="M62.63,138.73l37.9-21.88c0.85-0.49,1.54-1.8,1.54-2.93v-0.69c0-1.13-0.69-1.65-1.54-1.16l-37.9,21.88
			c-0.85,0.49-1.54,1.8-1.54,2.93v0.69C61.09,138.7,61.78,139.22,62.63,138.73z"/>
		<path class="st9" d="M62.63,147.67l37.9-21.88c0.85-0.49,1.54-1.8,1.54-2.93v-0.69c0-1.13-0.69-1.65-1.54-1.16l-37.9,21.88
			c-0.85,0.49-1.54,1.8-1.54,2.93v0.69C61.09,147.64,61.78,148.16,62.63,147.67z"/>
		<path class="st9" d="M62.63,156.6l37.9-21.88c0.85-0.49,1.54-1.8,1.54-2.93v-0.69c0-1.13-0.69-1.65-1.54-1.16l-37.9,21.88
			c-0.85,0.49-1.54,1.8-1.54,2.93v0.69C61.09,156.57,61.78,157.09,62.63,156.6z"/>
	</g>
	<g>
		<path class="st9" d="M41.33,125.97c0,1.46,1.03,2.05,2.3,1.31c1.27-0.73,2.3-2.51,2.3-3.97c0-1.46-1.03-2.05-2.3-1.31
			C42.36,122.74,41.33,124.52,41.33,125.97z"/>
		<path class="st9" d="M35.92,129.1c0,1.46,1.03,2.05,2.3,1.31c1.27-0.73,2.3-2.51,2.3-3.97c0-1.46-1.03-2.05-2.3-1.31
			C36.95,125.86,35.92,127.64,35.92,129.1z"/>
		<path class="st9" d="M30.51,132.22c0,1.46,1.03,2.05,2.3,1.31c1.27-0.73,2.3-2.51,2.3-3.97s-1.03-2.05-2.3-1.31
			C31.54,128.98,30.51,130.76,30.51,132.22z"/>
		<path class="st9" d="M25.1,135.34c0,1.46,1.03,2.05,2.3,1.31c1.27-0.73,2.3-2.51,2.3-3.97c0-1.46-1.03-2.05-2.3-1.31
			C26.14,132.11,25.1,133.88,25.1,135.34z"/>
	</g>
</g>
<g>
	<g>
		<polygon class="st0" points="258.07,211.98 329.76,253.37 329.76,274.62 292.98,295.86 266.14,295.86 237.85,211.98 		"/>
		<g>
			<path class="st15" d="M283.01,284.72c-0.04,0.09-0.08,0.18-0.12,0.27c-5.11,12.49-18.62,10.74-18.62,10.74l1.2-12.64
				l-78.02-44.93c-5.71-3.29-10.33-12.13-10.33-19.74V21.22l-11.23-4.98c0,0,4.89-12.45,17.71-11.21c0.33,0.01,0.67,0.06,1.02,0.12
				c0.04,0.01,0.07,0.01,0.11,0.01l0.01,0.01c0.87,0.19,1.77,0.53,2.72,1.07l86.01,49.54c5.71,3.29,10.33,12.13,10.33,19.74
				l0,204.36c0,1.83-0.27,3.42-0.76,4.74l0.01,0.01C283.04,284.67,283.03,284.69,283.01,284.72z"/>
			<polygon class="st16" points="268,101.83 283.81,92.7 283.8,88.42 266.15,98.62 			"/>
			<path class="st17" d="M261.49,62.72l-86.01-49.54c-5.71-3.29-10.33,0.2-10.33,7.81v204.36c0,7.61,4.63,16.45,10.33,19.74
				l86.01,49.54c5.71,3.29,10.33-0.2,10.33-7.81V82.46C271.82,74.85,267.19,66.01,261.49,62.72z"/>
			<g>
				<path class="st18" d="M226.57,47.44l-23.36-13.49c-0.87-0.5-1.57,0.03-1.57,1.19l0,0c0,1.16,0.7,2.5,1.57,3l23.36,13.49
					c0.87,0.5,1.57-0.03,1.57-1.19l0,0C228.14,49.28,227.44,47.94,226.57,47.44z"/>
				<g>
					<g>
						<path class="st19" d="M236.2,55.29c0-1-0.71-2.22-1.58-2.72c-0.87-0.5-1.58-0.1-1.58,0.9c0,1,0.71,2.22,1.58,2.72
							C235.49,56.69,236.2,56.29,236.2,55.29z"/>
					</g>
					<g>
						<path class="st19" d="M240.64,57.85c0-1-0.71-2.22-1.58-2.72c-0.87-0.5-1.58-0.1-1.58,0.9c0,1,0.71,2.22,1.58,2.72
							C239.93,59.25,240.64,58.85,240.64,57.85z"/>
					</g>
				</g>
			</g>
			<path class="st18" d="M258.01,72.62l-79.06-45.53c-5.28-3.05-9.56,0.19-9.56,7.23v189.14c0,7.04,4.28,15.22,9.56,18.27
				l79.06,45.53c5.28,3.05,9.56-0.19,9.56-7.23V90.89C267.58,83.85,263.29,75.67,258.01,72.62z"/>
			<path class="st7" d="M263.03,80.05c-1.61-2.79-3.65-4.99-5.73-6.2l-79.06-45.53c-1.3-0.75-3.19-1.45-4.83-0.51
				c-1.65,0.95-2.59,3.32-2.59,6.5l0,189.14c0,3.46,1.13,7.41,3.11,10.83c1.61,2.79,3.65,4.99,5.73,6.2l79.06,45.53
				c1.3,0.75,3.19,1.45,4.83,0.5c1.65-0.95,2.59-3.32,2.59-6.49V90.89C266.14,87.43,265.01,83.48,263.03,80.05z"/>
			<linearGradient id="SVGID_1_" gradientUnits="userSpaceOnUse" x1="218.1967" y1="108.5153" x2="218.6382" y2="169.1532">
				<stop  offset="0" style="stop-color:#AED4F1"/>
				<stop  offset="1" style="stop-color:#DCEDFA"/>
			</linearGradient>
			<polygon class="st20" points="251.76,187.45 185.06,148.99 185.06,88.14 251.76,126.6 			"/>
			<g>
				<path class="st7" d="M245.37,194.69c-0.01,2.31-0.09,4.6-0.26,6.81c-0.08,0.99-0.18,1.96-0.3,2.91c0,0.01,0,0.01,0,0.01
					c-0.08,0.66-0.18,1.3-0.28,1.94c-0.15,0.82-0.31,1.62-0.49,2.4c-0.2,0.82-0.43,1.61-0.69,2.36c0,0,0,0,0,0.01
					c-0.2,0.59-0.42,1.16-0.67,1.69c-0.26,0.6-0.55,1.15-0.87,1.66c-0.04,0.06-0.08,0.13-0.12,0.19c-0.26,0.39-0.53,0.74-0.82,1.05
					v0.01c-0.77,0.81-1.66,1.38-2.65,1.76c-0.26,0.1-0.52,0.19-0.79,0.27c-0.34,0.09-0.68,0.16-1.03,0.22
					c-0.28,0.04-0.57,0.08-0.87,0.1c-0.72,0.07-1.47,0.07-2.24,0.03c-0.3-0.01-0.61-0.04-0.92-0.07c-0.16-0.01-0.31-0.03-0.47-0.05
					c-0.31-0.03-0.63-0.07-0.95-0.13c-0.08-0.01-0.16-0.02-0.24-0.03c-0.51-0.08-1.02-0.18-1.54-0.29
					c-0.32-0.07-0.65-0.15-0.98-0.25c-0.58-0.15-1.17-0.32-1.75-0.52c-0.33-0.11-0.67-0.23-1.01-0.35c-1.68-0.62-3.39-1.4-5.1-2.32
					c-0.36-0.2-0.72-0.39-1.09-0.6c-1.02-0.58-2.05-1.2-3.06-1.87c-0.4-0.26-0.82-0.54-1.22-0.82c-1.41-0.97-2.82-2.01-4.22-3.12
					c-0.46-0.37-0.92-0.74-1.38-1.12c0,0.01,0,0.01-0.01,0c-0.99-0.82-1.97-1.67-2.94-2.55c-0.33-0.3-0.67-0.61-1-0.91
					c-0.07-0.06-0.14-0.13-0.21-0.19c-0.73-0.68-1.47-1.4-2.2-2.13c-0.36-0.36-0.71-0.71-1.07-1.08c-0.6-0.63-1.19-1.26-1.77-1.92
					c-0.35-0.39-0.71-0.79-1.05-1.2c-1.37-1.61-2.67-3.3-3.86-5.09c-0.34-0.51-0.67-1.02-0.98-1.54c-0.43-0.71-0.85-1.43-1.24-2.17
					c-0.26-0.5-0.52-1-0.76-1.51c-0.08-0.16-0.16-0.33-0.24-0.5c-0.82-1.78-1.46-3.55-1.97-5.3c0,0,0,0,0-0.01
					c-0.17-0.56-0.32-1.13-0.46-1.69c0,0,0,0,0-0.01c-0.56-2.31-0.91-4.59-1.11-6.84c-0.06-0.58-0.1-1.16-0.13-1.74
					c-0.07-1.06-0.11-2.12-0.13-3.16c-0.01-0.47-0.02-0.94-0.02-1.4c-0.01-1.61,0.01-3.19,0.03-4.74c0.01-0.09,0.01-0.18,0.01-0.27
					c0.01-0.3,0.01-0.6,0.01-0.9c0.01-0.61,0.02-1.23,0.03-1.84c0.01-0.4,0.01-0.81,0.02-1.21c0.01-0.77,0.02-1.52,0.03-2.29
					c0.01-0.39,0.01-0.79,0.02-1.19c0.01-0.82,0.03-1.64,0.05-2.47c0.01-0.46,0.02-0.92,0.03-1.39c0.04-1.39,0.07-2.78,0.13-4.17
					c0.02-0.55,0.04-1.09,0.07-1.64c0.08-1.79,0.19-3.56,0.33-5.31c0.04-0.58,0.09-1.15,0.14-1.71c0.22-2.42,0.52-4.78,0.91-7.08
					c0.1-0.62,0.22-1.23,0.34-1.84v-0.01c0.06-0.31,0.12-0.6,0.18-0.9c0.93-4.43,2.33-8.54,4.26-12c0-0.01,0.01-0.01,0.01-0.01
					c0.78-1.38,1.64-2.66,2.59-3.8v-0.01c0.52-0.64,1.08-1.23,1.66-1.78c0.89-0.85,1.84-1.61,2.87-2.24l0.01,0
					c1.1-0.68,2.27-1.23,3.54-1.64c6.97-2.23,18.73,7.51,24.65,17.59c0.07,0.11,0.14,0.23,0.19,0.34c0.7,1.2,1.34,2.4,1.94,3.62
					c0.48,0.97,0.94,1.95,1.37,2.94c0.36,0.81,0.7,1.62,1.02,2.43c0.21,0.53,0.42,1.06,0.62,1.59c0.26,0.68,0.51,1.36,0.74,2.05
					c0.38,1.09,0.74,2.17,1.08,3.26c0.19,0.6,0.38,1.2,0.56,1.8c0.35,1.15,0.68,2.3,0.99,3.45c0.14,0.5,0.28,1,0.4,1.5
					c0.18,0.66,0.35,1.32,0.52,1.98c0.73,2.85,1.4,5.69,1.99,8.51c0.12,0.55,0.23,1.09,0.33,1.64c0.4,1.96,0.76,3.91,1.08,5.85
					c0.08,0.48,0.16,0.97,0.23,1.44c0.27,1.69,0.51,3.38,0.73,5.05c0.06,0.42,0.11,0.84,0.16,1.25c0.07,0.55,0.13,1.1,0.19,1.64
					c0.05,0.41,0.09,0.83,0.13,1.23c0.18,1.69,0.32,3.35,0.44,5.01c0.03,0.41,0.06,0.82,0.09,1.22c0.05,0.84,0.1,1.66,0.14,2.49
					c0.03,0.64,0.06,1.3,0.09,1.97c0.02,0.4,0.04,0.8,0.05,1.2c0.09,2.12,0.16,4.33,0.18,6.56
					C245.37,193.4,245.37,194.04,245.37,194.69z"/>
				<g>
					<path class="st21" d="M232.25,126.7c-0.43-0.51-0.86-1.01-1.28-1.52l-1.28-1.51c-6.22-7.34-12.88-14.38-19.35-16.22
						c-3.08-0.88-5.37-0.15-7.79,0.62c-0.67,0.22-1.36,0.44-2.08,0.62c-0.47,0.12-0.94,0.24-1.41,0.34
						c0.89-0.85,1.84-1.61,2.87-2.24l0.01,0c2.5-0.8,4.87-1.56,8.16-0.62c6.81,1.94,13.67,9.18,20.07,16.73l0.15,0.18
						C231,124.29,231.64,125.49,232.25,126.7z"/>
				</g>
				<g>
					<path class="st9" d="M209.68,165.82c-0.9,0.27-1.89,0.49-2.91,0.69c-1.47,0.27-2.98,0.48-4.45,0.67
						c-4.57,0.64-9.31,1.29-12.86,3.92c-0.34,0.25-0.65,0.51-0.95,0.78c-0.05-0.58-0.11-1.15-0.14-1.73
						c0.11-0.09,0.21-0.16,0.34-0.25c3.64-2.72,8.44-3.37,13.07-4.01c1.47-0.21,2.98-0.42,4.43-0.69c0.6-0.11,1.18-0.23,1.75-0.37
						h0.02L209.68,165.82z"/>
					<path class="st9" d="M195.14,157.43c-1.24,0.23-2.51,0.41-3.74,0.55c-0.97,0.11-2.03,0.14-3.11-0.14
						c0.02-0.41,0.02-0.81,0.02-1.22c0.87,0.19,1.75,0.14,2.58,0.05c0.79-0.09,1.61-0.19,2.4-0.32L195.14,157.43z"/>
					<path class="st21" d="M220.82,147.63c0,2.77-0.02,5.26-0.48,7.51c-0.81,3.97-2.95,6.94-6.48,8.94
						c-1.22,0.71-2.61,1.29-4.19,1.75l-1.71-0.99c1.68-0.42,3.14-0.95,4.45-1.61c3.82-1.91,6.09-4.86,6.92-8.9
						c0.44-2.15,0.48-4.56,0.48-7.28c-0.02-2.63-1.11-5.42-2.74-6.96c-1.48-1.38-3.04-1.43-4.27-0.12c-1.29,1.36-2.03,3.41-2.76,5.4
						c-0.42,1.17-0.87,2.37-1.41,3.43c-1.93,3.78-5.03,5.97-8.57,7.29h-0.02c-1.57,0.6-3.23,1.02-4.91,1.34l-1.85-1.08
						c1.75-0.26,3.48-0.64,5.16-1.18c3.83-1.24,7.24-3.41,9.27-7.38c0.51-1.04,0.95-2.21,1.36-3.36c0.76-2.05,1.54-4.19,2.9-5.62
						c1.48-1.57,3.5-1.47,5.4,0.34C219.42,141.08,220.82,144.49,220.82,147.63z"/>
				</g>
				<g>
					<path class="st21" d="M216.1,147.72c-0.28-1.11-0.74-1.64-1.08-1.89c-0.95-0.71-1.91,0.07-2.54,0.81
						c-0.64,0.76-1.09,1.7-1.54,2.61c-0.23,0.46-0.46,0.94-0.71,1.38c-1.36,2.37-2.54,3.96-3.85,5.16c-0.9,0.83-1.91,1.59-2.97,2.24
						c-1.25,0.78-2.6,1.41-3.97,1.89l1.59,0.92c1.31-0.53,2.6-1.2,3.78-2c0.85-0.56,1.64-1.18,2.38-1.87
						c1.34-1.25,2.56-2.88,3.94-5.3c0.26-0.46,0.49-0.95,0.72-1.41c0.46-0.92,0.88-1.78,1.47-2.49c0.72-0.85,1.36-1.02,1.55-0.87
						c0.04,0.02,0.14,0.18,0.25,0.62c0.32,1.34-0.09,3.3-0.32,4.4c-0.32,1.47-0.87,2.79-1.62,3.94c-1.45,2.15-3.51,3.46-5.7,4.52
						c-0.79,0.37-1.61,0.72-2.4,1.08c-0.55,0.25-1.11,0.49-1.68,0.72l1.54,0.9c0.26-0.12,0.55-0.23,0.81-0.35
						c1.04-0.46,2.14-0.94,3.2-1.5c1.94-1.02,3.8-2.33,5.12-4.31c0.81-1.2,1.4-2.61,1.73-4.2
						C216.07,151.48,216.51,149.41,216.1,147.72z"/>
					<path class="st9" d="M201.04,160.84c-0.79,0.32-1.59,0.58-2.4,0.78c-2.26,0.55-4.64,0.64-7.08,0.23
						c-0.95-0.16-2.1-0.41-3.32-1.01c0.02-0.09,0.02-0.18,0.02-0.26c0-0.3,0-0.6,0.02-0.9c1.06,0.51,2.08,0.72,2.95,0.88
						c2.35,0.39,4.64,0.3,6.84-0.23c0.46-0.12,0.92-0.25,1.38-0.41h0.02L201.04,160.84z"/>
					<path class="st9" d="M204.94,163.08c-2.21,0.95-4.47,1.89-6.89,2.44c-1.71,0.39-3.55,0.62-5.32,0.83
						c-1.5,0.18-3.04,0.35-4.5,0.64c-0.02-0.46-0.02-0.94-0.02-1.4c1.31-0.23,2.67-0.39,3.99-0.55c1.77-0.21,3.59-0.42,5.28-0.81
						c2.05-0.48,4.01-1.24,5.9-2.05h0.02L204.94,163.08z"/>
				</g>
				<g>
					<path class="st9" d="M190.39,154.68c-0.69-0.02-1.38-0.12-2.05-0.34c0-0.26,0-0.55,0.02-0.83L190.39,154.68z"/>
					<path class="st21" d="M244.4,174.32c-1.89-1.04-3.71-2.26-5.48-3.66c-5.19-4.13-9.78-9.94-12.61-15.95
						c-0.92-1.98-1.68-3.99-2.4-5.95c-0.72-1.96-1.48-3.99-2.4-5.92c-1.64-3.46-4.43-7.49-7.36-8.46c-1.04-0.34-2.1-0.28-3.25,0.19
						c-3.28,1.32-5.19,4.95-7.03,8.46c-0.74,1.43-1.52,2.91-2.38,4.22c-1.47,2.24-3.25,4.1-5.28,5.51c-0.3,0.21-0.6,0.41-0.9,0.58
						c-1.66,0.95-3.29,1.41-4.91,1.32l-2.03-1.17c-0.02-0.12,0-0.25,0-0.37c1.8,0.48,3.62,0.28,5.48-0.64
						c0.53-0.25,1.06-0.57,1.61-0.95c2-1.38,3.73-3.18,5.16-5.37c0.85-1.29,1.61-2.76,2.35-4.17c1.89-3.59,3.83-7.31,7.29-8.72
						c1.27-0.51,2.47-0.57,3.69-0.16c3.39,1.11,6.55,5.63,8.39,9.47c0.95,2.03,1.73,4.12,2.47,6.13c0.72,1.91,1.45,3.87,2.33,5.76
						c2.67,5.69,7.05,11.21,11.97,15.14c1.66,1.32,3.39,2.47,5.16,3.46C244.31,173.49,244.34,173.91,244.4,174.32z"/>
				</g>
				<g>
					<path class="st9" d="M214.81,168.77c-0.55,0.41-1.11,0.76-1.7,1.06c-2.24,1.18-4.84,1.77-7.33,2.33
						c-0.56,0.12-1.13,0.25-1.68,0.37c-5.23,1.25-11.02,3.27-14.04,7.89c-0.16-0.57-0.32-1.13-0.46-1.7
						c1.59-2.17,3.8-3.73,6.25-4.91c2.44-1.18,5.12-1.96,7.67-2.58c0.55-0.12,1.11-0.26,1.68-0.39c2.47-0.55,5.02-1.11,7.21-2.28
						c0.34-0.18,0.67-0.37,1.01-0.6L214.81,168.77z"/>
					<path class="st21" d="M244.91,180.53c-2.44-1.48-5.17-3.41-7.84-5.86c-2.65-2.44-6.34-6.48-8.85-11.87
						c-0.28-0.58-0.53-1.18-0.78-1.75c-0.42-0.97-0.83-1.91-1.31-2.79c-0.69-1.29-1.4-2.17-1.96-2.47
						c-0.39-0.21-0.76-0.18-1.11,0.14c-0.6,0.51-0.83,1.4-1.08,2.35c-0.09,0.39-0.19,0.79-0.34,1.18c-0.57,1.66-1.41,3.07-2.24,4.36
						c-0.57,0.87-1.17,1.68-1.82,2.4c-0.85,0.99-1.78,1.84-2.77,2.54l-1.4-0.79c1.06-0.65,2.03-1.48,2.95-2.45
						c0.76-0.81,1.48-1.73,2.14-2.76c0.81-1.27,1.64-2.65,2.19-4.22c0.12-0.35,0.21-0.74,0.32-1.13c0.26-1.01,0.53-2.05,1.25-2.67
						c0.55-0.48,1.17-0.53,1.89-0.14c0.87,0.48,1.82,1.62,2.74,3.3c0.53,0.99,0.97,2.01,1.4,2.98c0.23,0.57,0.48,1.13,0.74,1.7
						c2.35,5.02,5.81,8.83,8.32,11.13c2.53,2.33,5.14,4.15,7.47,5.6C244.86,179.74,244.89,180.14,244.91,180.53z"/>
				</g>
				<g>
					<path class="st21" d="M244.07,171.44c-2.97-1.75-6.02-3.95-8.71-7.09c-2.85-3.33-5.34-7.73-7.61-13.42
						c-0.28-0.7-0.54-1.4-0.81-2.1c-0.7-1.82-1.42-3.7-2.29-5.49c-2.02-4.11-4.76-6.77-8.27-9.48c-0.68-0.53-1.95-1.51-2.44-2.99
						c-0.34-1.04-0.15-2.01,0.47-2.41c0.44-0.28,1.05-0.3,1.91-0.06c2.85,0.79,6.18,3.57,9.16,7.63c2.62,3.57,4.63,7.58,6.59,11.45
						c1.9,3.78,3.88,7.69,6.38,11.1c1.31,1.79,2.8,3.49,4.5,5.1c0.08,0.48,0.16,0.97,0.23,1.44c-2-1.86-3.76-3.82-5.3-5.91
						c-2.63-3.59-4.65-7.59-6.6-11.46c-1.91-3.78-3.88-7.69-6.38-11.1c-2.74-3.73-5.77-6.28-8.33-6.99
						c-0.67-0.19-1.13-0.18-1.43,0.01c-0.29,0.18-0.47,0.66-0.29,1.21c0.24,0.7,0.95,1.33,1.7,1.91c3.23,2.5,6.55,5.48,8.89,10.27
						c0.93,1.88,1.66,3.81,2.38,5.68c0.27,0.69,0.53,1.38,0.8,2.07c2.16,5.44,4.52,9.61,7.2,12.74c2.49,2.9,5.28,4.95,8.09,6.61
						C243.97,170.6,244.02,171.02,244.07,171.44z"/>
				</g>
				<g>
					<path class="st21" d="M241.87,157.83c-3.38-3.54-6.1-8.11-8.38-12.12l-0.84-1.49c-3.11-5.49-6.32-11.15-10.63-15.39
						c-3.06-3-6.69-4.73-9.03-4.29c-2.26,0.42-4.24,1.9-6.06,4.52c-0.35,0.5-0.7,0.99-1.06,1.47c-1.01,1.39-1.96,2.69-2.77,4.32
						c-0.27,0.55-0.54,1.11-0.81,1.67c-0.96,1.97-1.95,4.01-3.05,5.87c-2.52,4.23-5.17,6.69-8.35,7.74
						c-0.79,0.26-1.63,0.44-2.48,0.54c0.01-0.46,0.02-0.92,0.03-1.39c0.63-0.09,1.24-0.24,1.83-0.43c3.06-1,5.62-3.39,8.07-7.51
						c1.09-1.84,2.08-3.86,3.03-5.82c0.27-0.56,0.54-1.12,0.81-1.67c0.83-1.68,1.79-3.01,2.82-4.41c0.35-0.48,0.7-0.96,1.05-1.46
						c1.9-2.74,3.99-4.29,6.38-4.73c2.59-0.48,6.58,1.4,9.92,4.68c4.54,4.45,7.84,10.28,11.03,15.9l0.84,1.48
						c2.13,3.75,4.45,7.66,7.32,10.88C241.66,156.74,241.77,157.29,241.87,157.83z"/>
				</g>
				<g>
					<path class="st21" d="M239.55,147.69c-0.09-0.1-0.17-0.2-0.25-0.3c-2.29-2.76-4.33-5.88-6.31-8.89
						c-2.3-3.52-4.68-7.16-7.42-10.12c-4.85-5.26-10.84-8.14-15.27-7.36c-2.45,0.43-4.91,2-7.29,4.68
						c-1.92,2.14-3.41,4.96-4.85,7.68c-0.39,0.74-0.77,1.47-1.17,2.18c-2.03,3.68-4.3,7.43-7.85,9.28c-0.19,0.1-0.39,0.19-0.59,0.28
						c0.02-0.55,0.04-1.09,0.07-1.64c3.33-1.82,5.51-5.42,7.45-8.96c0.39-0.72,0.78-1.44,1.17-2.17c1.46-2.76,2.96-5.61,4.93-7.8
						c2.46-2.76,5-4.39,7.58-4.84c4.71-0.83,11.09,2.25,16.24,7.82c2.86,3.1,5.3,6.83,7.65,10.43c1.72,2.62,3.48,5.32,5.4,7.74
						C239.21,146.37,239.39,147.03,239.55,147.69z"/>
				</g>
				<g>
					<path class="st21" d="M237.63,140.77c-1.3-1.27-2.56-2.64-3.76-4.09c-1.3-1.58-2.55-3.28-3.75-4.92
						c-1.19-1.62-2.42-3.29-3.69-4.83c-5.38-6.52-11.69-10.65-16.48-10.77c-5.55-0.14-8.88,4.69-11.4,9.42
						c-0.31,0.59-0.61,1.18-0.93,1.77c-2.27,4.38-4.62,8.92-8.68,10.82c0.04-0.58,0.09-1.15,0.14-1.71
						c3.42-2.04,5.55-6.14,7.61-10.13c0.31-0.59,0.62-1.19,0.93-1.78c2.6-4.88,6.03-9.85,11.88-9.7
						c5.08,0.12,11.75,4.47,17.41,11.33c1.31,1.59,2.56,3.29,3.77,4.94c1.18,1.61,2.41,3.27,3.67,4.81
						c0.87,1.06,1.78,2.07,2.71,3.03C237.27,139.57,237.45,140.17,237.63,140.77z"/>
				</g>
				<g>
					<path class="st21" d="M200.34,117.47c-0.1,0.21-0.19,0.4-0.25,0.57c-0.7,1.76-1.71,3.21-2.7,4.6l-0.18,0.26
						c-1.97,2.81-4.39,4.99-7.21,6.5c0.1-0.62,0.22-1.23,0.34-1.84v-0.01c2.31-1.43,4.32-3.36,5.99-5.75l0.18-0.25
						c0.96-1.36,1.95-2.78,2.62-4.47c0.07-0.18,0.16-0.38,0.27-0.6c0.49-1.05,1.3-2.8,0.45-4.04c-0.85-1.26-2.49-0.01-3.1,0.45
						l-0.07,0.06c-0.64,0.49-1.27,1.05-1.89,1.69c0.78-1.38,1.64-2.66,2.59-3.8v-0.01c0.94-0.39,2.09-0.41,3.09,1.06
						C201.93,114.01,200.93,116.18,200.34,117.47z"/>
				</g>
				<g>
					<path class="st21" d="M236,135.71c-2.73-2.83-5.36-5.89-7.94-8.9c-1.2-1.39-2.44-2.84-3.66-4.22c-1.31-1.5-2.72-3.06-4.23-4.32
						c-1.17-0.99-2.48-1.85-4-2.66c-2.5-1.32-4.86-2.08-7.01-2.27c-1.14-0.1-2.2-0.04-3.15,0.19c-0.27,0.06-0.52,0.16-0.77,0.25
						c-0.63,0.24-1.28,0.48-2.21,0.25c-0.21-0.05-0.49-0.15-0.78-0.43c-0.28-0.27-0.5-0.64-0.61-1.03c-0.19-0.69,0-1.29,0.21-1.59
						c2.04-2.88,6.74-2.33,10.46-0.86c5.55,2.21,11.02,7.83,15.17,12.49c1.1,1.23,2.2,2.51,3.27,3.74c0.94,1.09,1.9,2.19,2.87,3.28
						c0.36,0.81,0.7,1.62,1.02,2.43c-1.47-1.62-2.92-3.29-4.34-4.94c-1.06-1.23-2.16-2.49-3.25-3.72
						c-4.01-4.51-9.3-9.95-14.57-12.05c-3.49-1.38-7.87-1.93-9.74,0.7c-0.15,0.21-0.17,0.52-0.14,0.63c0-0.01,0.05,0.02,0.17,0.04
						c0.73,0.18,1.26-0.03,1.84-0.24c0.26-0.1,0.53-0.2,0.82-0.27c1.02-0.24,2.14-0.31,3.35-0.2c2.26,0.2,4.74,1,7.36,2.38
						c1.61,0.85,3.01,1.78,4.27,2.84c1.6,1.35,3.07,2.98,4.44,4.53c1.23,1.4,2.48,2.85,3.68,4.25c2.21,2.57,4.45,5.18,6.74,7.63
						C235.51,134.35,235.76,135.03,236,135.71z"/>
				</g>
				<g>
					<path class="st9" d="M245.37,192.76v1.94c-1.17-2.6-2.63-5.12-4.34-7.4c-1.98-2.61-4.24-4.89-6.43-7.1l2.84,1.64
						c1.43,1.48,2.83,3.06,4.13,4.8C243,188.55,244.29,190.62,245.37,192.76z"/>
					<path class="st21" d="M234.79,179.16c0.88,0.88,1.77,1.77,2.65,2.68l-2.84-1.64c-0.05-0.05-0.09-0.09-0.14-0.14
						c-1.17-1.17-2.37-2.37-3.53-3.62c-1.48-1.61-2.77-3.2-3.87-4.77c-2.17-3.04-3.62-6-4.26-8.76c-0.3-1.22-0.28-2.05,0.02-2.54
						c0.37-0.62,1.24-0.65,2.15-0.09c0.69,0.44,1.38,1.15,2.1,2.17c1.18,1.68,2.05,3.53,2.88,5.33c0.37,0.79,0.74,1.62,1.15,2.4
						c1.09,2.15,2.46,4.22,4.01,6.15c2.79,3.46,6.23,6.46,10.03,8.67c0.02,0.39,0.04,0.79,0.05,1.2c-4.61-2.68-8.8-6.53-11.97-10.97
						c-1.1-1.52-2.07-3.11-2.9-4.75c-0.42-0.83-0.81-1.68-1.2-2.49c-0.81-1.78-1.59-3.44-2.65-4.95c-0.55-0.78-1.08-1.32-1.55-1.62
						c-0.51-0.32-1.01-0.34-1.2-0.02c-0.18,0.28-0.16,0.85,0.04,1.71c0.81,3.46,2.95,6.85,5.16,9.63c0.81,1.06,1.64,2.01,2.42,2.86
						C232.46,176.82,233.64,178.01,234.79,179.16z"/>
				</g>
				<g>
					<path class="st9" d="M245.11,201.5c-0.08,0.99-0.18,1.96-0.3,2.91c-0.74-3.97-1.93-8.3-4.36-12.22
						c-1.58-2.54-3.51-4.65-5.55-6.86c-1.26-1.37-2.56-2.79-3.77-4.31c-0.81-1.03-1.58-2.11-2.32-3.15c-0.74-1.03-1.51-2.12-2.3-3.1
						c-1.77-2.23-3.68-3.94-5.4-4.81c-1.26-0.64-2.59-0.13-3.97,1.53c-0.48,0.58-0.91,1.26-1.33,1.91
						c-0.49,0.77-0.99,1.55-1.59,2.22c-2.35,2.63-5.95,3.18-9.43,3.71c-3.25,0.49-6.62,1.01-8.87,3.24
						c-1.31,1.29-2.2,3.13-2.89,5.18c-0.26-0.5-0.52-1-0.76-1.51c0.69-1.9,1.58-3.59,2.84-4.83c2.37-2.35,5.81-2.87,9.14-3.38
						c3.39-0.52,6.9-1.05,9.13-3.55c0.57-0.63,1.06-1.4,1.53-2.15c0.43-0.67,0.87-1.36,1.37-1.96c1.56-1.88,3.16-2.42,4.76-1.61
						c1.91,0.98,4.03,2.86,5.97,5.3c0.82,1.04,1.61,2.14,2.37,3.2c0.73,1.02,1.48,2.07,2.26,3.05c1.15,1.46,2.43,2.84,3.66,4.18
						c2.03,2.2,4.12,4.48,5.82,7.22C243.1,194.88,244.3,198.25,245.11,201.5z"/>
				</g>
				<g>
					<path class="st9" d="M237.68,191.08c-1.24-1.61-2.6-3.05-3.91-4.44c-1.16-1.22-2.35-2.49-3.43-3.85
						c-0.73-0.91-1.43-1.9-2.12-2.86c-1.11-1.56-2.26-3.19-3.58-4.57c-2.23-2.36-5.24-3.93-6.67-2.35
						c-0.58,0.65-0.77,1.67-0.96,2.66c-0.05,0.27-0.1,0.54-0.16,0.79c-0.82,3.68-3.46,6.05-7.86,7.04
						c-1.46,0.32-3.02,0.51-4.52,0.68c-2.28,0.27-4.63,0.54-6.73,1.33c-1.96,0.73-3.24,1.77-3.46,4.41
						c0.32,0.52,0.65,1.04,0.98,1.54c-0.04-2.92,1.12-3.94,3.12-4.68c2.04-0.76,4.36-1.03,6.61-1.29c1.52-0.18,3.09-0.36,4.58-0.7
						c4.61-1.03,7.39-3.55,8.27-7.49c0.06-0.27,0.11-0.55,0.16-0.82c0.18-0.93,0.34-1.81,0.8-2.32c1.11-1.23,3.63,0.14,5.44,2.06
						c1.2,1.27,2.26,2.75,3.37,4.33c0.7,0.99,1.43,2.01,2.19,2.97c1.14,1.43,2.37,2.73,3.56,3.99c1.27,1.34,2.59,2.74,3.75,4.26
						c3.26,4.25,5.65,9.86,6.71,15.8c0.07,0.4,0.14,0.8,0.2,1.2c0.18-0.78,0.34-1.58,0.49-2.4
						C243.3,200.64,240.88,195.25,237.68,191.08z"/>
				</g>
				<g>
					<path class="st9" d="M229.21,200.35c-0.19-1.76-0.28-3.5-0.37-5.18c-0.24-4.42-0.49-9-2.49-14.22
						c-0.61-1.57-1.29-2.84-2.09-3.86c-1.04-1.33-2.24-2.17-3.22-2.26c-1.9-0.17-2.28,2.3-2.34,3.8c-0.23,6.17,1.6,13.17,3.38,19.95
						c1.23,4.69,2.5,9.54,3.05,14.02c0.16,1.29,0.26,2.55,0.31,3.78c0.33,0.12,0.67,0.25,1.01,0.35c-0.06-1.22-0.16-2.47-0.31-3.74
						c-0.57-4.6-1.85-9.51-3.1-14.26c-1.74-6.65-3.54-13.53-3.32-19.48c0.04-0.98,0.28-3.25,1.72-3.12c0.68,0.06,1.55,0.69,2.3,1.64
						c0.64,0.82,1.21,1.89,1.73,3.24c1.89,4.92,2.12,9.16,2.36,13.64c0.09,1.7,0.18,3.45,0.37,5.25c0.63,5.85,2.34,12.02,4.18,18.09
						c0.31,0.03,0.62,0.06,0.92,0.07C231.49,212.1,229.82,206.04,229.21,200.35z"/>
				</g>
				<g>
					<path class="st9" d="M222.35,183.43c0.21-0.23,0.49-0.31,0.82-0.12c0.26,0.15,0.56,0.48,0.81,0.91
						c0.45,0.75,0.7,1.61,0.95,2.66c0.74,3.14,1.11,6.23,1.46,9.23c0.21,1.71,0.42,3.48,0.69,5.25c0.87,5.53,2.44,11.37,3.87,16.47
						c0.32,0.05,0.64,0.09,0.95,0.13c-1.43-5.05-2.98-10.83-3.83-16.25c-0.27-1.74-0.48-3.49-0.68-5.19
						c-0.36-3.04-0.74-6.19-1.49-9.42c-0.25-1.09-0.57-2.23-1.22-3.31c-0.44-0.75-0.97-1.33-1.5-1.63
						c-1.28-0.74-2.13,0.27-2.21,1.68c-0.27,4.62,1.38,10,2.99,15.19c0.43,1.4,0.88,2.84,1.27,4.22c1.55,5.48,2.53,10.06,2.97,14.02
						c0.33,0.09,0.66,0.17,0.98,0.25c-0.6-5.17-1.93-10.33-3.01-14.14c-0.4-1.4-0.85-2.86-1.28-4.27
						c-1.55-5.03-3.17-10.25-2.91-14.6C222.01,184.06,222.15,183.67,222.35,183.43z"/>
				</g>
				<g>
					<path class="st9" d="M243.36,211.11C243.36,211.11,243.36,211.11,243.36,211.11c-0.2,0.6-0.42,1.16-0.67,1.7
						c-0.62-4.35-1.73-8.57-3.32-12.6c-0.15-0.37-0.29-0.75-0.44-1.13c-1.07-2.76-2.28-5.89-4.2-7.91
						c-1.24-1.31-2.19-1.46-2.76-1.34c-1.02,0.19-1.69,1.34-1.69,2.91c-0.02,2.78,0.4,6.02,1.25,9.65c1.14,4.87,2.9,9.9,4.6,14.77
						c0.1,0.27,0.19,0.53,0.28,0.8c-0.28,0.04-0.57,0.08-0.87,0.1c-0.11-0.3-0.21-0.6-0.32-0.9c-1.73-4.93-3.51-10.02-4.67-14.99
						c-0.88-3.77-1.32-7.14-1.3-10.03c0.01-1.99,0.83-3.38,2.14-3.62c1.11-0.21,2.43,0.43,3.71,1.78c2.24,2.36,3.55,5.73,4.7,8.7
						c0.15,0.38,0.29,0.75,0.44,1.12C241.65,203.65,242.69,207.33,243.36,211.11z"/>
				</g>
				<g>
					<path class="st9" d="M233.78,203.09c0.27,2.48,1.08,5.11,1.83,7.35c0.78,2.34,1.66,4.69,2.63,7.02
						c-0.26,0.1-0.52,0.19-0.79,0.27c-1.02-2.43-1.93-4.88-2.75-7.31c-0.74-2.21-1.62-5.08-1.92-7.75c-0.07-0.65-0.63-6.32,1.46-6.2
						c1.75,0.1,3.43,3.13,4.43,5.93c1.48,4.15,2.5,8.3,3.04,12.26c-0.26,0.39-0.53,0.74-0.82,1.05c-0.45-4.26-1.51-8.76-3.11-13.29
						c-0.17-0.46-1.66-4.55-3.11-4.63C233.65,197.72,233.54,200.85,233.78,203.09z"/>
				</g>
				<g>
					<path class="st9" d="M219.08,191.95c-0.98-2.79-2.21-4.63-3.57-5.32c-1.15-0.59-2.01-0.14-2.53,0.33
						c-0.41,0.38-0.73,0.85-1.04,1.31c-0.34,0.51-0.66,0.99-1.09,1.33c-1.12,0.91-2.78,0.74-4.54,0.56
						c-1.31-0.14-2.65-0.27-3.81,0.05c-2.22,0.63-3.49,3.11-3.39,6.34c0.34,0.41,0.7,0.81,1.05,1.2c-0.3-3.17,0.84-5.66,2.95-6.26
						c1.05-0.29,2.34-0.16,3.59-0.03c1.8,0.19,3.65,0.38,4.94-0.66c0.48-0.39,0.84-0.93,1.19-1.44c0.31-0.45,0.59-0.89,0.95-1.22
						c0.32-0.29,0.97-0.72,1.78-0.31c1.17,0.6,2.07,2.58,2.61,4.13c2.9,8.23,3.24,16.25,1.06,21.5c0.36,0.21,0.72,0.4,1.09,0.6
						C222.45,208.57,222.05,200.36,219.08,191.95z"/>
				</g>
				<g>
					<path class="st9" d="M218.06,205.7c-0.18,2.86-0.79,4.77-1.85,5.86c-0.01,0.01-0.02,0.02-0.03,0.03
						c-0.4-0.26-0.82-0.54-1.22-0.82c0.15-0.11,0.3-0.23,0.43-0.37c0.95-0.97,1.49-2.73,1.66-5.37c0.12-1.92,0.05-3.85-0.23-5.74
						c-0.11-0.73-0.56-3.17-1.84-4.07c-0.71-0.5-1.38-0.24-1.72-0.05c-0.23,0.14-0.44,0.32-0.66,0.51c-0.29,0.25-0.6,0.51-0.96,0.68
						c-1.04,0.49-2.36,0.2-3.64-0.07c-0.99-0.21-1.94-0.41-2.75-0.27c-1.68,0.29-2.58,2.26-2.24,4.73
						c-0.36-0.36-0.71-0.71-1.07-1.08c-0.15-2.6,0.91-4.62,2.76-4.94c0.92-0.16,1.98,0.06,2.99,0.29c1.23,0.26,2.38,0.51,3.26,0.1
						c0.31-0.14,0.58-0.37,0.86-0.61c0.22-0.19,0.46-0.39,0.72-0.55c0.79-0.48,1.69-0.42,2.54,0.18c1.34,0.93,2.35,3,2.72,5.52
						C218.11,201.65,218.19,203.68,218.06,205.7z"/>
				</g>
				<g>
					<path class="st9" d="M211.81,207.23c-0.34,0.17-0.7,0.31-1.07,0.42c-0.46-0.37-0.92-0.74-1.38-1.12
						c0.62-0.1,1.21-0.29,1.75-0.56c0.84-0.43,1.84-1.28,1.74-2.91c-0.02-0.35-0.15-0.77-0.33-1.04c-0.09-0.13-0.15-0.17-0.19-0.19
						c-0.16-0.07-0.36,0.05-0.54,0.16l-0.05,0.03c-1.01,0.62-2.35,0.73-3.76,0.31l-0.16-0.05c-0.26-0.08-0.5-0.15-0.68-0.13
						c-0.18,0.03-0.34,0.2-0.48,0.49c-0.17,0.37-0.25,0.82-0.25,1.33c-0.33-0.3-0.67-0.61-1-0.91c0.03-0.53,0.13-1.02,0.32-1.41
						c0.22-0.47,0.5-0.73,0.86-0.79c0.33-0.06,0.69,0.05,1,0.15l0.15,0.04c1.23,0.37,2.39,0.27,3.27-0.27l0.05-0.03
						c0.29-0.17,0.64-0.39,1.17-0.15c0.34,0.16,0.67,0.47,0.95,0.9c0.38,0.59,0.64,1.38,0.68,2.06
						C213.96,205.23,213.25,206.49,211.81,207.23z"/>
				</g>
			</g>
			<polygon class="st21" points="258.28,193.86 177.41,147.17 177.41,143 258.28,189.69 			"/>
			<path class="st22" d="M266.14,90.89v1.37l-95.33,32.93V61.08L211,47.2l46.29,26.66c2.09,1.2,4.13,3.4,5.74,6.2
				C265.02,83.49,266.14,87.43,266.14,90.89z"/>
			<path class="st22" d="M266.14,197.52v64.12l-31.09,10.74l-55.39-31.9c-2.09-1.2-4.11-3.4-5.73-6.18
				c-0.78-1.36-1.43-2.79-1.93-4.23L266.14,197.52z"/>
		</g>
	</g>
	<g>
		<path class="st23" d="M271.82,82.46v45.36l-27.92-16.12c-2.2-1.27-3.99-4.69-3.99-7.63V50.3l21.58,12.43
			C267.19,66.02,271.82,74.85,271.82,82.46z"/>
		<g>
			<g>
				<g>
					<path class="st24" d="M330.11,77.36L240,25.34c-0.98-0.57-1.88-0.61-2.57-0.23l0,0l-2.7,1.54l-0.08,0.36l1.39,0.66
						c-0.02,0.22-0.04,0.45-0.04,0.69v61.94c0,2.94,1.79,6.36,4,7.64l90.11,52.03c0.13,0.08,0.27,0.15,0.4,0.2l-0.58,0.26l0.1,1.29
						l2.62-1.49l0,0c0.89-0.46,1.46-1.62,1.46-3.27V85C334.11,82.06,332.32,78.64,330.11,77.36z"/>
					<path class="st21" d="M327.43,151.49l-90.11-52.03c-2.21-1.27-4-4.69-4-7.64V29.89c0-2.94,1.79-4.3,4-3.02l90.11,52.03
						c2.21,1.27,4,4.69,4,7.64v61.94C331.42,151.41,329.63,152.76,327.43,151.49z"/>
					<g>
						<g>
							<path class="st25" d="M255.04,71.7l-12.33-7.12c-0.88-0.51-1.59-1.87-1.59-3.04v-8.14c0-1.17,0.71-1.71,1.59-1.2l12.33,7.12
								c0.88,0.51,1.59,1.87,1.59,3.04v8.14C256.63,71.67,255.92,72.21,255.04,71.7z"/>
							<g>
								<g>
									<path class="st18" d="M252.44,60.87C252.45,60.87,252.45,60.87,252.44,60.87c0.01,0,0.01,0,0.01,0.01l4.17,2.41v-0.33
										l-4.2-2.42c0,0,0,0,0,0c0,0,0,0-0.01,0c0,0,0,0,0,0c-0.18-0.1-0.34-0.11-0.47-0.06l0,0c-0.09,0.04-0.17,0.1-0.22,0.19
										c-0.05,0.09-0.09,0.22-0.09,0.37v5.06c0,0.17,0.04,0.35,0.11,0.53c0.05,0.14,0.12,0.27,0.21,0.4
										c0.14,0.21,0.32,0.39,0.52,0.5l4.17,2.41v-0.33l-4.17-2.41c-0.3-0.18-0.54-0.59-0.54-0.93v-5.06
										C251.92,60.85,252.16,60.71,252.44,60.87z"/>
								</g>
								<g>
									<path class="st18" d="M245.71,57.13c-0.05-0.12-0.11-0.24-0.18-0.36c-0.12-0.19-0.28-0.37-0.45-0.49l-0.01-0.01
										c-0.02-0.02-0.05-0.04-0.08-0.05L241.12,54v0.33l3.87,2.23c0.3,0.17,0.54,0.59,0.54,0.93v5.06c0,0.34-0.24,0.48-0.54,0.31
										l-3.87-2.23v0.33l3.87,2.23c0.03,0.02,0.05,0.03,0.08,0.04c0.18,0.08,0.34,0.09,0.46,0.04c0.06-0.03,0.11-0.06,0.15-0.11
										c0.09-0.1,0.14-0.25,0.14-0.45v-5.06C245.81,57.49,245.78,57.31,245.71,57.13z"/>
								</g>
								<g>
									<path class="st18" d="M252.46,67.51L252.46,67.51c-0.59-0.33-1.06-0.05-1.06,0.62v1.47l-0.29-0.17v-1.47
										c0-0.64,0.34-1,0.83-0.96c0.16,0.02,0.33,0.07,0.51,0.17L252.46,67.51z"/>
								</g>
								<g>
									<path class="st18" d="M246.41,65.25v1.47l-0.29-0.17v-1.47c0-0.67-0.47-1.5-1.06-1.84v0l0-0.33
										c0.16,0.1,0.32,0.22,0.46,0.37c0.11,0.1,0.21,0.22,0.29,0.34c0.02,0.04,0.05,0.07,0.08,0.11
										C246.21,64.2,246.41,64.76,246.41,65.25z"/>
								</g>
								<g>
									<path class="st18" d="M246.41,54.34v1.48c0,0.67-0.37,1.03-0.88,0.95c-0.14-0.02-0.3-0.07-0.46-0.16l0-0.33l0.01,0.01
										c0.58,0.31,1.04,0.03,1.04-0.63v-1.48L246.41,54.34z"/>
								</g>
								<g>
									<path class="st18" d="M252.46,60.55l-0.01,0.32v0l-0.01-0.01c0,0,0,0-0.01,0c-0.18-0.11-0.35-0.25-0.5-0.41l0,0
										c-0.49-0.53-0.83-1.28-0.83-1.92v-1.48l0.29,0.17v1.48c0,0.65,0.45,1.45,1.01,1.82c0,0,0,0,0,0c0,0,0,0,0.01,0c0,0,0,0,0,0
										C252.44,60.54,252.45,60.54,252.46,60.55z"/>
								</g>
								<g>
									<path class="st18" d="M251.72,60.65c-0.06-0.27-0.25-0.56-0.48-0.69l-5.07-2.93c-0.21-0.12-0.4-0.07-0.47,0.1
										c-0.02,0.05-0.03,0.11-0.03,0.18v5.82c0,0.01,0,0.02,0,0.03c0.01,0.15,0.06,0.31,0.14,0.46c0.02,0.04,0.05,0.07,0.08,0.11
										c0.08,0.1,0.17,0.2,0.28,0.26l5.07,2.93c0.27,0.16,0.5,0.03,0.5-0.28v-5.82C251.74,60.76,251.73,60.71,251.72,60.65z
										 M251.45,66.47c0,0.13-0.09,0.19-0.21,0.12l-5.07-2.93c-0.12-0.07-0.21-0.23-0.21-0.36v-5.82c0-0.13,0.09-0.19,0.21-0.12
										l5.07,2.93c0.12,0.07,0.21,0.23,0.21,0.36V66.47z"/>
								</g>
							</g>
						</g>
						<polygon class="st26" points="256.63,63.24 256.63,68.24 250.82,69.27 244.18,65.44 						"/>
						<path class="st26" d="M255.92,60.14l-14.64,2.59c-0.03-0.08-0.05-0.15-0.07-0.22c-0.02-0.07-0.04-0.15-0.05-0.22
							c-0.01-0.05-0.02-0.11-0.03-0.16c-0.01-0.09-0.01-0.18-0.01-0.27v-5.69l6.46-1.14l7.46,4.31
							C255.36,59.51,255.67,59.8,255.92,60.14z"/>
					</g>
					<path class="st9" d="M326.2,145.68l-22.26-12.85c-0.81-0.47-1.48-1.73-1.48-2.82v-10.25c0-1.09,0.66-1.59,1.48-1.12
						l22.26,12.85c0.81,0.47,1.48,1.73,1.48,2.82v10.25C327.67,145.65,327.01,146.15,326.2,145.68z"/>
					<path class="st25" d="M323.41,142.5l-16.67-9.63c-0.81-0.47-1.48-1.73-1.48-2.82v-7.11c0-1.09,0.66-1.59,1.48-1.12l16.67,9.63
						c0.82,0.47,1.48,1.73,1.48,2.82v7.11C324.88,142.47,324.22,142.97,323.41,142.5z"/>
					<g>
						<path class="st9" d="M244.31,75.85l-2.43-1.4c-0.34-0.2-0.61-0.72-0.61-1.17v-4.25c0-0.45,0.28-0.66,0.61-0.46l2.43,1.4
							c0.34,0.2,0.61,0.72,0.61,1.17v4.25C244.92,75.83,244.65,76.04,244.31,75.85z"/>
						<path class="st9" d="M248.52,78.28l-2.43-1.4c-0.34-0.2-0.61-0.72-0.61-1.17v-4.25c0-0.45,0.28-0.66,0.61-0.46l2.43,1.4
							c0.34,0.2,0.61,0.72,0.61,1.17v4.25C249.13,78.27,248.86,78.47,248.52,78.28z"/>
						<path class="st9" d="M252.73,80.71l-2.43-1.4c-0.34-0.2-0.61-0.72-0.61-1.17v-4.25c0-0.45,0.28-0.66,0.61-0.46l2.43,1.4
							c0.34,0.2,0.61,0.72,0.61,1.17v4.25C253.34,80.7,253.07,80.9,252.73,80.71z"/>
						<path class="st9" d="M256.94,83.14l-2.43-1.4c-0.34-0.2-0.61-0.72-0.61-1.17v-4.25c0-0.45,0.28-0.66,0.61-0.46l2.43,1.4
							c0.34,0.2,0.61,0.72,0.61,1.17v4.25C257.56,83.13,257.28,83.34,256.94,83.14z"/>
					</g>
					<g>
						<path class="st9" d="M265.03,87.81l-2.43-1.4c-0.34-0.2-0.61-0.72-0.61-1.17v-4.25c0-0.45,0.28-0.66,0.61-0.46l2.43,1.4
							c0.34,0.2,0.61,0.72,0.61,1.17v4.25C265.64,87.8,265.37,88,265.03,87.81z"/>
						<path class="st9" d="M269.24,90.24l-2.43-1.4c-0.34-0.2-0.61-0.72-0.61-1.17v-4.25c0-0.45,0.28-0.66,0.61-0.46l2.43,1.4
							c0.34,0.2,0.61,0.72,0.61,1.17v4.25C269.85,90.23,269.58,90.43,269.24,90.24z"/>
						<path class="st9" d="M273.45,92.67l-2.43-1.4c-0.34-0.2-0.61-0.72-0.61-1.17v-4.25c0-0.45,0.28-0.66,0.61-0.46l2.43,1.4
							c0.34,0.2,0.61,0.72,0.61,1.17v4.25C274.06,92.66,273.79,92.87,273.45,92.67z"/>
						<path class="st9" d="M277.66,95.1l-2.43-1.4c-0.34-0.2-0.61-0.72-0.61-1.17v-4.25c0-0.45,0.28-0.66,0.61-0.46l2.43,1.4
							c0.34,0.2,0.61,0.72,0.61,1.17v4.25C278.27,95.09,278,95.3,277.66,95.1z"/>
					</g>
					<g>
						<path class="st9" d="M285.74,99.77l-2.43-1.4c-0.34-0.2-0.61-0.72-0.61-1.17v-4.25c0-0.45,0.28-0.66,0.61-0.46l2.43,1.4
							c0.34,0.2,0.61,0.72,0.61,1.17v4.25C286.36,99.76,286.08,99.97,285.74,99.77z"/>
						<path class="st9" d="M289.96,102.2l-2.43-1.4c-0.34-0.2-0.61-0.72-0.61-1.17v-4.25c0-0.45,0.28-0.66,0.61-0.46l2.43,1.4
							c0.34,0.2,0.61,0.72,0.61,1.17v4.25C290.57,102.19,290.3,102.4,289.96,102.2z"/>
						<path class="st9" d="M294.17,104.63l-2.43-1.4c-0.34-0.2-0.61-0.72-0.61-1.17V97.8c0-0.45,0.28-0.66,0.61-0.46l2.43,1.4
							c0.34,0.2,0.61,0.72,0.61,1.17v4.25C294.78,104.62,294.51,104.83,294.17,104.63z"/>
						<path class="st9" d="M298.38,107.06l-2.43-1.4c-0.34-0.2-0.61-0.72-0.61-1.17v-4.25c0-0.45,0.28-0.66,0.61-0.46l2.43,1.4
							c0.34,0.2,0.61,0.72,0.61,1.17v4.25C298.99,107.05,298.72,107.26,298.38,107.06z"/>
					</g>
					<g>
						<path class="st9" d="M306.46,111.73l-2.43-1.4c-0.34-0.2-0.61-0.72-0.61-1.17v-4.25c0-0.45,0.28-0.66,0.61-0.46l2.43,1.4
							c0.34,0.2,0.61,0.72,0.61,1.17v4.25C307.08,111.72,306.8,111.93,306.46,111.73z"/>
						<path class="st9" d="M310.67,114.16l-2.43-1.4c-0.34-0.2-0.61-0.72-0.61-1.17v-4.25c0-0.45,0.28-0.66,0.61-0.46l2.43,1.4
							c0.34,0.2,0.61,0.72,0.61,1.17v4.25C311.29,114.15,311.01,114.36,310.67,114.16z"/>
						<path class="st9" d="M314.89,116.59l-2.43-1.4c-0.34-0.2-0.61-0.72-0.61-1.17v-4.25c0-0.45,0.28-0.66,0.61-0.46l2.43,1.4
							c0.34,0.2,0.61,0.72,0.61,1.17v4.25C315.5,116.58,315.22,116.79,314.89,116.59z"/>
						<path class="st9" d="M319.1,119.03l-2.43-1.4c-0.34-0.2-0.61-0.72-0.61-1.17v-4.25c0-0.45,0.28-0.66,0.61-0.46l2.43,1.4
							c0.34,0.2,0.61,0.72,0.61,1.17v4.25C319.71,119.01,319.44,119.22,319.1,119.03z"/>
					</g>
					<g>
						<path class="st9" d="M249.53,95.86l-8.07-4.66c-0.28-0.16-0.5-0.59-0.5-0.95v-1.67c0-0.37,0.22-0.54,0.5-0.38l8.07,4.66
							c0.28,0.16,0.5,0.59,0.5,0.95v1.67C250.03,95.85,249.8,96.02,249.53,95.86z"/>
						<path class="st9" d="M263.11,103.7l-12-6.93c-0.28-0.16-0.5-0.59-0.5-0.95v-1.67c0-0.37,0.22-0.54,0.5-0.38l12,6.93
							c0.28,0.16,0.5,0.59,0.5,0.95v1.67C263.61,103.69,263.39,103.86,263.11,103.7z"/>
					</g>
					<g>
						<path class="st9" d="M249.53,46.2l-8.07-4.66c-0.28-0.16-0.5-0.59-0.5-0.95v-4.42c0-0.37,0.22-0.54,0.5-0.38l8.07,4.66
							c0.28,0.16,0.5,0.59,0.5,0.95v4.42C250.03,46.19,249.8,46.35,249.53,46.2z"/>
						<path class="st9" d="M263.11,54.04l-12-6.93c-0.28-0.16-0.5-0.59-0.5-0.95v-4.42c0-0.37,0.22-0.54,0.5-0.38l12,6.93
							c0.28,0.16,0.5,0.59,0.5,0.95v4.42C263.61,54.03,263.39,54.2,263.11,54.04z"/>
					</g>
					<g>
						<path class="st9" d="M272.7,102.46l-5.12-2.96c-0.13-0.07-0.23-0.27-0.23-0.44v-1.1c0-0.17,0.1-0.25,0.23-0.17l5.12,2.95
							c0.13,0.07,0.23,0.27,0.23,0.44v1.1C272.93,102.45,272.82,102.53,272.7,102.46z"/>
						<path class="st9" d="M272.7,100.2l-5.12-2.96c-0.13-0.07-0.23-0.27-0.23-0.44v-1.1c0-0.17,0.1-0.25,0.23-0.17l5.12,2.95
							c0.13,0.07,0.23,0.27,0.23,0.44v1.1C272.93,100.19,272.82,100.27,272.7,100.2z"/>
					</g>
					<g>
						<path class="st9" d="M278.2,105.75l-2.12-1.22c-0.14-0.08-0.25-0.29-0.25-0.47v-3.65c0-0.18,0.11-0.26,0.25-0.19l2.12,1.22
							c0.14,0.08,0.25,0.29,0.25,0.47v3.65C278.44,105.74,278.33,105.83,278.2,105.75z"/>
						<path class="st9" d="M281.19,107.48l-2.12-1.22c-0.14-0.08-0.25-0.29-0.25-0.47v-3.65c0-0.18,0.11-0.26,0.25-0.19l2.12,1.22
							c0.14,0.08,0.25,0.29,0.25,0.47v3.65C281.44,107.47,281.33,107.56,281.19,107.48z"/>
					</g>
					<g>
						<path class="st9" d="M287.03,110.85l-2.12-1.22c-0.14-0.08-0.25-0.29-0.25-0.47v-3.65c0-0.18,0.11-0.26,0.25-0.19l2.12,1.22
							c0.14,0.08,0.25,0.29,0.25,0.47v3.65C287.27,110.84,287.16,110.92,287.03,110.85z"/>
						<path class="st9" d="M290.02,112.58l-2.12-1.22c-0.14-0.08-0.25-0.29-0.25-0.47v-3.65c0-0.18,0.11-0.26,0.25-0.19l2.12,1.22
							c0.14,0.08,0.25,0.29,0.25,0.47v3.65C290.27,112.57,290.16,112.65,290.02,112.58z"/>
					</g>
					<path class="st9" d="M282.13,107.81L282.13,107.81c-0.12-0.15-0.16-0.34-0.09-0.44l1.63-2.3c0.07-0.1,0.22-0.06,0.34,0.09l0,0
						c0.12,0.15,0.16,0.34,0.09,0.44l-1.63,2.3C282.4,108,282.25,107.96,282.13,107.81z"/>
				</g>
				<path class="st27" d="M328.86,80.08l-92.33,18.83c-1.82-1.55-3.2-4.5-3.2-7.08v-22.7l57.04-11.63l37.07,21.4
					C327.94,79.19,328.42,79.6,328.86,80.08z"/>
				<polygon class="st27" points="331.42,95.96 331.42,126.38 296.34,133.54 257.39,111.06 				"/>
			</g>
			<g>
				<g>
					<g class="st1">
						<g>
							<path class="st28" d="M298.94,56.69l3.93-2.28c3.5-2.04,8.36-1.75,13.71,1.34l-3.93,2.28
								C307.3,54.94,302.44,54.66,298.94,56.69z"/>
						</g>
						<g>
							<path class="st28" d="M330.17,101.39l-3.93,2.28c3.46-2.01,5.61-6.29,5.62-12.36c0.03-12.23-8.57-27.13-19.21-33.27
								l3.93-2.28c10.64,6.14,19.25,21.05,19.21,33.27C335.77,95.1,333.63,99.38,330.17,101.39z"/>
						</g>
						<g>
							<path class="st29" d="M312.65,58.04c10.64,6.14,19.25,21.05,19.21,33.27c-0.03,12.23-8.69,17.16-19.34,11.02
								c-10.64-6.14-19.25-21.05-19.21-33.27C293.35,56.83,302.01,51.89,312.65,58.04z"/>
						</g>
						<g>
							<path class="st30" d="M307.14,91.02l-2.84-4.89c-0.64-1.1-0.64-2.28,0-2.64l18.02-10.27c0.64-0.36,1.67,0.23,2.3,1.33
								l2.84,4.89c0.64,1.1,0.64,2.28,0,2.64l-18.02,10.27C308.81,92.71,307.77,92.12,307.14,91.02z"/>
							<path class="st30" d="M312.27,90.73l-2.84,1.62c-0.64,0.36-1.67-0.23-2.3-1.33l-9.41-16.24c-0.64-1.1-0.64-2.28,0-2.64
								l2.84-1.62c0.64-0.36,1.67,0.23,2.3,1.33l9.41,16.24C312.9,89.18,312.9,90.37,312.27,90.73z"/>
						</g>
					</g>
				</g>
			</g>
		</g>
	</g>
	<g>
		<path class="st23" d="M271.82,139.5v22.98l-14.21-8.2c-1.53-0.88-2.79-3.26-2.79-5.31v-15.57c0-2.05,1.25-2.99,2.79-2.1
			L271.82,139.5z"/>
		<g>
			<path class="st24" d="M317.62,158.19l-62.7-36.2c-0.68-0.39-1.31-0.43-1.79-0.16l0,0l-1.88,1.07l-0.05,0.25l0.97,0.46
				c-0.02,0.15-0.03,0.31-0.03,0.48v15.58c0,2.05,1.24,4.43,2.78,5.31l62.7,36.2c0.09,0.05,0.19,0.1,0.28,0.14l-0.41,0.18l0.07,0.9
				l1.82-1.04l0,0c0.62-0.32,1.02-1.12,1.02-2.28V163.5C320.4,161.46,319.15,159.08,317.62,158.19z"/>
			<path class="st21" d="M315.75,182.25l-62.7-36.2c-1.54-0.89-2.78-3.27-2.78-5.31v-15.58c0-2.05,1.24-2.99,2.78-2.1l62.7,36.2
				c1.54,0.89,2.78,3.27,2.78,5.31v15.58C318.53,182.19,317.28,183.13,315.75,182.25z"/>
			<path class="st31" d="M310.85,174.36l-52.91-30.71c-1.19-0.69-2.16-2.54-2.16-4.13v-6.94c0-1.59,0.97-2.32,2.16-1.63l52.91,30.71
				c1.19,0.69,2.16,2.54,2.16,4.13v6.94C313.01,174.32,312.04,175.05,310.85,174.36z"/>
			<g>
				<path class="st9" d="M261.45,141.49l-0.66,0.02c-0.54,0.01-1.16-0.87-1.06-1.49l0.13-0.77c0.04-0.25-0.04-0.57-0.21-0.86
					l-0.53-0.9c-0.43-0.73-0.19-1.44,0.4-1.19l0.74,0.3c0.24,0.1,0.44,0.04,0.55-0.14l0.33-0.57c0.27-0.47,1.04-0.02,1.31,0.76
					l0.33,0.96c0.11,0.31,0.31,0.6,0.55,0.78l0.74,0.55c0.6,0.45,0.84,1.43,0.4,1.66l-0.53,0.29c-0.17,0.09-0.25,0.33-0.21,0.62
					l0.13,0.91c0.1,0.74-0.52,0.9-1.06,0.27l-0.66-0.78C261.92,141.63,261.66,141.49,261.45,141.49z"/>
				<path class="st9" d="M268.03,145.29l-0.66,0.02c-0.54,0.01-1.16-0.87-1.06-1.49l0.13-0.77c0.04-0.25-0.04-0.57-0.21-0.86
					l-0.53-0.9c-0.43-0.73-0.19-1.44,0.4-1.19l0.74,0.3c0.24,0.1,0.44,0.04,0.55-0.14l0.33-0.58c0.27-0.47,1.04-0.02,1.31,0.76
					l0.33,0.96c0.11,0.31,0.31,0.6,0.55,0.78l0.74,0.55c0.6,0.45,0.84,1.43,0.4,1.66l-0.53,0.29c-0.17,0.09-0.25,0.32-0.21,0.62
					l0.13,0.91c0.1,0.74-0.52,0.9-1.06,0.27l-0.66-0.78C268.49,145.43,268.24,145.28,268.03,145.29z"/>
				<path class="st9" d="M274.6,149.08l-0.66,0.02c-0.54,0.01-1.16-0.87-1.06-1.49l0.13-0.77c0.04-0.25-0.04-0.57-0.21-0.86
					l-0.53-0.9c-0.43-0.73-0.19-1.44,0.4-1.19l0.74,0.3c0.24,0.1,0.44,0.04,0.55-0.14l0.33-0.58c0.27-0.47,1.04-0.02,1.31,0.76
					l0.33,0.96c0.11,0.31,0.31,0.6,0.55,0.78l0.74,0.55c0.6,0.45,0.84,1.43,0.4,1.66l-0.53,0.29c-0.17,0.09-0.25,0.32-0.21,0.62
					l0.13,0.91c0.1,0.74-0.52,0.9-1.06,0.27l-0.66-0.78C275.07,149.22,274.81,149.08,274.6,149.08z"/>
				<path class="st9" d="M281.18,152.88l-0.66,0.02c-0.54,0.01-1.16-0.87-1.06-1.49l0.13-0.77c0.04-0.25-0.04-0.57-0.21-0.86
					l-0.53-0.9c-0.43-0.73-0.19-1.44,0.4-1.19l0.74,0.3c0.24,0.1,0.44,0.04,0.55-0.14l0.33-0.57c0.27-0.47,1.04-0.02,1.31,0.76
					l0.33,0.96c0.11,0.31,0.31,0.6,0.55,0.78l0.74,0.55c0.6,0.45,0.84,1.43,0.4,1.66l-0.53,0.29c-0.17,0.09-0.25,0.32-0.21,0.62
					l0.13,0.91c0.1,0.74-0.52,0.9-1.06,0.27l-0.66-0.78C281.64,153.02,281.39,152.87,281.18,152.88z"/>
				<path class="st9" d="M287.75,156.68l-0.66,0.02c-0.54,0.01-1.16-0.87-1.06-1.49l0.13-0.77c0.04-0.25-0.04-0.57-0.21-0.86
					l-0.53-0.9c-0.43-0.73-0.19-1.44,0.4-1.19l0.74,0.3c0.24,0.1,0.44,0.04,0.55-0.14l0.33-0.58c0.27-0.47,1.04-0.02,1.31,0.76
					l0.33,0.95c0.11,0.31,0.31,0.6,0.55,0.78l0.74,0.55c0.6,0.45,0.84,1.43,0.4,1.66l-0.53,0.29c-0.17,0.09-0.25,0.32-0.21,0.62
					l0.13,0.91c0.1,0.74-0.52,0.9-1.06,0.27l-0.66-0.78C288.22,156.82,287.96,156.67,287.75,156.68z"/>
				<path class="st9" d="M294.32,160.47l-0.66,0.02c-0.54,0.01-1.16-0.87-1.06-1.49l0.13-0.77c0.04-0.25-0.04-0.57-0.21-0.86
					l-0.53-0.9c-0.43-0.73-0.19-1.44,0.4-1.19l0.74,0.3c0.24,0.1,0.44,0.04,0.55-0.14l0.33-0.57c0.27-0.47,1.04-0.02,1.31,0.76
					l0.33,0.96c0.11,0.31,0.31,0.6,0.55,0.78l0.74,0.55c0.6,0.45,0.84,1.43,0.4,1.66l-0.53,0.29c-0.17,0.09-0.25,0.32-0.21,0.62
					l0.13,0.91c0.1,0.74-0.52,0.9-1.06,0.27l-0.66-0.78C294.79,160.61,294.54,160.47,294.32,160.47z"/>
				<path class="st9" d="M300.9,164.27l-0.66,0.02c-0.54,0.01-1.16-0.87-1.06-1.49l0.13-0.77c0.04-0.25-0.04-0.57-0.21-0.86
					l-0.53-0.9c-0.43-0.73-0.19-1.44,0.4-1.19l0.74,0.3c0.24,0.1,0.44,0.04,0.55-0.14l0.33-0.58c0.27-0.47,1.04-0.02,1.31,0.76
					l0.33,0.95c0.11,0.31,0.31,0.6,0.55,0.78l0.74,0.55c0.6,0.45,0.84,1.43,0.4,1.66l-0.53,0.29c-0.17,0.09-0.25,0.32-0.21,0.62
					l0.13,0.91c0.1,0.74-0.52,0.9-1.06,0.27l-0.66-0.78C301.37,164.41,301.11,164.26,300.9,164.27z"/>
				<path class="st9" d="M307.47,168.06l-0.66,0.02c-0.54,0.01-1.16-0.87-1.06-1.49l0.13-0.77c0.04-0.25-0.04-0.57-0.21-0.86
					l-0.53-0.9c-0.43-0.73-0.19-1.44,0.4-1.2l0.74,0.3c0.24,0.1,0.44,0.04,0.55-0.14l0.33-0.58c0.27-0.47,1.04-0.02,1.31,0.76
					l0.33,0.96c0.11,0.31,0.31,0.6,0.55,0.78l0.74,0.55c0.6,0.45,0.84,1.43,0.4,1.66l-0.53,0.29c-0.17,0.09-0.25,0.32-0.21,0.62
					l0.13,0.91c0.1,0.74-0.52,0.9-1.06,0.27l-0.66-0.78C307.94,168.2,307.69,168.06,307.47,168.06z"/>
			</g>
			<path class="st24" d="M312.25,173.74l-52.91-30.71c-1.19-0.69-2.16-2.54-2.16-4.13v-6.94c0-0.5,0.1-0.9,0.27-1.21
				c-0.96-0.25-1.67,0.47-1.67,1.84v6.94c0,1.59,0.97,3.44,2.16,4.13l52.91,30.71c0.82,0.47,1.53,0.26,1.89-0.42
				C312.58,173.9,312.42,173.84,312.25,173.74z"/>
		</g>
	</g>
	<g>
		<path class="st23" d="M191.18,72.85L191.18,72.85l-4.26-9.17l-1.95,3.99L156,50.95c-1.73-1-3.15-0.2-3.15,1.8l-0.08,28.46
			c-0.01,2,1.4,4.43,3.13,5.43l32.58,18.81c1.73,1,3.15,0.2,3.15-1.8l0.08-28.46C191.72,74.44,191.52,73.63,191.18,72.85z"/>
		<g>
			<g>
				<g class="st1">
					<g>
						<path class="st32" d="M138.64,45.23l10.33-6.01c0.57-0.33,1.36-0.29,2.23,0.22l-10.33,6.01
							C140,44.94,139.21,44.89,138.64,45.23z"/>
					</g>
					<g>
						<path class="st33" d="M185.92,94.16l-10.33,6.01c0.57-0.33,0.92-1.03,0.92-2.02l10.33-6.01
							C186.83,93.13,186.48,93.83,185.92,94.16z"/>
					</g>
					<g>
						<polygon class="st33" points="176.58,69.68 186.91,63.68 186.83,92.14 176.5,98.14 						"/>
					</g>
					<g>
						<polygon class="st32" points="140.87,45.44 151.2,39.44 183.78,58.25 173.45,64.25 						"/>
					</g>
					<polygon class="st25" points="163.1,46.31 147.66,46.31 147.66,40.74 153.46,40.74 					"/>
					<polygon class="st25" points="183.78,58.24 177.95,61.63 174.21,61.63 174.21,56.07 180.01,56.07 					"/>
					<g>
						<path class="st34" d="M173.45,64.25l10.33-6.01c1.73,1,3.14,3.43,3.13,5.43l-10.33,6.01
							C176.59,67.69,175.18,65.25,173.45,64.25z"/>
					</g>
					<g>
						<path class="st25" d="M173.45,64.25c1.73,1,3.14,3.43,3.13,5.43l-0.08,28.46c-0.01,2-1.42,2.8-3.15,1.8l-32.58-18.81
							c-1.73-1-3.14-3.43-3.13-5.43l0.08-28.46c0.01-2,1.42-2.8,3.15-1.8L173.45,64.25z"/>
					</g>
					<g>
						<path class="st3" d="M150.94,67.47c0-3.21,2.32-4.46,5.14-2.71c2.64,1.64,4.79,5.47,4.76,8.49c-0.02,1.87-0.84,3.06-2.08,3.36
							v9.98c0,0.61-0.43,0.86-0.97,0.55l-3.81-2.2c-0.53-0.31-0.97-1.06-0.97-1.67v-9.98C151.77,71.54,150.94,69.38,150.94,67.47z"
							/>
						<path class="st32" d="M153.48,63.98c-0.38,0.59-0.6,1.38-0.6,2.37c0,1.91,0.82,4.07,2.08,5.82v9.98
							c0,0.61,0.43,1.36,0.97,1.67l2.84,1.64v1.13c0,0.61-0.43,0.86-0.97,0.55l-3.81-2.2c-0.53-0.31-0.97-1.06-0.97-1.67v-9.98
							c-1.26-1.76-2.08-3.92-2.08-5.82C150.94,65.34,151.97,64.08,153.48,63.98z"/>
					</g>
				</g>
			</g>
			<g>
				<g class="st1">
					<g>
						<polygon class="st34" points="147.67,43.42 151.47,41.21 151.47,44.09 147.66,46.3 						"/>
					</g>
					<g>
						<path class="st33" d="M151.14,35.79l3.81-2.21c-2.14,1.24-3.47,3.88-3.48,7.64l-3.81,2.21
							C147.68,39.67,149.01,37.03,151.14,35.79z"/>
					</g>
					<g>
						<polygon class="st33" points="174.22,58.75 178.03,56.54 178.02,59.42 174.21,61.63 						"/>
					</g>
					<g>
						<path class="st32" d="M149.2,32.46l3.81-2.21c2.66-1.55,6.35-1.33,10.41,1.01l-3.81,2.21
							C155.56,31.12,151.87,30.91,149.2,32.46z"/>
					</g>
					<g>
						<path class="st34" d="M159.62,33.47l3.81-2.21c8.08,4.66,14.63,16,14.6,25.28l-3.81,2.21
							C174.25,49.47,167.69,38.13,159.62,33.47z"/>
					</g>
					<g>
						<path class="st25" d="M159.62,33.47c8.08,4.66,14.63,16,14.6,25.28l-0.01,2.88l-2.74-1.58l0.01-2.88
							c0.02-7.55-5.3-16.77-11.87-20.56c-6.57-3.79-11.92-0.74-11.94,6.81l-0.01,2.88l-2.74-1.58l0.01-2.88
							C144.95,32.56,151.55,28.81,159.62,33.47z"/>
					</g>
				</g>
			</g>
		</g>
	</g>
	<g>
		<path class="st23" d="M271.82,225.79v53.01c0,0.46-0.02,0.9-0.05,1.33l-4.19,1.76l-10.27-16.16
			c-6.69-10.53-10.53-22.4-10.53-32.57v-15.53l20.8,4.09L271.82,225.79z"/>
		<g>
			<g>
				<path class="st13" d="M269.65,209.31l-20.8-4.09l7.4,11.27c0,10.16,3.84,22.04,10.53,32.57l9.96,15.67l-7.54,4.35v1.46
					l5.23-2.19c0.38-0.16,0.76-0.33,1.12-0.52l0.89-0.52l4.62-2.69l0.9-0.52c1.7-1.05,3.17-2.46,4.39-4.17
					c2.66-3.74,4.1-8.95,4.1-15.17v-15.53L269.65,209.31z"/>
				<path class="st30" d="M284.96,232.43l-20.8-19.93v0l0,0l0,0v0l-20.8-4.08v15.52c0,10.16,3.84,22.04,10.53,32.56l10.27,16.16v0
					l10.27-4.3c6.69-2.8,10.53-10.24,10.53-20.41V232.43z"/>
				<path class="st13" d="M281.5,234.11l-17.34-16.62v0l0,0l0,0v0l-17.34-3.4v12.94c0,8.47,3.2,18.38,8.78,27.15l8.56,13.47v0
					l8.56-3.58c5.58-2.33,8.78-8.54,8.78-17.02V234.11z"/>
				<g>
					<path class="st9" d="M263.35,251.83l-2.39-4.13c-0.54-0.93-0.54-1.93,0-2.23l15.21-8.67c0.54-0.31,1.41,0.2,1.94,1.12
						l2.39,4.13c0.54,0.93,0.54,1.93,0,2.23l-15.21,8.67C264.76,253.26,263.89,252.76,263.35,251.83z"/>
					<path class="st9" d="M267.69,251.58l-2.39,1.37c-0.54,0.31-1.41-0.2-1.94-1.12l-7.95-13.71c-0.54-0.93-0.54-1.93,0-2.23
						l2.39-1.37c0.54-0.31,1.41,0.2,1.94,1.12l7.95,13.71C268.22,250.28,268.22,251.28,267.69,251.58z"/>
				</g>
				<path class="st12" d="M257.69,253.4c-5.58-8.77-8.78-18.68-8.78-27.15V214.5l-2.09-0.41v12.94c0,8.47,3.2,18.38,8.78,27.15
					l8.56,13.47v0l2.04-0.86L257.69,253.4z"/>
			</g>
			<polygon class="st35" points="243.36,208.41 264.16,212.49 269.65,209.31 248.85,205.22 			"/>
			<polygon class="st12" points="284.96,232.43 290.45,229.25 269.65,209.31 264.16,212.49 			"/>
		</g>
	</g>
</g>
<g>
	
		<ellipse transform="matrix(5.424307e-03 -1 1 5.424307e-03 -168.3523 461.3906)" class="st0" cx="147.77" cy="315.33" rx="22.02" ry="38.14"/>
	<g>
		<g>
			<path class="st36" d="M120.4,207.74c-0.09,1.72-0.17,3.44-0.26,5.16c-0.05,1-0.1,2.01,0.13,2.99c0.15,0.64,0.42,1.25,0.7,1.85
				c0.43,0.94,0.91,1.88,1.61,2.63c0.25,0.27,0.56,0.52,0.92,0.58c0.34,0.06,0.68-0.06,1.02-0.08c0.26-0.02,0.51,0.02,0.77,0.06
				c0.35,0.05,0.69,0.11,1.04,0.16c0.2,0.03,0.41,0.06,0.58-0.03c0.11-0.06,0.19-0.16,0.29-0.24c0.35-0.29,0.85-0.26,1.29-0.39
				c0.97-0.29,1.53-1.31,1.78-2.29c0.39-1.5,0.32-3.1,0.02-4.62c-0.3-1.52-0.83-2.99-1.36-4.45c-0.51-1.42-1.03-2.84-1.54-4.26
				c-0.87,1.06-2.26,1.87-3.59,1.54c-0.47-0.11-0.89-0.36-1.34-0.54c-0.45-0.18-0.95-0.3-1.41-0.14
				C120.07,205.99,120.44,206.98,120.4,207.74z"/>
			<path class="st37" d="M126.65,203.52c-0.37-0.92-0.58-1.89-0.78-2.86c-0.58-2.78-2.6-12.96-3.19-15.22
				c0.66-6.52,1.8-12.98,2.52-19.46c0.13-1.19,0.26-2.38,0.37-3.57c0.38-3.97,0.64-7.94,0.79-11.92c0.07-1.89-0.13-3.95,0.18-5.81
				c0.08-0.47,0.31-4.95,0.8-4.9c-2.32-0.21-4.68,0.44-6.64,1.71c-2.01,1.3-3.53,3.03-4.48,5.23c-0.92,2.11-1.17,4.43-1.51,6.68
				c-0.72,4.75-1.26,23.39-1.3,27.95c-0.01,1.52-0.1,3.09,0.04,4.6c0.17,1.88,0.68,3.72,1.24,5.53c1.61,5.23,3.61,10.32,5.61,15.41
				c0.05,0.12,0.1,0.24,0.19,0.33c0.12,0.11,0.29,0.13,0.45,0.14c1.18,0.12,2.4,0.18,3.52-0.22c1.11-0.4,2.47-1.66,2.38-2.96
				C126.84,203.95,126.74,203.73,126.65,203.52z"/>
			<path class="st38" d="M128.61,306.29c-1.05,0.51-2.06,1.1-3.06,1.72c-0.5,0.31-2.04,1.8-2.29,0.64
				c-0.07-0.32,0.04-0.66,0.15-0.97c-1.39,1.31-2.4,3.25-2.53,5.17c-0.11,1.58,0.43,3.94,1.82,4.88c1.54,1.04,3.8,0.82,5.33-0.09
				c1.31-0.78,2-2.25,2.8-3.55c1.62-2.66,3.97-4.87,6.71-6.33c0.76-0.4,1.55-0.75,2.23-1.27c1.45-1.1,2.3-2.97,2.17-4.79
				c-0.06-0.86-0.42-1.8-1.22-2.1c0.08,1.32-1.23,2.1-2.25,2.69C135.39,304.04,131.82,304.75,128.61,306.29z"/>
			<path class="st2" d="M127.17,314.68c0.39-0.11,0.77-0.26,1.14-0.44c2.88-1.41,4.44-4.6,7.08-6.43c1.12-0.78,2.42-1.29,3.56-2.04
				c1.77-1.16,2.88-3.15,2.67-5.31c-0.09-0.91-0.45-1.15-1.34-1.36c-1.16-0.28-2.38-0.18-3.56-0.03c-3.21,0.42-6.8,1.11-9.43,3.13
				c-0.56,0.43-1.01,0.98-1.46,1.53c-1.59,1.95-3.18,3.95-4.19,6.25c-0.66,1.5-0.71,3.08,0.73,4.14c0.74,0.54,1.66,0.78,2.57,0.83
				C125.68,314.97,126.44,314.88,127.17,314.68z"/>
			<g>
				<path class="st21" d="M145.37,228.79c-0.31-4.17-0.79-8.33-1.79-12.4c-0.4-1.64-0.91-3.29-1.92-4.63
					c-2.08-2.74-5.63-3.54-8.43-5.27c-2.14-1.32-5.19-6.74-3.61-9.32c-2.86,4.65-5.64,9.57-6.65,15.01
					c-0.93,5.01-0.01,10.89,1.29,15.78c0.98,3.71,0.61,7.47,0.72,11.28c0.22,7.21,2.55,14.44,0.99,21.56
					c-0.53,2.4-1.47,4.58-2.28,6.9c-0.04,0.12-0.08,0.23-0.12,0.35c-1.99,5.99-1.8,12.3-1.41,18.53c0.4,6.33,1.21,12.71,1.76,18.98
					c0.33,3.67,7.16,0.14,8.59-1.3c0.36-0.36,0.69-0.75,0.9-1.21c0.27-0.58,0.33-1.22,0.39-1.86c0.92-9.37,5.96-37.26,7.08-41.88
					c1.03-4.27,1.92-8.47,2.78-12.74c0.45-2.22,0.82-4.46,1.1-6.72c0.23-1.81,0.43-3.6,0.77-5.38
					C145.87,232.65,145.51,230.62,145.37,228.79z"/>
			</g>
			<path class="st39" d="M147.1,328.37c0.04,0.15,0.08,0.3,0.12,0.45c0.25,0.89,0.47,1.62,1.21,2.24c0.32,0.26,0.66,0.51,1.05,0.65
				c1.31,0.47,2.93,0.33,4.25-0.05c1.28-0.37,2.48-1,3.7-1.54c0.77-0.35,1.56-0.66,2.39-0.86c0.63-0.15,1.36-0.36,2-0.41
				c1.83-0.13,3.64,0.18,5.46-0.17c2.3-0.44,4.42-1.55,5.89-3.4c0.79-0.99,1.43-1.94,1.76-3.18c0.38-1.41,0.35-2.85-0.1-4.22
				c-0.22-0.67-0.68-1.32-1.36-1.5c-0.11-0.03-0.23-0.04-0.32,0.02c-0.08,0.05-0.12,0.15-0.14,0.24c-0.14,0.48-0.12,0.86-0.38,1.31
				c-0.44,0.76-1.03,1.42-1.69,1.99c-0.48,0.42-1,0.8-1.54,1.14c-0.38,0.24-1.22,0.93-1.68,0.93c-4.99,2.41-10.85,2.95-16.2,1.49
				c-0.98-0.27-1.96-0.6-2.98-0.64c-0.31-0.01-0.58-0.06-0.82-0.28c-0.13-0.12-0.44-0.56-0.32-0.75c-0.39,0.64-0.54,1.39-0.62,2.14
				C146.65,325.43,146.75,326.93,147.1,328.37z"/>
			<path class="st4" d="M147.55,327.16c0.27,0.25,0.57,0.47,0.85,0.65c0.75,0.46,1.61,0.73,2.47,0.9c1.33,0.26,2.7,0.29,4.03,0.1
				c0.92-0.13,1.71-0.59,2.61-0.81c0.95-0.23,1.94-0.32,2.91-0.32c1.69,0.01,3.35,0.56,5.05,0.53c1.54-0.03,2.84-0.34,4.15-1.2
				c1.4-0.92,2.67-2.06,3.64-3.43c1.31-1.86,2.32-4.44,1.07-6.58c-0.44-0.76-0.91-1.35-1.81-1.4c-1.25-0.07-2.59,0.3-3.83,0.44
				c-2.13,0.25-4.28,0.42-6.42,0.51c-1.78,0.08-3.59,0.1-5.32,0.54c-1.34,0.34-2.59,0.91-3.81,1.55c-0.94,0.49-1.76,1.28-2.73,0.49
				c-0.37-0.3-0.68-0.69-0.9-1.11c-0.14-0.27-0.22-1.09-0.39-1.25c-0.12-0.12-0.31,0.04-0.4,0.19c-1.36,2.21-2.03,4.83-1.96,7.43
				c0.01,0.57-0.1,1.34,0.12,1.86C147.01,326.57,147.26,326.88,147.55,327.16z"/>
			<g>
				<path class="st8" d="M163.66,225.61c-0.64-7.56-1.84-15.06-3.6-22.4c-0.86,1.91-1.03,4.86-2.81,6.01
					c-2.4,1.55-5.33,2.76-8.19,2.76c-2.84,0.08-5.54-0.75-8.21-1.62c-1.12-0.36-2.08-0.63-3-1.34c-0.29-0.22-2.53-2.17-2.22-2.56
					c-2.02,2.54-2.56,5.93-2.85,9.16c-0.31,3.5-0.41,7.13,0.56,10.55c0.04,0.14,0.08,0.28,0.12,0.41c1.09,3.48,3.12,6.64,5.3,9.53
					c1.74,2.3,2.46,3.94,2.65,6.75c0.42,6.25,2.6,24.86,3.16,27.9c0.5,2.73-0.1,4.89-0.61,7.59c-0.7,3.69-0.28,7.27,0.06,10.97
					c0.34,3.76,0.66,7.61,1.08,11.31c0.59,5.18,1.19,10.37,1.73,15.55c0.25,2.44,0.03,4.05,2.85,4.6c3.08,0.6,6.45-0.51,8.95-2.3
					c0.38-0.27,0.77-0.58,0.94-1.02c0.15-0.4,0.1-0.84,0.06-1.26c-1.17-10.89,2.23-21.76,2.18-32.72
					c-0.02-4.57-0.65-9.14-0.38-13.71c0.14-2.37,0.51-4.73,0.89-7.08C164.26,250.51,164.71,237.99,163.66,225.61z"/>
			</g>
			<path class="st40" d="M165.88,154.06c-0.79-0.95-2-1.61-3.13-2.19c-2.85-1.44-5.71-2.89-8.56-4.33
				c-3.09-1.56-6.19-3.13-9.42-4.38c-4.79-1.85-9.85-2.97-14.97-3.34c-2.94-0.21-6.43-0.1-8.7,2.07c-1.99,1.91-2.45,5.26-2.71,7.86
				c-0.87,8.83,1.21,17.14,3.06,25.69c1.15,5.3,2.17,10.63,2.81,16.02c0.47,3.94,0.87,7.83,1.12,11.78c0.07,1.13-0.16,2.61,0.1,3.69
				c0.52,2.16,3.83,4.41,5.58,5.57c4.65,3.08,11.19,4.31,16.71,4.43c4.3,0.1,8.98-0.66,12.64-3.05c0.49-0.32,0.99-0.7,1.24-1.23
				c0.25-0.54,0.22-1.16,0.18-1.75c-1.04-15.49-2.44-31.4,2.11-46.24c0.48-1.57,1.09-3.15,1.66-4.69c0.55-1.48,1.47-2.87,1.03-4.52
				C166.48,154.93,166.22,154.47,165.88,154.06z"/>
			<path class="st41" d="M155.29,121.13c-0.22,0.72-0.51,1.42-0.51,2.15c0,0.67,0.23,1.31,0.35,1.96c0.2,1.08,0.1,2.18-0.01,3.27
				c-0.15,1.44-0.31,2.88-0.51,4.31c-0.09,0.69-0.19,1.39-0.53,2c-0.75,1.34-2.41,1.83-3.54,2.88c-1.18,1.09-1.89,3.01-1.82,4.62
				c0.04,1.01,0.63,2.13,1.34,2.84c0.51,0.51,1.4,1.24,0.88,2.03c-0.25,0.37-0.68,0.58-1.11,0.69c-0.53,0.14-1.08,0.18-1.62,0.2
				c-3.82,0.16-7.67-0.47-11.23-1.85c-1.92-0.74-3.83-1.76-5.03-3.44c-0.2-0.29-0.39-0.6-0.43-0.95c-0.13-0.98,0.87-1.05,1.49-1.45
				c0.45-0.29,0.6-0.66,0.77-1.2c0.4-1.22,0.39-2.54,0.4-3.82c0.02-1.71,0.04-3.24-0.68-4.83c-0.66-1.46-1.64-2.75-2.3-4.22
				c-0.08-0.17-0.15-0.35-0.22-0.53c-0.97-2.57-1.97-4.88-1.94-7.71c0.05-4.29,2.32-8.49,5.87-10.88c3.61-2.43,8.3-2.95,12.54-1.96
				c0.88,0.2,1.75,0.47,2.52,0.93c0.91,0.53,1.66,1.31,2.34,2.12c1.97,2.37,3.07,5.28,3.31,8.35c0.09,1.17,0.06,2.36-0.11,3.53
				C155.48,120.51,155.39,120.82,155.29,121.13z"/>
			<path class="st11" d="M156.04,110.73c0.09-1.84,0.02-3.84-1.03-5.42c-1.16-1.76-2.68-2.68-4.65-3.44
				c-3.02-1.16-6.05-1.3-9.25-0.87c-4.63,0.62-8.97,2.99-11.71,6.81c-1.18,1.64-1.99,3.61-2.17,5.64
				c-0.41,4.56,1.04,9.18,2.72,13.36c0.89,2.2,1.77,4.56,3.43,6.36c1.63,1.76,4.81,2.38,7.13,1.95c2.15-0.4,5.35-1.75,6.16-3.94
				c0.53-1.43,0.16-3.02,0.14-4.55c-0.02-1.35,0.09-3.73,1.17-4.71c1.12-1.02,2.75-0.51,3.76,0.4c1.05,0.94,1.57,2.37,1.59,3.78
				c1.22-4.67,2.14-9.61,2.63-14.42C156,111.36,156.02,111.04,156.04,110.73z"/>
			<path class="st39" d="M127.11,114.87c0.17,0.8,0.59,1.41,1.57,1.35c0.8-0.05,1.55-0.4,2.26-0.77c1.06-0.56,2.09-1.19,3.07-1.89
				c0.19,0.67,0.98,0.92,1.66,1.05c6.24,1.22,13.01,1.03,18.58-2.04c0.84-0.46,1.73-1.11,1.94-2.1c0.63-3.01-0.48-6.1-2.86-8.05
				c-1.56-1.28-3.48-2.03-5.44-2.49c-3-0.71-6.18-0.75-9.16,0.05c-3.8,1.03-7.29,3.02-9.51,6.38c-1.11,1.69-1.83,3.64-2.06,5.65
				C127.08,112.77,126.92,113.95,127.11,114.87z"/>
			<path class="st41" d="M199.53,155.19c0.37-1.27,0.95-2.47,1.42-3.71c1.24-3.25,1.75-6.74,2.9-10.03
				c0.35-0.99,0.78-1.99,1.57-2.67c0.27-0.23,0.64-0.43,0.98-0.32c0.29,0.09,0.47,0.39,0.52,0.68c0.05,0.3-0.01,0.6-0.07,0.89
				c-0.53,2.7-1.23,5.4-1.43,8.14c1.01-0.33,2.05-0.53,3.11-0.6c0.27-0.02,0.55-0.03,0.82,0.04c0.76,0.21,1.22,1.16,0.9,1.89
				c0.41,0.1,0.69,0.49,0.8,0.9c0.11,0.41,0.08,0.84,0.08,1.26c0,0.13,0.01,0.27,0.08,0.38c0.06,0.08,0.14,0.14,0.22,0.2
				c0.42,0.31,0.69,0.81,0.72,1.34c0.03,0.55-0.19,1.08-0.45,1.57c-1.62,3.06-4.6,5.11-6.9,7.7c-0.06,0.07-0.14,0.14-0.22,0.12
				c-0.07-0.02-0.12-0.09-0.15-0.15c-0.33-0.58-0.9-1.03-1.55-1.22c-0.51-0.15-1.06-0.14-1.58-0.28
				C198.8,160.59,198.96,157.15,199.53,155.19z"/>
			<path class="st37" d="M205.93,160.74c-0.03-0.16-0.08-0.32-0.17-0.51c-0.27-0.57-0.79-1-1.33-1.32
				c-1.09-0.65-2.37-0.97-3.64-0.92c-0.42,0.02-0.85,0.08-1.21,0.29c-0.29,0.16-0.52,0.4-0.74,0.64c-0.03,0.04-0.07,0.07-0.1,0.11
				c-1.3,1.37-11.05,10.77-12.89,12.11c-0.11,0.08-0.2,0.15-0.3,0.21c-0.59-0.58-1.21-1.13-1.85-1.66
				c-3.95-3.25-8.43-5.91-11.83-9.73c-1.19-1.34-2.23-2.8-3.44-4.12c-2.09-2.29-4.78-4.13-7.78-4.98c-2.61-0.74-5.79-0.48-7.61,1.79
				c-0.02,0.02-0.03,0.04-0.05,0.06c-1.92,2.45-2.38,6.41-2.04,9.34c0.38,3.2,2.24,6.33,5.16,7.69c0.99,0.46,2.07,0.72,3.06,1.18
				c1.53,0.7,2.8,1.85,4.12,2.89c5.43,4.26,11.93,6.88,18.34,9.43c1,0.4,2.03,0.77,3.1,0.89c0.72,0.08,1.55,0.23,2.26,0.03
				c0.63-0.18,1.22-0.86,1.73-1.29c1.33-1.12,2.53-2.39,3.7-3.68c2.73-3.02,5.32-6.17,7.74-9.45c1.21-1.64,2.38-3.31,3.5-5.01
				c0.56-0.84,1.04-1.8,1.68-2.57C205.74,161.69,206.02,161.29,205.93,160.74z"/>
		</g>
	</g>
</g>
</svg>
