<?xml version="1.0" encoding="UTF-8"?>
<svg version="1.1" xmlns="http://www.w3.org/2000/svg" width="699" height="174">
<path d="M0 0 C230.67 0 461.34 0 699 0 C699 57.42 699 114.84 699 174 C468.33 174 237.66 174 0 174 C0 116.58 0 59.16 0 0 Z " fill="#FDFEFE" transform="translate(0,0)"/>
<path d="M0 0 C8.6315625 -0.12375 8.6315625 -0.12375 17.4375 -0.25 C19.23501709 -0.28641602 21.03253418 -0.32283203 22.88452148 -0.36035156 C38.62064448 -0.54688167 38.62064448 -0.54688167 45 4 C48.51508647 7.51508647 49.32675133 10.5449761 49.6875 15.375 C49.50743315 20.87454173 47.62682523 23.60691208 43.82421875 27.44140625 C42 29 42 29 39 31 C39.68707031 31.31453125 40.37414062 31.6290625 41.08203125 31.953125 C41.98308594 32.38109375 42.88414063 32.8090625 43.8125 33.25 C44.70582031 33.66765625 45.59914062 34.0853125 46.51953125 34.515625 C49.77181963 36.46187631 51.45671849 38.3860409 52.66796875 41.984375 C53.6822168 48.14145726 53.60160582 53.62794594 50.44140625 59.14453125 C44.53383286 66.74913114 37.46840223 67.42193296 28 69 C18.76 69 9.52 69 0 69 C0 46.23 0 23.46 0 0 Z " fill="#2180BA" transform="translate(34,36)"/>
<path d="M0 0 C4.62 0 9.24 0 14 0 C14.33 24.75 14.66 49.5 15 75 C10.71 75 6.42 75 2 75 C1.67 74.01 1.34 73.02 1 72 C-0.2684375 72.99 -0.2684375 72.99 -1.5625 74 C-7.83244045 77.59014995 -16.49580428 77.21529733 -23.31640625 75.375 C-29.13571339 72.45883714 -32.87483003 66.60834856 -35.375 60.8125 C-37.11116415 50.2218987 -36.61576403 41.10117543 -30.6796875 31.96875 C-27.26792771 27.56888492 -23.43005511 24.43661301 -18 23 C-10.5275149 22.25529027 -5.54764632 22.07141221 1 26 C0.505 13.13 0.505 13.13 0 0 Z " fill="#1E7FBB" transform="translate(287,30)"/>
<path d="M0 0 C5.32790264 3.54674979 8.74945427 7.65124947 10.67578125 13.78125 C11.60768456 23.46323489 11.89566399 32.75413741 5.67578125 40.78125 C0.25370589 46.85073734 -5.28861895 50.20593757 -13.3671875 51.12890625 C-22.21902014 51.53362076 -28.74400355 49.85066053 -35.42578125 43.9140625 C-42.0274226 36.93207968 -42.92186757 29.82451489 -42.76171875 20.42578125 C-41.84246812 12.76809517 -38.49868535 6.08462531 -32.44921875 1.21875 C-21.56461232 -5.75645147 -11.46896549 -6.30718725 0 0 Z " fill="#2180BA" transform="translate(603.32421875,55.21875)"/>
<path d="M0 0 C0.80824219 -0.020625 1.61648438 -0.04125 2.44921875 -0.0625 C8.25858364 -0.09967994 13.46947248 0.71520892 18.75 3.25 C23.44998568 8.06748532 23.91494574 11.61272948 24.03125 18.109375 C24.05886414 19.28237152 24.05886414 19.28237152 24.08703613 20.47906494 C24.14585162 22.9859659 24.19859031 25.49293691 24.25 28 C24.31796779 31.28659193 24.39176008 34.57298355 24.46875 37.859375 C24.48232544 38.60958923 24.49590088 39.35980347 24.5098877 40.13275146 C24.60814239 44.32822682 25.05326215 48.06957292 25.75 52.25 C21.46 52.25 17.17 52.25 12.75 52.25 C12.75 50.93 12.75 49.61 12.75 48.25 C11.14125 49.2090625 11.14125 49.2090625 9.5 50.1875 C3.32360314 53.86958274 -3.19236025 53.93970241 -10.25 53.25 C-14.32917549 51.2461945 -16.8524586 49.0778928 -19.25 45.25 C-20.1170169 40.07914245 -19.86765116 35.55656976 -17.625 30.8125 C-11.67007524 24.38744961 -4.20862299 21.65353787 4.4609375 21.06640625 C6.55818213 21.06309829 8.65528448 21.1469812 10.75 21.25 C10.64592083 17.84919423 10.64592083 17.84919423 9.75 14.25 C5.75963775 10.97566537 2.42013224 10.89766466 -2.625 11 C-3.89085937 11.01546875 -5.15671875 11.0309375 -6.4609375 11.046875 C-10.13358376 11.24375913 -13.62340519 11.66899515 -17.25 12.25 C-17.33096803 10.79257537 -17.38917774 9.33387193 -17.4375 7.875 C-17.47230469 7.06289063 -17.50710938 6.25078125 -17.54296875 5.4140625 C-17.44628906 4.69992188 -17.34960938 3.98578125 -17.25 3.25 C-11.89289461 -0.32140359 -6.24742218 0.03910749 0 0 Z " fill="#2280B9" transform="translate(454.25,51.75)"/>
<path d="M0 0 C1.18360107 0.00737183 1.18360107 0.00737183 2.39111328 0.01489258 C9.47852721 0.1576954 15.42420792 0.60825062 20.5625 5.875 C22.50049534 9.02424243 23.19119967 10.73902693 23.26782227 14.39501953 C23.2977401 15.65610031 23.2977401 15.65610031 23.32826233 16.94265747 C23.34497482 17.85103363 23.36168732 18.75940979 23.37890625 19.6953125 C23.39968735 20.62471649 23.42046844 21.55412048 23.44187927 22.51168823 C23.50737646 25.4868821 23.56626052 28.46216577 23.625 31.4375 C23.66818506 33.45183228 23.71179934 35.46615541 23.75585938 37.48046875 C23.86305803 42.42438663 23.96432501 47.36839503 24.0625 52.3125 C20.1025 52.3125 16.1425 52.3125 12.0625 52.3125 C12.0625 50.9925 12.0625 49.6725 12.0625 48.3125 C10.45375 49.2715625 10.45375 49.2715625 8.8125 50.25 C2.63610314 53.93208274 -3.87986025 54.00220241 -10.9375 53.3125 C-15.01667549 51.3086945 -17.5399586 49.1403928 -19.9375 45.3125 C-20.8045169 40.14164245 -20.55515116 35.61906976 -18.3125 30.875 C-12.35757524 24.44994961 -4.89612299 21.71603787 3.7734375 21.12890625 C5.87068213 21.12559829 7.96778448 21.2094812 10.0625 21.3125 C9.95842083 17.91169423 9.95842083 17.91169423 9.0625 14.3125 C5.07213775 11.03816537 1.73263224 10.96016466 -3.3125 11.0625 C-4.57835937 11.07796875 -5.84421875 11.0934375 -7.1484375 11.109375 C-10.82108376 11.30625913 -14.31090519 11.73149515 -17.9375 12.3125 C-17.6075 9.0125 -17.2775 5.7125 -16.9375 2.3125 C-11.16924675 0.66910435 -5.98920858 -0.04406647 0 0 Z " fill="#2280B9" transform="translate(157.9375,52.6875)"/>
<path d="M0 0 C4.73951297 2.41133116 6.88922971 4.79268914 8.5625 9.8125 C8.64817246 11.17842183 8.68023647 12.54814858 8.67602539 13.91674805 C8.67594986 14.73737228 8.67587433 15.55799652 8.67579651 16.40348816 C8.67063522 17.28482925 8.66547394 18.16617035 8.66015625 19.07421875 C8.6587413 19.98001175 8.65732635 20.88580475 8.65586853 21.81904602 C8.65027001 24.71273091 8.63771781 27.60633849 8.625 30.5 C8.61998481 32.46158742 8.61542193 34.42317606 8.61132812 36.38476562 C8.60030107 41.19404021 8.58303747 46.003257 8.5625 50.8125 C3.9425 50.8125 -0.6775 50.8125 -5.4375 50.8125 C-5.42702637 49.77319336 -5.41655273 48.73388672 -5.40576172 47.66308594 C-5.36952064 43.80163019 -5.34658459 39.94018943 -5.32763672 36.07861328 C-5.3175885 34.40834015 -5.30394764 32.73808458 -5.28662109 31.06787109 C-5.26232074 28.66499496 -5.25100513 26.26235173 -5.2421875 23.859375 C-5.23186493 23.11443787 -5.22154236 22.36950073 -5.21090698 21.60198975 C-5.21010301 17.87422491 -5.22566126 14.91237404 -7.4375 11.8125 C-10.010829 10.5258355 -11.93973038 10.64425449 -14.8125 10.625 C-15.76898437 10.61082031 -16.72546875 10.59664062 -17.7109375 10.58203125 C-20.77230607 10.67132831 -20.77230607 10.67132831 -24.4375 12.8125 C-24.7675 25.3525 -25.0975 37.8925 -25.4375 50.8125 C-30.0575 50.8125 -34.6775 50.8125 -39.4375 50.8125 C-39.46255615 49.58208984 -39.4876123 48.35167969 -39.51342773 47.08398438 C-39.60804447 42.49176738 -39.70812976 37.89968266 -39.80981445 33.30761719 C-39.85295907 31.32522693 -39.89464732 29.34280439 -39.93481445 27.36035156 C-39.9930164 24.50055235 -40.0565634 21.64091258 -40.12109375 18.78125 C-40.13780624 17.90384155 -40.15451874 17.02643311 -40.17173767 16.12243652 C-40.29449772 10.95070859 -40.70904175 5.93503916 -41.4375 0.8125 C-38.67297967 -0.56976016 -36.3913637 -0.28275387 -33.3125 -0.25 C-32.21679688 -0.24097656 -31.12109375 -0.23195312 -29.9921875 -0.22265625 C-29.14914062 -0.21105469 -28.30609375 -0.19945312 -27.4375 -0.1875 C-27.4375 1.4625 -27.4375 3.1125 -27.4375 4.8125 C-26.69886719 4.379375 -25.96023438 3.94625 -25.19921875 3.5 C-16.56124569 -1.24155573 -9.555737 -3.03805317 0 0 Z " fill="#2180BA" transform="translate(663.4375,53.1875)"/>
<path d="M0 0 C4.73951297 2.41133116 6.88922971 4.79268914 8.5625 9.8125 C8.64817246 11.17842183 8.68023647 12.54814858 8.67602539 13.91674805 C8.67594986 14.73737228 8.67587433 15.55799652 8.67579651 16.40348816 C8.67063522 17.28482925 8.66547394 18.16617035 8.66015625 19.07421875 C8.6587413 19.98001175 8.65732635 20.88580475 8.65586853 21.81904602 C8.65027001 24.71273091 8.63771781 27.60633849 8.625 30.5 C8.61998481 32.46158742 8.61542193 34.42317606 8.61132812 36.38476562 C8.60030107 41.19404021 8.58303747 46.003257 8.5625 50.8125 C3.9425 50.8125 -0.6775 50.8125 -5.4375 50.8125 C-5.42702637 49.77319336 -5.41655273 48.73388672 -5.40576172 47.66308594 C-5.36952064 43.80163019 -5.34658459 39.94018943 -5.32763672 36.07861328 C-5.3175885 34.40834015 -5.30394764 32.73808458 -5.28662109 31.06787109 C-5.26232074 28.66499496 -5.25100513 26.26235173 -5.2421875 23.859375 C-5.23186493 23.11443787 -5.22154236 22.36950073 -5.21090698 21.60198975 C-5.21010301 17.87422491 -5.22566126 14.91237404 -7.4375 11.8125 C-10.010829 10.5258355 -11.93973038 10.64425449 -14.8125 10.625 C-15.76898438 10.61082031 -16.72546875 10.59664062 -17.7109375 10.58203125 C-20.77230607 10.67132831 -20.77230607 10.67132831 -24.4375 12.8125 C-24.7675 25.3525 -25.0975 37.8925 -25.4375 50.8125 C-30.0575 50.8125 -34.6775 50.8125 -39.4375 50.8125 C-39.46255615 49.58208984 -39.4876123 48.35167969 -39.51342773 47.08398438 C-39.60804447 42.49176738 -39.70812976 37.89968266 -39.80981445 33.30761719 C-39.85295907 31.32522693 -39.89464732 29.34280439 -39.93481445 27.36035156 C-39.9930164 24.50055235 -40.0565634 21.64091258 -40.12109375 18.78125 C-40.13780624 17.90384155 -40.15451874 17.02643311 -40.17173767 16.12243652 C-40.29449772 10.95070859 -40.70904175 5.93503916 -41.4375 0.8125 C-38.28819107 -0.23726964 -36.04935544 -0.28881595 -32.75 -0.25 C-31.75613281 -0.24097656 -30.76226562 -0.23195312 -29.73828125 -0.22265625 C-28.59939453 -0.20525391 -28.59939453 -0.20525391 -27.4375 -0.1875 C-27.4375 1.4625 -27.4375 3.1125 -27.4375 4.8125 C-26.69886719 4.379375 -25.96023437 3.94625 -25.19921875 3.5 C-16.56124569 -1.24155573 -9.555737 -3.03805317 0 0 Z " fill="#2080BA" transform="translate(232.4375,54.1875)"/>
<path d="M0 0 C4.95 0 9.9 0 15 0 C14.67 19.14 14.34 38.28 14 58 C23.9 58 33.8 58 44 58 C44 61.63 44 65.26 44 69 C29.48 69 14.96 69 0 69 C0 46.23 0 23.46 0 0 Z " fill="#2180BA" transform="translate(358,35)"/>
<path d="M0 0 C0.80179688 0.00064453 1.60359375 0.00128906 2.4296875 0.00195312 C5.77640473 0.02713745 8.55565645 0.12271882 11.75 1.1875 C11.42 4.4875 11.09 7.7875 10.75 11.1875 C4.15 11.1875 -2.45 11.1875 -9.25 11.1875 C-9.58 12.8375 -9.91 14.4875 -10.25 16.1875 C-9.17621094 16.69539063 -8.10242188 17.20328125 -6.99609375 17.7265625 C10.80003571 26.28757142 10.80003571 26.28757142 13.75 32.1875 C14.26343908 37.33872483 14.32436681 41.81401415 12.3125 46.625 C7.49649166 51.44100834 1.93604902 53.3995639 -4.8359375 53.61328125 C-6.76591936 53.5962597 -8.69582271 53.55826374 -10.625 53.5 C-11.60855469 53.49033203 -12.59210937 53.48066406 -13.60546875 53.47070312 C-20.73696608 53.35851131 -20.73696608 53.35851131 -24.25 52.1875 C-23.92 48.5575 -23.59 44.9275 -23.25 41.1875 C-21.93 41.5175 -20.61 41.8475 -19.25 42.1875 C-17.83279247 42.27588786 -16.41214689 42.31808935 -14.9921875 42.3203125 C-14.20199219 42.32160156 -13.41179688 42.32289062 -12.59765625 42.32421875 C-11.37369141 42.31841797 -11.37369141 42.31841797 -10.125 42.3125 C-8.88943359 42.31830078 -8.88943359 42.31830078 -7.62890625 42.32421875 C-3.30380837 42.44304581 -3.30380837 42.44304581 0.75 41.1875 C0.89631751 38.81990549 0.89631751 38.81990549 -0.25 36.1875 C-2.8070721 34.32916272 -5.63734084 33.07250121 -8.5 31.75 C-15.09463312 28.6750994 -19.87411161 25.93927678 -23.25 19.1875 C-23.69536188 12.39573132 -22.78373007 9.35466259 -18.5 4 C-13.13967226 -0.31804179 -6.56563996 -0.10225177 0 0 Z " fill="#2380B9" transform="translate(539.25,51.8125)"/>
<path d="M0 0 C0.87527344 -0.00257812 1.75054687 -0.00515625 2.65234375 -0.0078125 C5.0625 0.125 5.0625 0.125 8.0625 1.125 C7.92019192 2.54202513 7.77349254 3.9586096 7.625 5.375 C7.54378906 6.16390625 7.46257812 6.9528125 7.37890625 7.765625 C7.08615007 9.94864639 6.64185581 12.0023182 6.0625 14.125 C4.61617187 14.05539063 4.61617187 14.05539063 3.140625 13.984375 C1.87734375 13.94828125 0.6140625 13.9121875 -0.6875 13.875 C-1.94046875 13.82859375 -3.1934375 13.7821875 -4.484375 13.734375 C-7.90536619 13.84120625 -7.90536619 13.84120625 -10.11523438 15.66015625 C-12.5813496 18.99588767 -12.54008422 21.95669728 -12.546875 25.953125 C-12.56341125 26.70213074 -12.57994751 27.45113647 -12.59698486 28.22283936 C-12.6454351 30.60697654 -12.66682772 32.99047611 -12.6875 35.375 C-12.7156624 36.99482369 -12.74559022 38.61461772 -12.77734375 40.234375 C-12.85119244 44.19786414 -12.90078457 48.16099998 -12.9375 52.125 C-17.5575 52.125 -22.1775 52.125 -26.9375 52.125 C-26.93226318 50.96564941 -26.92702637 49.80629883 -26.92163086 48.61181641 C-26.90339392 44.26937649 -26.8920003 39.92693988 -26.88256836 35.58447266 C-26.87757058 33.71272205 -26.87077012 31.84097529 -26.86206055 29.96923828 C-26.84979379 27.26333665 -26.844226 24.55748708 -26.83984375 21.8515625 C-26.83468246 21.02822418 -26.82952118 20.20488586 -26.82420349 19.3565979 C-26.82365539 13.55070736 -27.28863094 7.89521967 -27.9375 2.125 C-21.5025 1.63 -21.5025 1.63 -14.9375 1.125 C-14.2775 2.775 -13.6175 4.425 -12.9375 6.125 C-11.98875 5.320625 -11.04 4.51625 -10.0625 3.6875 C-6.58583764 0.73989495 -4.59963175 -0.01350846 0 0 Z " fill="#217FB9" transform="translate(123.9375,52.875)"/>
<path d="M0 0 C4.03178708 2.51681254 7.3449136 5.47400542 9 10 C9.7840537 17.9955244 10.28219735 25.54398102 5 32 C2.35410946 34.92937881 1.08907986 34.9915162 -2.9375 35.375 C-6.69630386 35.21430764 -9.04528979 34.44818846 -12 32 C-16.79895422 25.31574234 -16.70067646 17.98965797 -16 10 C-14.78943195 6.12486641 -12.81528938 3.68308029 -9.6875 1.0625 C-6.07474141 -0.36579991 -3.8627237 -0.59938816 0 0 Z " fill="#F8FDFE" transform="translate(591,61)"/>
<path d="M0 0 C0 16.83 0 33.66 0 51 C-4.62 51 -9.24 51 -14 51 C-14.33 34.5 -14.66 18 -15 1 C-12 0 -12 0 0 0 Z " fill="#2883BB" transform="translate(505,53)"/>
<path d="M0 0 C1.98 0.99 3.96 1.98 6 3 C6 12.57 6 22.14 6 32 C-2.3628692 36.1814346 -2.3628692 36.1814346 -8 35 C-12.11455172 32.43810931 -14.84387361 29.70905396 -16.52734375 25.08203125 C-18.06710705 18.29943753 -17.81242554 11.72750435 -14.26171875 5.66015625 C-10.37426712 0.54508831 -6.22499201 -0.778124 0 0 Z " fill="#F6FCFD" transform="translate(282,62)"/>
<path d="M0 0 C0 16.83 0 33.66 0 51 C-4.62 51 -9.24 51 -14 51 C-13.98839844 48.89882812 -13.97679687 46.79765625 -13.96484375 44.6328125 C-13.90264292 30.06145025 -13.86922426 15.53854528 -15 1 C-12 0 -12 0 0 0 Z " fill="#2381BA" transform="translate(424,53)"/>
<path d="M0 0 C3.19057334 1.62122629 5.21621057 3.96682303 7.375 6.8125 C8.67161016 11.35063555 8.61614993 15.40525899 6.9375 19.75 C4.35743914 22.74619971 1.75440039 24.79168723 -2 26 C-6.71292815 26.18789082 -10.05787539 25.62808308 -14 23 C-14 22.34 -14 21.68 -14 21 C-14.66 21 -15.32 21 -16 21 C-18.41987125 16.67740741 -18.96632408 12.87256634 -18 8 C-13.50808266 0.5731796 -8.46247091 -1.16813249 0 0 Z " fill="#F2F2F2" transform="translate(666,15)"/>
<path d="M0 0 C9.228603 -0.38857276 16.93300602 -0.60635816 24.0625 5.875 C25.37214931 8.84353845 25.45927302 10.78508886 25 14 C22.34661994 18.49033548 19.95315842 19.7154192 15 21 C12.32306285 21.13519885 9.79039849 21.19162022 7.125 21.125 C4.77375 21.08375 2.4225 21.0425 0 21 C0 14.07 0 7.14 0 0 Z " fill="#F5FCFE" transform="translate(48,74)"/>
<path d="M0 0 C3.58875 -0.061875 3.58875 -0.061875 7.25 -0.125 C7.99668945 -0.14320801 8.74337891 -0.16141602 9.51269531 -0.18017578 C13.17846664 -0.21074031 15.97656697 -0.17399232 19 2 C21.4915904 5.7373856 21.45793285 7.57331583 21 12 C19.159863 15.18485251 17.70522983 16.63878472 14.4375 18.3125 C9.56398641 19.28720272 4.96798886 19.12117046 0 19 C0 12.73 0 6.46 0 0 Z " fill="#F6FCFE" transform="translate(48,46)"/>
<path d="M0 0 C1.97265625 0.265625 1.97265625 0.265625 4.97265625 2.265625 C4.48034856 7.80408654 4.48034856 7.80408654 1.91015625 10.140625 C1.27078125 10.511875 0.63140625 10.883125 -0.02734375 11.265625 C0.76383529 13.26546034 0.76383529 13.26546034 1.97265625 15.265625 C2.96265625 15.595625 3.95265625 15.925625 4.97265625 16.265625 C5.30265625 14.615625 5.63265625 12.965625 5.97265625 11.265625 C6.96265625 11.265625 7.95265625 11.265625 8.97265625 11.265625 C8.64265625 14.235625 8.31265625 17.205625 7.97265625 20.265625 C8.96265625 20.925625 9.95265625 21.585625 10.97265625 22.265625 C10.97265625 22.925625 10.97265625 23.585625 10.97265625 24.265625 C8.95442708 23.97265625 6.93619792 23.6796875 4.91796875 23.38671875 C2.89124958 23.0971953 2.89124958 23.0971953 0.97265625 24.265625 C-6.12475707 24.83799704 -6.12475707 24.83799704 -9.58984375 22.640625 C-11.02734375 20.265625 -11.02734375 20.265625 -11.02734375 17.140625 C-10.02734375 14.265625 -10.02734375 14.265625 -7.96484375 12.890625 C-7.32546875 12.684375 -6.68609375 12.478125 -6.02734375 12.265625 C-6.52234375 11.46125 -6.52234375 11.46125 -7.02734375 10.640625 C-8.27698973 7.6727158 -8.30490959 5.45763221 -8.02734375 2.265625 C-5.42029477 -0.34142398 -3.55396134 0.02657167 0 0 Z " fill="#737779" transform="translate(231.02734375,126.734375)"/>
<path d="M0 0 C1.65 0 3.3 0 5 0 C7.71970716 5.25184831 10.01095551 10.43067543 12 16 C14.64179275 12.80815657 16.14549017 9.58418661 17.6875 5.75 C18.12449219 4.67234375 18.56148437 3.5946875 19.01171875 2.484375 C19.33785156 1.66453125 19.66398438 0.8446875 20 0 C21.65 0 23.3 0 25 0 C25 7.59 25 15.18 25 23 C24.01 23 23.02 23 22 23 C21.67 17.72 21.34 12.44 21 7 C18.69 12.28 16.38 17.56 14 23 C13.01 23 12.02 23 11 23 C8.69 17.39 6.38 11.78 4 6 C3.67 11.61 3.34 17.22 3 23 C2.01 23 1.02 23 0 23 C0 15.41 0 7.82 0 0 Z " fill="#727678" transform="translate(567,128)"/>
<path d="M0 0 C0.99 0 1.98 0 3 0 C3 8.25 3 16.5 3 25 C1.68 24.67 0.36 24.34 -1 24 C-1.33 24.33 -1.66 24.66 -2 25 C-5.375 25.375 -5.375 25.375 -9 25 C-11.69239355 22.22075504 -12.19994956 19.68357952 -12.375 15.9375 C-12 12 -12 12 -10.9375 9.5 C-8.01268231 7.23562502 -5.57717623 7.66877998 -2 8 C-1.67 8.33 -1.34 8.66 -1 9 C-0.67 6.03 -0.34 3.06 0 0 Z " fill="#74787B" transform="translate(504,126)"/>
<path d="M0 0 C1.32 0.33 2.64 0.66 4 1 C4.33 0.67 4.66 0.34 5 0 C11.33760174 -0.46945198 11.33760174 -0.46945198 13.703125 1.20703125 C15.40453177 3.55927736 15.40101119 5.05459296 15.375 7.9375 C15.38273437 8.79214844 15.39046875 9.64679688 15.3984375 10.52734375 C14.91992862 13.49691358 14.11993309 14.88006691 12 17 C8.375 17.3125 8.375 17.3125 5 17 C4.67 16.67 4.34 16.34 4 16 C3.67 18.64 3.34 21.28 3 24 C2.01 23.67 1.02 23.34 0 23 C0 15.41 0 7.82 0 0 Z " fill="#787C7E" transform="translate(276,134)"/>
<path d="M0 0 C0.66 0 1.32 0 2 0 C2 0.66 2 1.32 2 2 C2.99 1.34 3.98 0.68 5 0 C11.17906683 -0.66204288 11.17906683 -0.66204288 13.9375 1.5625 C15.40390953 4.92661599 15.3829828 7.36166341 15 11 C13.84360194 13.31279611 12.82590172 15.17409828 11 17 C5.47058824 17.23529412 5.47058824 17.23529412 3 16 C3 18.64 3 21.28 3 24 C2.01 24 1.02 24 0 24 C0 16.08 0 8.16 0 0 Z " fill="#767A7C" transform="translate(296,134)"/>
<path d="M0 0 C0.66 0 1.32 0 2 0 C2 0.66 2 1.32 2 2 C2.99 1.34 3.98 0.68 5 0 C11.17906683 -0.66204288 11.17906683 -0.66204288 13.9375 1.5625 C15.40390953 4.92661599 15.3829828 7.36166341 15 11 C13.84360194 13.31279611 12.82590172 15.17409828 11 17 C5.47058824 17.23529412 5.47058824 17.23529412 3 16 C3 18.64 3 21.28 3 24 C2.01 24 1.02 24 0 24 C0 16.08 0 8.16 0 0 Z " fill="#7A7E80" transform="translate(105,134)"/>
<path d="M0 0 C2.12890625 0.484375 2.12890625 0.484375 4.69140625 2.609375 C6.37297567 5.97251384 6.67037594 7.77144001 6.12890625 11.484375 C3.86420037 16.11672794 3.86420037 16.11672794 1.12890625 17.484375 C-6.23315163 17.95180725 -6.23315163 17.95180725 -8.56640625 16.2421875 C-10.96061658 13.01645502 -11.0703205 9.40708107 -10.87109375 5.484375 C-8.51433004 0.23521945 -5.36165956 -0.31798969 0 0 Z " fill="#787C7E" transform="translate(64.87109375,133.515625)"/>
<path d="M0 0 C2.0625 1.5 2.0625 1.5 3 4 C3.50971845 8.58746602 3.55875722 10.88248556 1.5 15 C-1.54102296 17.43281837 -3.28194447 17.6907131 -7.09375 17.40625 C-9 17 -9 17 -11.5 15.5625 C-13.7380068 11.73923839 -13.75280262 8.31870978 -13 4 C-10.15570022 -1.07027353 -5.25911956 -0.95620356 0 0 Z " fill="#74787B" transform="translate(435,134)"/>
<path d="M0 0 C2.5 1.5625 2.5 1.5625 4 4 C4.63339504 8.97667533 4.05383902 12.00651821 1 16 C-2.20229442 17.60114721 -5.52500237 17.48323075 -9 17 C-11 15.5625 -11 15.5625 -12 13 C-12.62645561 8.6782493 -12.73848547 5.26157935 -10.5 1.4375 C-6.95818758 -0.59904214 -3.98880501 -0.79285673 0 0 Z " fill="#75797C" transform="translate(339,134)"/>
<path d="M0 0 C2.10375 0.0309375 2.10375 0.0309375 4.25 0.0625 C4.25 4.3525 4.25 8.6425 4.25 13.0625 C-6.34574468 16.59441489 -6.34574468 16.59441489 -12.25 13.9375 C-13.75 12.0625 -13.75 12.0625 -14.3125 9.1875 C-13.56810954 5.05199742 -11.99828298 3.64636146 -8.75 1.0625 C-5.79553821 0.06536914 -3.10327801 -0.04563644 0 0 Z " fill="#F3FCFE" transform="translate(460.75,80.9375)"/>
<path d="M0 0 C2.10375 0.0309375 2.10375 0.0309375 4.25 0.0625 C4.25 4.3525 4.25 8.6425 4.25 13.0625 C-1.51768358 14.98506119 -3.96837355 15.62201224 -9.75 15.0625 C-12.3125 13.5 -12.3125 13.5 -13.75 11.0625 C-13.75 7.22581059 -13.65374521 4.99740884 -10.9375 2.1875 C-7.28104535 0.30703761 -4.08459361 -0.06006755 0 0 Z " fill="#F4FCFE" transform="translate(163.75,81.9375)"/>
<path d="M0 0 C2.625 2.0625 2.625 2.0625 4 5 C4 8.8522557 3.51855692 11.15734501 1.5 14.4375 C-2.13548351 16.70967719 -5.81689424 16.85511002 -10 16 C-12.1991256 14.429196 -12.89027023 13.53678616 -13.43359375 10.87890625 C-13.43981169 7.1916694 -13.39189596 4.69859714 -11.5625 1.4375 C-7.73507984 -0.70958936 -4.27892107 -0.8934011 0 0 Z " fill="#1F80BB" transform="translate(423,30)"/>
<path d="M0 0 C2.5 0.9375 2.5 0.9375 4 3 C4.77653059 7.27091823 4.70279283 10.74719539 2.5625 14.5625 C-1.26492016 16.70958936 -4.72107893 16.8934011 -9 16 C-11.625 13.9375 -11.625 13.9375 -13 11 C-13 7.11417724 -12.53567796 4.83565762 -10.4375 1.5625 C-6.94161072 -0.67845467 -4.03870259 -0.64553033 0 0 Z " fill="#2380B9" transform="translate(503,30)"/>
<path d="M0 0 C1.32 0 2.64 0 4 0 C5.15268129 2.89315371 6.29590743 5.78995487 7.4375 8.6875 C7.92573242 9.91243164 7.92573242 9.91243164 8.42382812 11.16210938 C9.96339769 15.08245663 11.39344895 18.80540049 12 23 C10.68 22.67 9.36 22.34 8 22 C7.67 20.35 7.34 18.7 7 17 C3.37 17 -0.26 17 -4 17 C-4.33 18.98 -4.66 20.96 -5 23 C-5.99 23 -6.98 23 -8 23 C-4.5625 4.5625 -4.5625 4.5625 0 0 Z " fill="#7C7F82" transform="translate(261,128)"/>
<path d="M0 0 C1.32 0.33 2.64 0.66 4 1 C4.33 0.67 4.66 0.34 5 0 C8.36629251 -0.14636054 10.78419562 -0.07193479 14 1 C14.66 0.67 15.32 0.34 16 0 C19 -0.1875 19 -0.1875 22 0 C24 2 24 2 24.1953125 5.4765625 C24.18201493 6.85950968 24.15816232 8.24238654 24.125 9.625 C24.11597656 10.33140625 24.10695313 11.0378125 24.09765625 11.765625 C24.07407603 13.51056098 24.03820461 15.25532295 24 17 C23.01 17 22.02 17 21 17 C20.67 12.38 20.34 7.76 20 3 C18.35 3.33 16.7 3.66 15 4 C14.67 8.29 14.34 12.58 14 17 C13.01 17 12.02 17 11 17 C10.67 12.71 10.34 8.42 10 4 C8.68 3.67 7.36 3.34 6 3 C3.31907309 5.68092691 3.61329743 7.39167363 3.375 11.125 C3.30023438 12.22070312 3.22546875 13.31640625 3.1484375 14.4453125 C3.09945312 15.28835937 3.05046875 16.13140625 3 17 C2.01 17 1.02 17 0 17 C0 11.39 0 5.78 0 0 Z " fill="#777B7D" transform="translate(75,134)"/>
<path d="M0 0 C4.62 0 9.24 0 14 0 C14.33 24.75 14.66 49.5 15 75 C10.71 75 6.42 75 2 75 C2.33 74.01 2.66 73.02 3 72 C6.3 72.33 9.6 72.66 13 73 C12.83773926 71.80165527 12.67547852 70.60331055 12.50830078 69.36865234 C11.79967508 62.95258183 11.85679994 56.54975862 11.8671875 50.1015625 C11.86623077 48.78964935 11.86527405 47.47773621 11.86428833 46.12606812 C11.86282376 43.36772466 11.86492775 40.60941385 11.86962891 37.85107422 C11.87535926 34.31708022 11.87201861 30.78316162 11.86605644 27.2491703 C11.86157958 23.86662827 11.8647099 20.48410667 11.8671875 17.1015625 C11.86516327 15.83285309 11.86313904 14.56414368 11.86105347 13.25698853 C11.86420563 12.08501923 11.86735779 10.91304993 11.87060547 9.70556641 C11.87179886 8.15743759 11.87179886 8.15743759 11.87301636 6.57803345 C12 4 12 4 13 1 C8.71 1 4.42 1 0 1 C0 0.67 0 0.34 0 0 Z " fill="#3782AF" transform="translate(287,30)"/>
<path d="M0 0 C1.43655854 -0.08131463 2.8744483 -0.13933559 4.3125 -0.1875 C5.51326172 -0.23970703 5.51326172 -0.23970703 6.73828125 -0.29296875 C9 0 9 0 10.78125 1.0625 C12.66475812 4.05679497 12.28345796 6.70102754 12.1875 10.1875 C12.16042969 11.45980469 12.13335937 12.73210937 12.10546875 14.04296875 C12.07066406 15.01878906 12.03585938 15.99460938 12 17 C11.360625 16.814375 10.72125 16.62875 10.0625 16.4375 C9.0415625 16.2209375 9.0415625 16.2209375 8 16 C7.67 16.33 7.34 16.66 7 17 C1.74549098 17.45691383 1.74549098 17.45691383 -0.9375 15.8125 C-2 14 -2 14 -1.875 11.4375 C-1 9 -1 9 2 7 C4.33199388 6.92094936 6.66832622 6.91201231 9 7 C8.34 5.68 7.68 4.36 7 3 C4.36 3 1.72 3 -1 3 C-0.67 2.01 -0.34 1.02 0 0 Z " fill="#808385" transform="translate(142,134)"/>
<path d="M0 0 C1.7421875 1.06640625 1.7421875 1.06640625 3 3 C3.29296875 6.35546875 3.29296875 6.35546875 3.1875 10.1875 C3.16042969 11.45980469 3.13335938 12.73210937 3.10546875 14.04296875 C3.07066406 15.01878906 3.03585937 15.99460938 3 17 C2.360625 16.814375 1.72125 16.62875 1.0625 16.4375 C0.0415625 16.2209375 0.0415625 16.2209375 -1 16 C-1.33 16.33 -1.66 16.66 -2 17 C-7.25450902 17.45691383 -7.25450902 17.45691383 -9.9375 15.8125 C-11 14 -11 14 -10.875 11.4375 C-10 9 -10 9 -7 7 C-4.66800612 6.92094936 -2.33167378 6.91201231 0 7 C-0.66 5.68 -1.32 4.36 -2 3 C-4.64 3 -7.28 3 -10 3 C-10 2.34 -10 1.68 -10 1 C-6.88450128 -0.55774936 -3.3955612 -0.56480622 0 0 Z " fill="#7C8082" transform="translate(608,134)"/>
<path d="M0 0 C1.7421875 1.06640625 1.7421875 1.06640625 3 3 C3.29296875 6.35546875 3.29296875 6.35546875 3.1875 10.1875 C3.16042969 11.45980469 3.13335937 12.73210937 3.10546875 14.04296875 C3.07066406 15.01878906 3.03585937 15.99460938 3 17 C2.360625 16.814375 1.72125 16.62875 1.0625 16.4375 C0.0415625 16.2209375 0.0415625 16.2209375 -1 16 C-1.33 16.33 -1.66 16.66 -2 17 C-7.25450902 17.45691383 -7.25450902 17.45691383 -9.9375 15.8125 C-11 14 -11 14 -10.875 11.4375 C-10 9 -10 9 -7 7 C-4.66800612 6.92094936 -2.33167378 6.91201231 0 7 C-0.66 5.68 -1.32 4.36 -2 3 C-4.64 3 -7.28 3 -10 3 C-10 2.34 -10 1.68 -10 1 C-6.88450128 -0.55774936 -3.3955612 -0.56480622 0 0 Z " fill="#7D8083" transform="translate(373,134)"/>
<path d="M0 0 C2 1.125 2 1.125 3 3 C3.1875 6.1875 3.1875 6.1875 3 9 C-0.63 9 -4.26 9 -8 9 C-7.34 10.65 -6.68 12.3 -6 14 C-3.36 14 -0.72 14 2 14 C1.67 14.99 1.34 15.98 1 17 C-0.43655854 17.08131463 -1.8744483 17.13933559 -3.3125 17.1875 C-4.51326172 17.23970703 -4.51326172 17.23970703 -5.73828125 17.29296875 C-8 17 -8 17 -9.734375 15.76171875 C-12.06876078 12.51231138 -12.20559796 8.91321445 -12 5 C-9.2433147 -0.87293826 -5.88436118 -0.74722047 0 0 Z " fill="#75797B" transform="translate(205,134)"/>
<path d="M0 0 C8.91 0 17.82 0 27 0 C27 1.98 27 3.96 27 6 C18.09 6 9.18 6 0 6 C0 4.02 0 2.04 0 0 Z " fill="#999C9F" transform="translate(317,101)"/>
<path d="M0 0 C0.99 0.66 1.98 1.32 3 2 C3.1875 5.625 3.1875 5.625 3 9 C-0.63 9 -4.26 9 -8 9 C-7.34 10.65 -6.68 12.3 -6 14 C-3.03 14 -0.06 14 3 14 C3 14.66 3 15.32 3 16 C-0.21102274 17.60551137 -3.51699208 17.46807221 -7 17 C-9.5 15.5625 -9.5 15.5625 -11 13 C-11.76474799 8.65846194 -11.75830672 5.24362301 -9.4375 1.4375 C-6.10847173 -0.52577308 -3.80121737 -0.41467826 0 0 Z " fill="#727678" transform="translate(655,134)"/>
<path d="M0 0 C1.45792884 -0.05399736 2.91642712 -0.09279177 4.375 -0.125 C5.18710937 -0.14820313 5.99921875 -0.17140625 6.8359375 -0.1953125 C9 0 9 0 11 2 C11.14497985 4.58064129 11.18677545 7.04943884 11.125 9.625 C11.11597656 10.33140625 11.10695313 11.0378125 11.09765625 11.765625 C11.07407603 13.51056098 11.03820461 15.25532295 11 17 C9.68 17 8.36 17 7 17 C5.80375 17.04125 4.6075 17.0825 3.375 17.125 C0 17 0 17 -2 15 C-2.375 12.5625 -2.375 12.5625 -2 10 C0.37869491 7.34684029 1.67124653 7.01896655 5.25 6.8125 C6.61125 6.9053125 6.61125 6.9053125 8 7 C7.67 5.68 7.34 4.36 7 3 C4.36 3 1.72 3 -1 3 C-0.67 2.01 -0.34 1.02 0 0 Z " fill="#767A7C" transform="translate(522,134)"/>
<path d="M0 0 C2.63887681 2.40940926 3.88839376 4.22060196 4.12025452 7.9172821 C4.1169236 8.99983025 4.1169236 8.99983025 4.11352539 10.10424805 C4.11344986 10.92487228 4.11337433 11.74549652 4.11329651 12.59098816 C4.10813522 13.47232925 4.10297394 14.35367035 4.09765625 15.26171875 C4.0962413 16.16751175 4.09482635 17.07330475 4.09336853 18.00654602 C4.08777001 20.90023091 4.07521781 23.79383849 4.0625 26.6875 C4.05748481 28.64908742 4.05292193 30.61067606 4.04882812 32.57226562 C4.03780107 37.38154021 4.02053747 42.190757 4 47 C-0.62 47 -5.24 47 -10 47 C-10 35.12 -10 23.24 -10 11 C-9.34 11 -8.68 11 -8 11 C-8 22.22 -8 33.44 -8 45 C-4.7 45 -1.4 45 2 45 C1.88168362 39.23407365 1.75743024 33.46831726 1.62768555 27.70263672 C1.5843874 25.74140904 1.54270869 23.7801449 1.50268555 21.81884766 C1.44485901 18.99891172 1.38120016 16.17915839 1.31640625 13.359375 C1.29969376 12.48319519 1.28298126 11.60701538 1.26576233 10.70428467 C1.24581711 9.88373596 1.22587189 9.06318726 1.20532227 8.21777344 C1.18200584 7.13855621 1.18200584 7.13855621 1.15821838 6.03753662 C0.9946058 3.93053354 0.57000469 2.03164263 0 0 Z " fill="#337EAB" transform="translate(237,58)"/>
<path d="M0 0 C0.99 0 1.98 0 3 0 C3.33 4.62 3.66 9.24 4 14 C5.65 12.02 7.3 10.04 9 8 C10.32 8.33 11.64 8.66 13 9 C11.7315625 10.11375 11.7315625 10.11375 10.4375 11.25 C7.79791963 13.63740856 7.79791963 13.63740856 7.9375 16 C9.31894964 18.60037579 11.14239991 20.72294182 13 23 C13 23.66 13 24.32 13 25 C10.46089803 24.61479436 9.27248877 24.29902057 7.515625 22.37109375 C6.88914062 21.41396484 6.88914062 21.41396484 6.25 20.4375 C5.60804688 19.47650391 5.60804688 19.47650391 4.953125 18.49609375 C4.63859375 18.00238281 4.3240625 17.50867188 4 17 C3.67 19.64 3.34 22.28 3 25 C2.01 25 1.02 25 0 25 C0 16.75 0 8.5 0 0 Z " fill="#6F7375" transform="translate(629,126)"/>
<path d="M0 0 C8.91 0 17.82 0 27 0 C27 1.65 27 3.3 27 5 C18.09 5 9.18 5 0 5 C0 3.35 0 1.7 0 0 Z " fill="#898E90" transform="translate(317,77)"/>
<path d="M0 0 C8.58 0 17.16 0 26 0 C26 1.65 26 3.3 26 5 C17.42 5 8.84 5 0 5 C0 3.35 0 1.7 0 0 Z " fill="#8D9194" transform="translate(317,53)"/>
<path d="M0 0 C0.66 1.32 1.32 2.64 2 4 C1.31292969 3.88140625 0.62585937 3.7628125 -0.08203125 3.640625 C-0.98308594 3.51171875 -1.88414063 3.3828125 -2.8125 3.25 C-3.70582031 3.11078125 -4.59914063 2.9715625 -5.51953125 2.828125 C-8.11042759 2.7444795 -8.11042759 2.7444795 -9.8046875 4.69921875 C-11.12015874 7.23128595 -11.37480032 8.73023161 -11.3125 11.5625 C-11.30863281 12.32691406 -11.30476563 13.09132812 -11.30078125 13.87890625 C-11.11368696 16.29788749 -11.11368696 16.29788749 -9 19 C-4.82339427 19.26518132 -1.95659266 19.31886422 2 18 C1.625 19.9375 1.625 19.9375 1 22 C-2.51373887 23.75686944 -6.17438737 23.65958838 -10 23 C-13.62385954 20.26361627 -14.68032878 18.78328987 -15.47265625 14.36328125 C-15.70660215 9.96629806 -15.6185789 6.06177398 -13.125 2.3125 C-8.76939497 -0.91064772 -5.24142864 -0.54958669 0 0 Z " fill="#727679" transform="translate(50,128)"/>
<path d="M0 0 C1.32 0.33 2.64 0.66 4 1 C4.33 0.67 4.66 0.34 5 0 C8.4375 -0.25 8.4375 -0.25 12 0 C14.49118953 3.7367843 14.2065226 5.74451819 14.125 10.1875 C14.10695312 11.45980469 14.08890625 12.73210937 14.0703125 14.04296875 C14.03550781 15.50669922 14.03550781 15.50669922 14 17 C13.01 17 12.02 17 11 17 C10.67 12.71 10.34 8.42 10 4 C8.68 3.67 7.36 3.34 6 3 C3.31907309 5.68092691 3.61329743 7.39167363 3.375 11.125 C3.30023438 12.22070312 3.22546875 13.31640625 3.1484375 14.4453125 C3.09945312 15.28835937 3.05046875 16.13140625 3 17 C2.01 17 1.02 17 0 17 C0 11.39 0 5.78 0 0 Z " fill="#737779" transform="translate(159,134)"/>
<path d="M0 0 C1.32 0.33 2.64 0.66 4 1 C4.33 0.67 4.66 0.34 5 0 C8.4375 -0.1875 8.4375 -0.1875 12 0 C14 2 14 2 14.1953125 5.4765625 C14.18201493 6.85950968 14.15816232 8.24238654 14.125 9.625 C14.11597656 10.33140625 14.10695313 11.0378125 14.09765625 11.765625 C14.07407603 13.51056098 14.03820461 15.25532295 14 17 C13.01 17 12.02 17 11 17 C10.67 12.38 10.34 7.76 10 3 C5.36980013 3.4452998 5.36980013 3.4452998 4 5 C3.76572222 7.01594582 3.58663876 9.038474 3.4375 11.0625 C3.31181641 12.71958984 3.31181641 12.71958984 3.18359375 14.41015625 C3.12300781 15.26480469 3.06242187 16.11945313 3 17 C2.01 17 1.02 17 0 17 C0 11.39 0 5.78 0 0 Z " fill="#7C8082" transform="translate(473,134)"/>
<path d="M0 0 C0.66 0 1.32 0 2 0 C2 0.66 2 1.32 2 2 C2.99 1.34 3.98 0.68 5 0 C10.15865856 -0.53736027 10.15865856 -0.53736027 12.67578125 1.0703125 C14.71301491 4.03902468 14.28498518 6.64553833 14.1875 10.1875 C14.16042969 11.45980469 14.13335938 12.73210937 14.10546875 14.04296875 C14.07066406 15.01878906 14.03585937 15.99460938 14 17 C13.01 17 12.02 17 11 17 C10.67 12.71 10.34 8.42 10 4 C6.25308553 2.60229416 6.25308553 2.60229416 4 4 C3.53045739 7.04581269 3.53045739 7.04581269 3.375 10.5625 C3.30023437 11.76003906 3.22546875 12.95757812 3.1484375 14.19140625 C3.09945312 15.11824219 3.05046875 16.04507813 3 17 C2.01 17 1.02 17 0 17 C0 11.39 0 5.78 0 0 Z " fill="#777B7E" transform="translate(539,134)"/>
<path d="M0 0 C7.42857143 -0.28571429 7.42857143 -0.28571429 11 2 C10.835 2.763125 10.67 3.52625 10.5 4.3125 C9.75546191 8.31439223 9.68050495 9.52075742 12 13 C8 13 8 13 5.25 10.5 C4.5075 9.675 3.765 8.85 3 8 C3 9.65 3 11.3 3 13 C2.01 13 1.02 13 0 13 C0 8.71 0 4.42 0 0 Z " fill="#838789" transform="translate(655,20)"/>
<path d="M0 0 C2.83181098 -0.43566323 4.36063578 -0.39684676 6.8125 1.125 C8.55957504 3.88353953 8.39203417 5.79838764 8 9 C6.8125 11.375 6.8125 11.375 5 13 C2.4375 13.4375 2.4375 13.4375 0 13 C-2.45811625 9.31282562 -2.31118164 7.35654296 -2 3 C-1.34 2.01 -0.68 1.02 0 0 Z " fill="#F5F6F6" transform="translate(332,136)"/>
<path d="M0 0 C1.423125 0.4021875 1.423125 0.4021875 2.875 0.8125 C4.39991998 3.86233996 4.11062548 6.4548369 3.875 9.8125 C2.6875 11.8125 2.6875 11.8125 0.875 12.8125 C-1.6875 12.6875 -1.6875 12.6875 -4.125 11.8125 C-6.43782587 8.34326119 -6.54978586 6.89044425 -6.125 2.8125 C-4.35767767 -0.23122179 -3.53906425 -0.21234385 0 0 Z " fill="#F8F8F9" transform="translate(431.125,136.1875)"/>
<path d="M0 0 C2.5 0.25 2.5 0.25 4.5 2.25 C4.765625 4.34375 4.765625 4.34375 4.75 6.75 C4.75515625 7.5440625 4.7603125 8.338125 4.765625 9.15625 C4.5 11.25 4.5 11.25 2.5 13.25 C0 13.5 0 13.5 -2.5 13.25 C-4.5 11.25 -4.5 11.25 -4.765625 9.15625 C-4.75789063 7.96515625 -4.75789063 7.96515625 -4.75 6.75 C-4.75515625 5.9559375 -4.7603125 5.161875 -4.765625 4.34375 C-4.35119662 1.07707925 -3.20036774 0.32003677 0 0 Z " fill="#F7F8F8" transform="translate(62.5,135.75)"/>
<path d="M0 0 C1.4540625 0.0309375 1.4540625 0.0309375 2.9375 0.0625 C3.2675 1.0525 3.5975 2.0425 3.9375 3.0625 C2.2875 3.3925 0.6375 3.7225 -1.0625 4.0625 C-1.3925 5.3825 -1.7225 6.7025 -2.0625 8.0625 C-0.4125 8.0625 1.2375 8.0625 2.9375 8.0625 C2.9375 8.7225 2.9375 9.3825 2.9375 10.0625 C1.2875 10.0625 -0.3625 10.0625 -2.0625 10.0625 C-2.0625 15.0125 -2.0625 19.9625 -2.0625 25.0625 C-3.0525 25.0625 -4.0425 25.0625 -5.0625 25.0625 C-5.0625 20.1125 -5.0625 15.1625 -5.0625 10.0625 C-5.7225 10.0625 -6.3825 10.0625 -7.0625 10.0625 C-7.0625 9.4025 -7.0625 8.7425 -7.0625 8.0625 C-6.4025 8.0625 -5.7425 8.0625 -5.0625 8.0625 C-4.918125 6.928125 -4.77375 5.79375 -4.625 4.625 C-3.90732759 0.07974138 -3.90732759 0.07974138 0 0 Z " fill="#777B7D" transform="translate(418.0625,125.9375)"/>
<path d="M0 0 C2.375 0.75 2.375 0.75 3.375 1.75 C3.73590226 9.20864662 3.73590226 9.20864662 1.375 12.75 C-3.375 12 -3.375 12 -5.625 9.75 C-6.17686722 3.67946058 -6.17686722 3.67946058 -4.4375 0.75 C-2.625 -0.25 -2.625 -0.25 0 0 Z " fill="#F3F4F4" transform="translate(284.625,136.25)"/>
<path d="M0 0 C1.859375 0.15234375 1.859375 0.15234375 4 1 C5.78939376 4.54012777 6.78028962 8.21018561 8 12 C9.32 8.04 10.64 4.08 12 0 C12.99 0 13.98 0 15 0 C13.83348574 5.92863717 12.24480642 11.38798394 10 17 C7.67578125 16.93359375 7.67578125 16.93359375 5 16 C3.7712301 13.6001062 2.95563956 11.60365677 2.1875 9.0625 C1.97158203 8.41603516 1.75566406 7.76957031 1.53320312 7.10351562 C0 2.41629464 0 2.41629464 0 0 Z " fill="#757A7C" transform="translate(345,134)"/>
<path d="M0 0 C4.75 0.75 4.75 0.75 7 3 C7.55186722 9.07053942 7.55186722 9.07053942 5.8125 12 C4 13 4 13 1.3125 12.6875 C0.549375 12.460625 -0.21375 12.23375 -1 12 C-1.2226746 10.56465159 -1.42761906 9.12654475 -1.625 7.6875 C-1.74101562 6.88699219 -1.85703125 6.08648437 -1.9765625 5.26171875 C-2 3 -2 3 0 0 Z " fill="#F6F6F7" transform="translate(497,136)"/>
<path d="M0 0 C1.258125 -0.04125 2.51625 -0.0825 3.8125 -0.125 C4.52019531 -0.14820312 5.22789062 -0.17140625 5.95703125 -0.1953125 C8 0 8 0 11 2 C10.8125 4.8125 10.8125 4.8125 10 8 C7.4375 9.875 7.4375 9.875 5 11 C5 10.34 5 9.68 5 9 C4.401875 8.9175 3.80375 8.835 3.1875 8.75 C0.4033704 7.79544128 -0.43311142 6.42867729 -2 4 C-1.34 2.68 -0.68 1.36 0 0 Z " fill="#7C8083" transform="translate(225,127)"/>
<path d="M0 0 C1.9375 0.75 1.9375 0.75 3.9375 2.75 C4.31830215 6.25337981 4.33995078 8.11278626 2.4375 11.125 C1.9425 11.66125 1.4475 12.1975 0.9375 12.75 C-1.92974686 12.17655063 -2.9239515 11.8885485 -5.0625 9.75 C-5.36328125 7.875 -5.36328125 7.875 -5.375 5.75 C-5.39175781 5.04875 -5.40851563 4.3475 -5.42578125 3.625 C-5.30589844 3.00625 -5.18601562 2.3875 -5.0625 1.75 C-2.0625 -0.25 -2.0625 -0.25 0 0 Z " fill="#F5F6F6" transform="translate(304.0625,136.25)"/>
<path d="M0 0 C1.32 0 2.64 0 4 0 C4 7.59 4 15.18 4 23 C2.68 23 1.36 23 0 23 C0 15.41 0 7.82 0 0 Z " fill="#8C9092" transform="translate(464,128)"/>
<path d="M0 0 C1.670625 0.061875 1.670625 0.061875 3.375 0.125 C3.705 1.115 4.035 2.105 4.375 3.125 C2.065 2.795 -0.245 2.465 -2.625 2.125 C-2.625 3.445 -2.625 4.765 -2.625 6.125 C-1.201875 6.558125 -1.201875 6.558125 0.25 7 C3.375 8.125 3.375 8.125 5.375 10.125 C5.125 13.1875 5.125 13.1875 4.375 16.125 C1.16048731 17.73225635 -2.06112536 17.18248185 -5.625 17.125 C-5.955 16.135 -6.285 15.145 -6.625 14.125 C-3.985 14.125 -1.345 14.125 1.375 14.125 C1.375 13.135 1.375 12.145 1.375 11.125 C0.405625 10.650625 -0.56375 10.17625 -1.5625 9.6875 C-4.625 8.125 -4.625 8.125 -5.625 7.125 C-5.8125 4.6875 -5.8125 4.6875 -5.625 2.125 C-3.625 0.125 -3.625 0.125 0 0 Z " fill="#797C7E" transform="translate(394.625,133.875)"/>
<path d="M0 0 C1.46373047 0.06767578 1.46373047 0.06767578 2.95703125 0.13671875 C3.69308594 0.19472656 4.42914063 0.25273438 5.1875 0.3125 C5.1875 0.6425 5.1875 0.9725 5.1875 1.3125 C4.51203125 1.36148438 3.8365625 1.41046875 3.140625 1.4609375 C2.24859375 1.53570312 1.3565625 1.61046875 0.4375 1.6875 C-0.44421875 1.75710937 -1.3259375 1.82671875 -2.234375 1.8984375 C-5.15917577 2.23606937 -5.15917577 2.23606937 -8.8125 4.3125 C-8.8125 15.8625 -8.8125 27.4125 -8.8125 39.3125 C-9.4725 39.3125 -10.1325 39.3125 -10.8125 39.3125 C-10.93641876 34.56202648 -11.02698561 29.81250039 -11.0871582 25.06079102 C-11.11224959 23.44571539 -11.14633126 21.83075274 -11.18969727 20.21606445 C-11.25059286 17.88985294 -11.27876124 15.56514641 -11.30078125 13.23828125 C-11.32658768 12.52037918 -11.3523941 11.80247711 -11.37898254 11.06282043 C-11.38116568 7.13000256 -10.93601361 5.46835508 -8.46289062 2.34765625 C-5.32634957 -0.06080047 -3.89298715 -0.2345173 0 0 Z " fill="#D8F5FD" transform="translate(121.8125,65.6875)"/>
<path d="M0 0 C1.875 0.6875 1.875 0.6875 2.875 1.6875 C3.04296875 3.68359375 3.04296875 3.68359375 3.0625 6.125 C3.07667969 6.92808594 3.09085938 7.73117188 3.10546875 8.55859375 C2.875 10.6875 2.875 10.6875 0.875 12.6875 C-2.05953261 12.32068342 -2.98937246 11.82312754 -5.125 9.6875 C-5.42578125 7.8125 -5.42578125 7.8125 -5.4375 5.6875 C-5.45425781 4.98625 -5.47101563 4.285 -5.48828125 3.5625 C-5.36839844 2.94375 -5.24851562 2.325 -5.125 1.6875 C-2.125 -0.3125 -2.125 -0.3125 0 0 Z " fill="#FAFAFA" transform="translate(113.125,136.3125)"/>
<path d="M0 0 C0.33 1.32 0.66 2.64 1 4 C-0.134375 3.814375 -1.26875 3.62875 -2.4375 3.4375 C-3.613125 3.293125 -4.78875 3.14875 -6 3 C-7.23267348 4.00836062 -7.23267348 4.00836062 -7.09765625 6.06640625 C-7.08605469 6.89011719 -7.07445312 7.71382812 -7.0625 8.5625 C-7.05347656 9.38878906 -7.04445312 10.21507812 -7.03515625 11.06640625 C-7.02355469 11.70449219 -7.01195312 12.34257812 -7 13 C-3.71303767 13.79953138 -2.28976808 14.09658936 1 13 C1 13.99 1 14.98 1 16 C-2.04983996 17.52491998 -4.6423369 17.23562548 -8 17 C-9.69921875 15.828125 -9.69921875 15.828125 -11 14 C-11.3984375 11.40625 -11.3984375 11.40625 -11.375 8.5 C-11.38273438 7.5409375 -11.39046875 6.581875 -11.3984375 5.59375 C-11 3 -11 3 -9.73828125 1.16796875 C-6.64366708 -0.91133381 -3.63255775 -0.17865038 0 0 Z " fill="#75797B" transform="translate(189,134)"/>
<path d="M0 0 C0.99 0 1.98 0 3 0 C3 1.65 3 3.3 3 5 C4.32 5 5.64 5 7 5 C7 5.66 7 6.32 7 7 C5.68 7 4.36 7 3 7 C3.33 10.96 3.66 14.92 4 19 C4.99 19.33 5.98 19.66 7 20 C7 20.66 7 21.32 7 22 C4.625 22.125 4.625 22.125 2 22 C0 20 0 20 -0.1953125 16.9609375 C-0.16050781 15.18589844 -0.16050781 15.18589844 -0.125 13.375 C-0.10695313 12.18648437 -0.08890625 10.99796875 -0.0703125 9.7734375 C-0.04710937 8.85820312 -0.02390625 7.94296875 0 7 C-0.99 7 -1.98 7 -3 7 C-3 6.34 -3 5.68 -3 5 C-2.01 5 -1.02 5 0 5 C0 3.35 0 1.7 0 0 Z " fill="#75797C" transform="translate(664,129)"/>
<path d="M0 0 C1.875 0.29296875 1.875 0.29296875 3.875 1.60546875 C4.875 3.29296875 4.875 3.29296875 4.875 6.29296875 C2.35024538 7.55534606 0.56299534 7.39153279 -2.25 7.35546875 C-3.16007813 7.34644531 -4.07015625 7.33742187 -5.0078125 7.328125 C-5.70648438 7.31652344 -6.40515625 7.30492187 -7.125 7.29296875 C-7.785 5.97296875 -8.445 4.65296875 -9.125 3.29296875 C-6.73538295 -0.29145682 -3.97273924 -0.15335942 0 0 Z " fill="#7B7E80" transform="translate(203.125,133.70703125)"/>
<path d="M0 0 C1.45792884 -0.05399736 2.91642712 -0.09279177 4.375 -0.125 C5.18710937 -0.14820313 5.99921875 -0.17140625 6.8359375 -0.1953125 C9 0 9 0 11 2 C11.14497985 4.58064129 11.18677545 7.04943884 11.125 9.625 C11.11597656 10.33140625 11.10695313 11.0378125 11.09765625 11.765625 C11.07407603 13.51056098 11.03820461 15.25532295 11 17 C9.02 16.67 7.04 16.34 5 16 C5.99 13.69 6.98 11.38 8 9 C7.34 8.67 6.68 8.34 6 8 C6.33 6.35 6.66 4.7 7 3 C4.36 3 1.72 3 -1 3 C-0.67 2.01 -0.34 1.02 0 0 Z " fill="#727678" transform="translate(522,134)"/>
<path d="M0 0 C0.99 0 1.98 0 3 0 C3 8.25 3 16.5 3 25 C2.01 25 1.02 25 0 25 C0 16.75 0 8.5 0 0 Z " fill="#727577" transform="translate(381,126)"/>
<path d="M0 0 C0.99 0 1.98 0 3 0 C3 8.25 3 16.5 3 25 C2.01 25 1.02 25 0 25 C0 16.75 0 8.5 0 0 Z " fill="#777B7E" transform="translate(124,126)"/>
<path d="M0 0 C1.32 0.33 2.64 0.66 4 1 C4.33 0.67 4.66 0.34 5 0 C6.66617115 -0.04063832 8.33388095 -0.042721 10 0 C10 0.99 10 1.98 10 3 C8.02 3.66 6.04 4.32 4 5 C3.67 8.96 3.34 12.92 3 17 C2.01 17 1.02 17 0 17 C0 11.39 0 5.78 0 0 Z " fill="#727678" transform="translate(616,134)"/>
<path d="M0 0 C1.32 0.33 2.64 0.66 4 1 C4.33 0.67 4.66 0.34 5 0 C6.66617115 -0.04063832 8.33388095 -0.042721 10 0 C10 0.66 10 1.32 10 2 C8.7934375 2.4640625 8.7934375 2.4640625 7.5625 2.9375 C5.10919595 3.76335345 5.10919595 3.76335345 4 5 C3.76572222 7.01594582 3.58663876 9.038474 3.4375 11.0625 C3.31181641 12.71958984 3.31181641 12.71958984 3.18359375 14.41015625 C3.12300781 15.26480469 3.06242187 16.11945313 3 17 C2.01 17 1.02 17 0 17 C0 11.39 0 5.78 0 0 Z " fill="#7A7E80" transform="translate(315,134)"/>
<path d="M0 0 C0.66 0 1.32 0 2 0 C2 0.66 2 1.32 2 2 C2.66 2 3.32 2 4 2 C4 1.34 4 0.68 4 0 C5.65 0 7.3 0 9 0 C9 0.66 9 1.32 9 2 C8.360625 2.12375 7.72125 2.2475 7.0625 2.375 C6.381875 2.58125 5.70125 2.7875 5 3 C3.64908472 5.70183055 3.66141942 8.11808206 3.4375 11.125 C3.35371094 12.22070312 3.26992188 13.31640625 3.18359375 14.4453125 C3.12300781 15.28835937 3.06242187 16.13140625 3 17 C2.01 17 1.02 17 0 17 C0 11.39 0 5.78 0 0 Z " fill="#767A7D" transform="translate(443,134)"/>
<path d="M0 0 C0.86625 0.37125 0.86625 0.37125 1.75 0.75 C0.904375 1.4925 0.05875 2.235 -0.8125 3 C-3.45208037 5.38740856 -3.45208037 5.38740856 -3.3125 7.75 C-1.93105036 10.35037579 -0.10760009 12.47294182 1.75 14.75 C1.75 15.41 1.75 16.07 1.75 16.75 C-0.66345489 16.35723218 -1.98045526 16.00776515 -3.76953125 14.296875 C-7.23293763 9.48368184 -7.23293763 9.48368184 -7.3125 6.0625 C-5.7301107 2.61847623 -4.12814805 -0.45868312 0 0 Z " fill="#75797B" transform="translate(640.25,134.25)"/>
<path d="M0 0 C0.66 0.33 1.32 0.66 2 1 C1.67 1.99 1.34 2.98 1 4 C0.90752619 5.47686111 0.87000929 6.95775501 0.875 8.4375 C0.87242188 9.19933594 0.86984375 9.96117187 0.8671875 10.74609375 C0.99723985 12.95315859 1.39143801 14.87969276 2 17 C-0.36810318 16.05275873 -1.75207953 15.34708866 -3.25 13.25 C-4.24517055 10.26448836 -4.38368557 8.13343215 -4 5 C-2 2.125 -2 2.125 0 0 Z " fill="#7F8385" transform="translate(58,134)"/>
<path d="M0 0 C1.65 0 3.3 0 5 0 C5 7.59 5 15.18 5 23 C4.34 23 3.68 23 3 23 C3 16.4 3 9.8 3 3 C2.01 3 1.02 3 0 3 C0 2.01 0 1.02 0 0 Z " fill="#6C7173" transform="translate(587,128)"/>
<path d="M0 0 C0.98120464 3.05263664 0.98120464 4.94736336 0 8 C2.31 8 4.62 8 7 8 C7 8.33 7 8.66 7 9 C4.36 9.33 1.72 9.66 -1 10 C-1.66 11.98 -2.32 13.96 -3 16 C-3.99 16 -4.98 16 -6 16 C-3.67123288 3.67123288 -3.67123288 3.67123288 0 0 Z " fill="#74787A" transform="translate(259,135)"/>
<path d="M0 0 C1.1725131 0.95117134 2.33787015 1.91117009 3.5 2.875 C4.47453125 3.67550781 4.47453125 3.67550781 5.46875 4.4921875 C6.22671875 5.23855469 6.22671875 5.23855469 7 6 C7 6.66 7 7.32 7 8 C3.625 8.625 3.625 8.625 0 9 C-2 7 -2 7 -2.25 4.5 C-2 2 -2 2 0 0 Z " fill="#F4F6F6" transform="translate(226,140)"/>
<path d="M0 0 C0.33 0.66 0.66 1.32 1 2 C0.52949219 2.96035156 0.05898438 3.92070313 -0.42578125 4.91015625 C-2.7214904 9.94974087 -2.32546469 15.00027601 -2.1875 20.4375 C-2.17396484 21.45521484 -2.16042969 22.47292969 -2.14648438 23.52148438 C-2.1113661 26.01488214 -2.06218559 28.50715512 -2 31 C-6.03588411 24.94617383 -5.61565241 18.08000267 -5 11 C-2.6344086 2.6344086 -2.6344086 2.6344086 0 0 Z " fill="#3982AF" transform="translate(256,63)"/>
<path d="M0 0 C0.99 0 1.98 0 3 0 C3 5.61 3 11.22 3 17 C2.01 17 1.02 17 0 17 C0 11.39 0 5.78 0 0 Z " fill="#7E8285" transform="translate(512,134)"/>
<path d="M0 0 C0.99 0 1.98 0 3 0 C3 5.61 3 11.22 3 17 C2.01 17 1.02 17 0 17 C0 11.39 0 5.78 0 0 Z " fill="#787C7E" transform="translate(133,134)"/>
<path d="M0 0 C0.66 0 1.32 0 2 0 C2 0.99 2 1.98 2 3 C2.66 3 3.32 3 4 3 C3.67 7.62 3.34 12.24 3 17 C2.01 17 1.02 17 0 17 C0 11.39 0 5.78 0 0 Z " fill="#717476" transform="translate(75,134)"/>
<path d="M0 0 C3.36338044 3.36338044 4 6.28835716 4 11 C1.69 11 -0.62 11 -3 11 C-2.32829194 7.1936543 -1.27253436 3.64793184 0 0 Z " fill="#F2F3F4" transform="translate(262,131)"/>
<path d="M0 0 C1.32 0.33 2.64 0.66 4 1 C4 7.6 4 14.2 4 21 C3.67 21 3.34 21 3 21 C2.67 15.72 2.34 10.44 2 5 C1.34 6.65 0.68 8.3 0 10 C-0.99 9.67 -1.98 9.34 -3 9 C-2.01 6.03 -1.02 3.06 0 0 Z " fill="#929698" transform="translate(586,130)"/>
<path d="M0 0 C0.33 0 0.66 0 1 0 C1 3.63 1 7.26 1 11 C-3.29 11 -7.58 11 -12 11 C-11.67 10.01 -11.34 9.02 -11 8 C-7.7 8.33 -4.4 8.66 -1 9 C-1.020625 7.700625 -1.04125 6.40125 -1.0625 5.0625 C-1.08399454 3.70834367 -1.07148199 2.35243917 -1 1 C-0.67 0.67 -0.34 0.34 0 0 Z " fill="#3E88B4" transform="translate(301,94)"/>
<path d="M0 0 C0 0.33 0 0.66 0 1 C-1.60875 1.12375 -1.60875 1.12375 -3.25 1.25 C-7.3316667 2.06633334 -8.69175187 2.58379277 -11 6 C-11.50042146 9.08461971 -11.50042146 9.08461971 -11 12 C-8.23776722 14.76223278 -5.79293383 14.57856291 -2 15 C-2 15.33 -2 15.66 -2 16 C-9.48291925 16.36801242 -9.48291925 16.36801242 -11.734375 14.765625 C-14.07814157 11.49592595 -13.59586287 7.83846546 -13 4 C-10.0569781 -1.24625643 -5.35967538 -0.41228272 0 0 Z " fill="#3683B1" transform="translate(423,30)"/>
<path d="M0 0 C0.94875 0.04125 1.8975 0.0825 2.875 0.125 C2.545 1.775 2.215 3.425 1.875 5.125 C-0.105 5.455 -2.085 5.785 -4.125 6.125 C-4.75 4.25 -4.75 4.25 -5.125 2.125 C-3.125 0.125 -3.125 0.125 0 0 Z " fill="#E9EBEC" transform="translate(605.125,142.875)"/>
<path d="M0 0 C0.94875 0.04125 1.8975 0.0825 2.875 0.125 C2.545 1.775 2.215 3.425 1.875 5.125 C-0.105 5.455 -2.085 5.785 -4.125 6.125 C-4.75 4.25 -4.75 4.25 -5.125 2.125 C-3.125 0.125 -3.125 0.125 0 0 Z " fill="#E9EBEB" transform="translate(370.125,142.875)"/>
<path d="M0 0 C0.94875 0.04125 1.8975 0.0825 2.875 0.125 C2.545 1.775 2.215 3.425 1.875 5.125 C-0.105 5.455 -2.085 5.785 -4.125 6.125 C-4.75 4.25 -4.75 4.25 -5.125 2.125 C-3.125 0.125 -3.125 0.125 0 0 Z " fill="#E9EBEC" transform="translate(148.125,142.875)"/>
<path d="M0 0 C2.5625 0.1875 2.5625 0.1875 4.5625 2.1875 C4.5625 3.1775 4.5625 4.1675 4.5625 5.1875 C1.5925 5.1875 -1.3775 5.1875 -4.4375 5.1875 C-3.20220588 0.24632353 -3.20220588 0.24632353 0 0 Z " fill="#EDEFEF" transform="translate(651.4375,135.8125)"/>
<path d="M0 0 C-0.33 1.65 -0.66 3.3 -1 5 C-1.99 5.33 -2.98 5.66 -4 6 C-4 5.34 -4 4.68 -4 4 C-5.32 4 -6.64 4 -8 4 C-8 2.68 -8 1.36 -8 0 C-4.71303767 -0.79953138 -3.28976808 -1.09658936 0 0 Z " fill="#AEB0B2" transform="translate(666,22)"/>
<path d="M0 0 C1.67542976 0.28604898 3.34385343 0.61781233 5 1 C4.67 2.65 4.34 4.3 4 6 C2.0625 6.5625 2.0625 6.5625 0 7 C-1 6 -1 6 -1.125 3.5 C-1 1 -1 1 0 0 Z " fill="#F5F6F6" transform="translate(227,129)"/>
<path d="M0 0 C0.78375 0.04125 1.5675 0.0825 2.375 0.125 C2.045 1.775 1.715 3.425 1.375 5.125 C-0.275 5.455 -1.925 5.785 -3.625 6.125 C-4.25 4.25 -4.25 4.25 -4.625 2.125 C-2.625 0.125 -2.625 0.125 0 0 Z " fill="#F5F6F7" transform="translate(527.625,142.875)"/>
<path d="M0 0 C0.99 0.33 1.98 0.66 3 1 C2.36191406 1.61488281 1.72382812 2.22976562 1.06640625 2.86328125 C-0.17302734 4.07564453 -0.17302734 4.07564453 -1.4375 5.3125 C-2.26121094 6.11300781 -3.08492187 6.91351563 -3.93359375 7.73828125 C-6.19403477 9.90470808 -6.19403477 9.90470808 -7 13 C-7.66 13 -8.32 13 -9 13 C-7.71706845 7.98490396 -5.82781946 5.44503751 -2 2 C-1.34 1.34 -0.68 0.68 0 0 Z " fill="#2E81B3" transform="translate(572,56)"/>
<path d="M0 0 C1.67542976 0.28604898 3.34385343 0.61781233 5 1 C5.33 2.32 5.66 3.64 6 5 C3.36 5 0.72 5 -2 5 C-1.125 1.125 -1.125 1.125 0 0 Z " fill="#F6F7F8" transform="translate(199,136)"/>
<path d="M0 0 C0.66 2.97 1.32 5.94 2 9 C1.01 9.495 1.01 9.495 0 10 C-2 8.25 -2 8.25 -4 6 C-4 4.68 -4 3.36 -4 2 C-1 0 -1 0 0 0 Z " fill="#7F8385" transform="translate(224,141)"/>
<path d="M0 0 C1.4540625 0.0309375 1.4540625 0.0309375 2.9375 0.0625 C3.2675 1.0525 3.5975 2.0425 3.9375 3.0625 C2.266875 3.18625 2.266875 3.18625 0.5625 3.3125 C-3.12003944 3.64123787 -3.12003944 3.64123787 -4.5 6.125 C-4.685625 6.764375 -4.87125 7.40375 -5.0625 8.0625 C-4.046875 0.08258929 -4.046875 0.08258929 0 0 Z " fill="#909395" transform="translate(418.0625,125.9375)"/>
<path d="M0 0 C2.97 0 5.94 0 9 0 C9.33 1.32 9.66 2.64 10 4 C8.1128125 3.7525 8.1128125 3.7525 6.1875 3.5 C3.73543415 3.17841759 1.48349306 3 -1 3 C-0.67 2.01 -0.34 1.02 0 0 Z " fill="#75787B" transform="translate(142,134)"/>
<path d="M0 0 C1.32 0.33 2.64 0.66 4 1 C2.02 3.31 0.04 5.62 -2 8 C-2.66 6.68 -3.32 5.36 -4 4 C-2.25 1.9375 -2.25 1.9375 0 0 Z " fill="#7C7F82" transform="translate(638,134)"/>
<path d="M0 0 C0.99 0 1.98 0 3 0 C3 0.66 3 1.32 3 2 C3.66 2 4.32 2 5 2 C6.625 4.5 6.625 4.5 8 7 C4 7 4 7 2.515625 5.6875 C1.34375 4.125 0.171875 2.5625 -1 1 C-0.67 0.67 -0.34 0.34 0 0 Z " fill="#7A7E80" transform="translate(659,26)"/>
<path d="M0 0 C0.3403125 0.928125 0.3403125 0.928125 0.6875 1.875 C2.37929835 4.61410209 3.99244161 5.05024472 7 6 C7 6.33 7 6.66 7 7 C1.25 7.125 1.25 7.125 -1 6 C-1.042721 4.33388095 -1.04063832 2.66617115 -1 1 C-0.67 0.67 -0.34 0.34 0 0 Z " fill="#707476" transform="translate(142,144)"/>
<path d="M0 0 C0.2475 0.639375 0.495 1.27875 0.75 1.9375 C1.81562433 4.18741541 1.81562433 4.18741541 4.125 4.75 C4.74375 4.8325 5.3625 4.915 6 5 C6 5.66 6 6.32 6 7 C3.69 6.67 1.38 6.34 -1 6 C-1.042721 4.33388095 -1.04063832 2.66617115 -1 1 C-0.67 0.67 -0.34 0.34 0 0 Z " fill="#6E7375" transform="translate(599,144)"/>
<path d="M0 0 C0.2475 0.639375 0.495 1.27875 0.75 1.9375 C1.81562433 4.18741541 1.81562433 4.18741541 4.125 4.75 C4.74375 4.8325 5.3625 4.915 6 5 C6 5.66 6 6.32 6 7 C3.69 6.67 1.38 6.34 -1 6 C-1.042721 4.33388095 -1.04063832 2.66617115 -1 1 C-0.67 0.67 -0.34 0.34 0 0 Z " fill="#6F7375" transform="translate(364,144)"/>
<path d="M0 0 C2.66666667 0 5.33333333 0 8 0 C8 0.99 8 1.98 8 3 C2.25 4.125 2.25 4.125 0 3 C0 2.01 0 1.02 0 0 Z " fill="#85898B" transform="translate(618,134)"/>
<path d="M0 0 C0 0.99 0 1.98 0 3 C-0.66 3.66 -1.32 4.32 -2 5 C-1.67 5.99 -1.34 6.98 -1 8 C-3.31 7.34 -5.62 6.68 -8 6 C-7.01 5.34 -6.02 4.68 -5 4 C-3.32576317 2.67618483 -1.65788785 1.34423339 0 0 Z " fill="#D6F2FB" transform="translate(79,61)"/>
<path d="M0 0 C-0.33 1.32 -0.66 2.64 -1 4 C-2.32 4.33 -3.64 4.66 -5 5 C-5 4.34 -5 3.68 -5 3 C-6.32 2.67 -7.64 2.34 -9 2 C-2.25 0 -2.25 0 0 0 Z " fill="#909396" transform="translate(52,146)"/>
<path d="M0 0 C0.98484375 0.02707031 1.9696875 0.05414063 2.984375 0.08203125 C3.73203125 0.11683594 4.4796875 0.15164062 5.25 0.1875 C5.25 0.5175 5.25 0.8475 5.25 1.1875 C4.20199219 1.26097656 4.20199219 1.26097656 3.1328125 1.3359375 C2.22273438 1.41070312 1.31265625 1.48546875 0.375 1.5625 C-0.52992187 1.63210937 -1.43484375 1.70171875 -2.3671875 1.7734375 C-4.92941903 1.98318132 -4.92941903 1.98318132 -6.75 4.1875 C-7.74 3.8575 -8.73 3.5275 -9.75 3.1875 C-6.47698081 0.21840402 -4.36934238 -0.15604794 0 0 Z " fill="#DCF4FB" transform="translate(121.75,65.8125)"/>
<path d="M0 0 C0.33 0.66 0.66 1.32 1 2 C0.22265625 4.1640625 0.22265625 4.1640625 -0.9375 6.625 C-1.31777344 7.44226563 -1.69804687 8.25953125 -2.08984375 9.1015625 C-2.39019531 9.72804688 -2.69054687 10.35453125 -3 11 C-3.83583327 8.62392051 -4.1842383 7.45550373 -3.22265625 5.078125 C-1.61132812 2.5390625 -1.61132812 2.5390625 0 0 Z " fill="#418AB6" transform="translate(256,63)"/>
<path d="M0 0 C1.65 0 3.3 0 5 0 C5 0.99 5 1.98 5 3 C6.32 3.33 7.64 3.66 9 4 C7.35 4.66 5.7 5.32 4 6 C4 4.35 4 2.7 4 1 C2.68 0.67 1.36 0.34 0 0 Z " fill="#CEEDF9" transform="translate(632,52)"/>
<path d="M0 0 C0.66 0.33 1.32 0.66 2 1 C1.34 2.32 0.68 3.64 0 5 C-0.66 5 -1.32 5 -2 5 C-2.66 5.99 -3.32 6.98 -4 8 C-3.50168276 4.31245243 -2.89932357 2.39509338 0 0 Z " fill="#7D8184" transform="translate(426,134)"/>
</svg>
