<svg width="1440" height="222" viewBox="0 0 1440 222" fill="none" xmlns="http://www.w3.org/2000/svg">
<path d="M569.024 208.505L559.438 218.998" stroke="#3098DE" stroke-width="5" stroke-linecap="round" stroke-linejoin="round"/>
<path d="M569.024 208.505L557.804 199.781" stroke="#3098DE" stroke-width="5" stroke-linecap="round" stroke-linejoin="round"/>
<path d="M290.939 27.0665L277.39 31.3605" stroke="#3098DE" stroke-width="5" stroke-linecap="round" stroke-linejoin="round"/>
<path d="M290.939 27.0666L285.583 13.9014" stroke="#3098DE" stroke-width="5" stroke-linecap="round" stroke-linejoin="round"/>
<path d="M-36 206.587C-36 206.587 175.064 10.5849 266.091 19.8085C357.119 29.0322 516.167 233.337 578.185 206.587C640.204 179.838 823.759 -34.6115 898.782 19.8085C973.805 74.2286 1065.25 215.805 1209.88 206.587C1340.94 198.234 1478.46 19.8085 1478.46 19.8085L1621 159.086" stroke="#3098DE" stroke-width="3" stroke-dasharray="6 6"/>
<path d="M863.016 11.414L853.614 22.0727" stroke="#3098DE" stroke-width="5" stroke-linecap="round" stroke-linejoin="round"/>
<path d="M863.015 11.4139L851.645 2.88721" stroke="#3098DE" stroke-width="5" stroke-linecap="round" stroke-linejoin="round"/>
<path d="M1140.01 201.093L1126.71 206.09" stroke="#3098DE" stroke-width="5" stroke-linecap="round" stroke-linejoin="round"/>
<path d="M1140.01 201.093L1133.98 188.226" stroke="#3098DE" stroke-width="5" stroke-linecap="round" stroke-linejoin="round"/>
</svg>
