<?xml version="1.0" encoding="UTF-8"?>
<svg version="1.1" xmlns="http://www.w3.org/2000/svg" width="512" height="512">
<path d="M0 0 C1.2242101 -0.00644889 2.44842021 -0.01289778 3.70972759 -0.0195421 C5.06509238 -0.01659993 6.42045678 -0.0134645 7.77582073 -0.01015663 C9.21811702 -0.01389335 10.66041128 -0.01849496 12.10270232 -0.02388728 C16.06653471 -0.03613002 20.03028279 -0.03585531 23.99412978 -0.03349853 C28.2689584 -0.03309068 32.54375986 -0.04412642 36.81857586 -0.05361366 C45.19399785 -0.07023163 53.56939169 -0.07572357 61.94482879 -0.07683842 C68.75242596 -0.07778852 75.56001384 -0.08189691 82.36760807 -0.08823967 C101.66568168 -0.10585428 120.96373304 -0.1150782 140.26181475 -0.11357872 C141.82259422 -0.11345885 141.82259422 -0.11345885 143.41490459 -0.11333656 C144.45669377 -0.1132548 145.49848295 -0.11317304 146.5718415 -0.1130888 C163.45672454 -0.11227585 180.34151838 -0.13141535 197.22637562 -0.1596133 C214.56096913 -0.18833402 231.89551913 -0.20215404 249.23013705 -0.20042574 C258.96327651 -0.19976156 268.69632246 -0.20526627 278.4294405 -0.22678185 C286.71633837 -0.24498297 295.00310035 -0.24934978 303.29000954 -0.235763 C307.51786183 -0.22922792 311.74545334 -0.22913548 315.97328091 -0.2464695 C319.84536139 -0.26218163 323.71697392 -0.25935592 327.58904286 -0.24190123 C328.98808644 -0.23882721 330.38716478 -0.24247899 331.78616736 -0.25362138 C340.75971845 -0.32034508 347.2068317 0.10866166 354.18321514 6.22211266 C354.72204327 6.87308922 355.26087139 7.52406578 355.81602764 8.19476891 C356.37032452 8.84316734 356.92462139 9.49156578 357.49571514 10.15961266 C360.46065993 14.46278928 361.19081987 18.17345973 361.1871233 23.35420513 C361.1911054 24.58683222 361.19508749 25.81945931 361.19919026 27.08943874 C361.19348456 28.45424621 361.18759337 29.81905291 361.18153667 31.18385887 C361.18240885 32.63597984 361.18416005 34.0881005 361.18671501 35.54021949 C361.19119017 39.53091542 361.18318253 43.52150414 361.17315888 47.51218641 C361.16452914 51.81547886 361.16744421 56.11876516 361.16896343 60.42206383 C361.17001258 67.87795318 361.16373282 75.33380756 361.15248775 82.78968811 C361.13623982 93.56966067 361.13102547 104.3496163 361.12851177 115.12959977 C361.12413356 132.61902446 361.11082103 150.10843051 361.09190655 167.59784508 C361.07355102 184.5880785 361.05939291 201.57830686 361.05089092 218.5685482 C361.05036548 219.61567003 361.04984003 220.66279186 361.04929866 221.74164466 C361.0466886 226.99470046 361.04416118 232.24775631 361.04167485 237.50081217 C361.02093842 281.08631132 360.98515937 324.67178769 360.94102764 368.25726891 C376.78102764 368.25726891 392.62102764 368.25726891 408.94102764 368.25726891 C409.02352764 373.47539391 409.10602764 378.69351891 409.19102764 384.06976891 C409.22744366 385.69245689 409.26385967 387.31514488 409.3013792 388.98700523 C409.39939526 401.86426017 407.02724363 411.73923276 397.94102764 421.25726891 C388.53476662 430.23678084 379.10852406 432.70832625 366.42735577 432.46210289 C364.59811789 432.40758231 362.76945018 432.33443562 360.94102764 432.25726891 C360.96197491 433.15445641 360.98292217 434.05164391 361.0045042 434.97601891 C361.0731038 438.33826749 361.12303058 441.69976125 361.1607542 445.06244469 C361.1807406 446.51145808 361.20793961 447.96039216 361.24278545 449.40912437 C361.46323269 458.81703417 361.51956507 466.03245681 354.97618389 473.49945641 C354.32520733 474.03828453 353.67423077 474.57711266 353.00352764 475.13226891 C352.3551292 475.68656578 351.70673077 476.24086266 351.03868389 476.81195641 C346.75196922 479.76555869 343.0430261 480.50765876 337.88205528 480.51453781 C336.04574013 480.52421115 336.04574013 480.52421115 334.1723277 480.53407991 C332.8169629 480.53113774 331.46159851 480.52800232 330.10623455 480.52469444 C328.66393827 480.52843117 327.22164401 480.53303278 325.77935296 480.53842509 C321.81552057 480.55066783 317.8517725 480.55039313 313.88792551 480.54803634 C309.61309689 480.54762849 305.33829542 480.55866423 301.06347942 480.56815147 C292.68805743 480.58476945 284.31266359 480.59026138 275.9372265 480.59137623 C269.12962932 480.59232633 262.32204145 480.59643472 255.51444721 480.60277748 C236.2163736 480.62039209 216.91832224 480.62961601 197.62024053 480.62811653 C196.05946106 480.62799666 196.05946106 480.62799666 194.46715069 480.62787437 C193.42536151 480.62779261 192.38357233 480.62771085 191.31021378 480.62762661 C174.42533074 480.62681366 157.5405369 480.64595316 140.65567967 480.67415111 C123.32108615 480.70287184 105.98653615 480.71669185 88.65191823 480.71496356 C78.91877878 480.71429937 69.18573282 480.71980408 59.45261478 480.74131966 C51.16571692 480.75952078 42.87895494 480.76388759 34.59204575 480.75030081 C30.36419346 480.74376573 26.13660194 480.7436733 21.90877438 480.76100731 C18.03669389 480.77671944 14.16508136 480.77389373 10.29301242 480.75643905 C8.89396884 480.75336502 7.4948905 480.7570168 6.09588792 480.7681592 C-2.87766317 480.8348829 -9.32477642 480.40587615 -16.30115986 474.29242516 C-16.83998798 473.64144859 -17.37881611 472.99047203 -17.93397236 472.31976891 C-18.48826923 471.67137047 -19.04256611 471.02297203 -19.61365986 470.35492516 C-22.86796163 465.63178988 -23.34923188 461.31793084 -23.31624126 455.69902897 C-23.32150038 454.5644483 -23.32150038 454.5644483 -23.32686573 453.40694681 C-23.33619449 450.86387318 -23.33125263 448.32102781 -23.3263979 445.77794456 C-23.33013341 443.93966797 -23.33473454 442.10139295 -23.34012854 440.26312047 C-23.35238614 435.20474206 -23.35209483 430.14642964 -23.34973979 425.08803976 C-23.34933232 419.63528886 -23.36036407 414.18255933 -23.36985493 408.72981834 C-23.38648096 398.04430437 -23.3919652 387.35881246 -23.39307968 376.67328664 C-23.39402939 367.98925983 -23.39813578 359.30524032 -23.40448093 350.62121582 C-23.42209761 326.0107408 -23.43133126 301.40028222 -23.42981999 276.78980096 C-23.4297801 276.12641115 -23.42974021 275.46302134 -23.42969911 274.7795288 C-23.42961823 273.43799269 -23.42953464 272.09645658 -23.42944832 270.75492048 C-23.4282228 249.88254717 -23.44323584 229.01023885 -23.47059345 208.13788414 C-23.50131366 184.69035938 -23.51850065 161.24287024 -23.51666701 137.79532319 C-23.51600248 125.37940699 -23.52152242 112.96356407 -23.54302311 100.54766464 C-23.56121067 89.9770729 -23.56560217 79.40658765 -23.55200426 68.83598705 C-23.54546242 63.44160185 -23.54540133 58.0474211 -23.56271076 52.65305519 C-23.57839265 47.71516542 -23.57562782 42.77764304 -23.5581425 37.83976249 C-23.55506183 36.05310417 -23.55874499 34.26641876 -23.56986265 32.47979238 C-23.67419944 14.52394951 -23.67419944 14.52394951 -17.09412861 7.01508141 C-16.44315205 6.47625328 -15.79217548 5.93742516 -15.12147236 5.38226891 C-14.47307392 4.82797203 -13.82467548 4.27367516 -13.15662861 3.70258141 C-8.86991394 0.74897912 -5.16097081 0.00687905 0 0 Z M-5.05897236 19.25726891 C-7.25474345 22.95883865 -7.30941492 26.35230362 -7.31065464 30.59456062 C-7.31587013 31.88085515 -7.32108563 33.16714967 -7.32645917 34.49242282 C-7.32213513 35.91784327 -7.31762182 37.34326316 -7.31293964 38.76868248 C-7.31524394 40.28451158 -7.31842025 41.80033957 -7.32239413 43.31616521 C-7.33075544 47.48330243 -7.32661076 51.65034823 -7.3204217 55.81748581 C-7.31590352 60.3111426 -7.32287792 64.80478347 -7.32838154 69.29843712 C-7.33728483 78.10333308 -7.33534911 86.90819499 -7.32955626 95.7130923 C-7.32504231 102.87012669 -7.32442571 110.02715153 -7.32660389 117.18418694 C-7.32691036 118.20224392 -7.32721682 119.2203009 -7.32753257 120.26920809 C-7.32817202 122.33732484 -7.32882045 124.40544159 -7.32947776 126.47355834 C-7.33518409 145.87768301 -7.32861901 165.2817888 -7.31787702 184.68591037 C-7.30894662 201.3327529 -7.31048876 217.97956752 -7.31971455 234.62640953 C-7.33042109 253.95417657 -7.33462907 273.28192704 -7.32849002 292.60969663 C-7.32785292 294.67149369 -7.32722418 296.73329075 -7.32660389 298.79508781 C-7.32629534 299.80953904 -7.32598679 300.82399028 -7.32566889 301.86918245 C-7.3239427 309.01493405 -7.32685552 316.16067513 -7.331563 323.30642509 C-7.33717633 332.01889867 -7.33564606 340.73133621 -7.32500151 349.44380566 C-7.31975008 353.88841037 -7.31767899 358.33295504 -7.32429981 362.77755928 C-7.33027263 366.84880312 -7.32696216 370.91993143 -7.31634471 374.99116483 C-7.31411626 376.46155493 -7.31523447 377.93195485 -7.32009628 379.40233859 C-7.40762496 395.4385056 -7.40762496 395.4385056 -0.05897236 409.25726891 C7.18538273 414.95936871 13.83944098 416.05626315 22.94102764 415.25726891 C29.67146464 413.47834869 33.96736491 408.76520697 37.94102764 403.25726891 C43.32052647 392.98731659 40.94102764 378.56810395 40.94102764 368.25726891 C141.26102764 368.25726891 241.58102764 368.25726891 344.94102764 368.25726891 C345.02841123 307.26313449 345.02841123 307.26313449 345.08751202 246.26898766 C345.0933858 238.05072576 345.09944729 229.83246403 345.10582256 221.6142025 C345.10661381 220.58415136 345.10740506 219.55410022 345.10822028 218.4928354 C345.12127468 201.85491556 345.14492971 185.21702676 345.17248603 168.57912533 C345.20052259 151.50913097 345.2172002 134.43915289 345.22329313 117.36913645 C345.2274132 106.83269808 345.24043465 96.29634743 345.26477704 85.75993605 C345.28061263 78.53857058 345.28543294 71.31725057 345.28153177 64.09586899 C345.27960683 59.92706694 345.28259539 55.75841837 345.29864407 51.58964348 C345.31322747 47.77367577 345.31399025 43.95796495 345.30372433 40.14198549 C345.30245526 38.76099442 345.30627414 37.37998741 345.31567719 35.99902777 C345.32771535 34.12203334 345.31943516 32.24494154 345.31017113 30.36793137 C345.31131029 29.32521934 345.31244945 28.28250731 345.31362313 27.20819795 C344.85972425 23.61335198 343.92067035 21.2919391 341.94102764 18.25726891 C338.36848781 16.16633452 335.18047998 16.00628024 331.09511185 16.00279331 C329.3300979 15.99404502 329.3300979 15.99404502 327.52942711 15.98512 C326.24072541 15.98889932 324.95202371 15.99267865 323.62427044 15.99657249 C322.2382963 15.99355173 320.85232383 15.98966262 319.46635431 15.98497993 C315.65827724 15.97468154 311.85029411 15.97688641 308.04220927 15.98116052 C303.93511251 15.9836244 299.82803857 15.97461782 295.72095013 15.96712303 C287.67506271 15.95436476 279.62920865 15.95258373 271.58331282 15.95492329 C265.04457751 15.95670529 258.50585235 15.95495937 251.96711826 15.95069885 C250.57195088 15.94980607 250.57195088 15.94980607 249.14859829 15.94889525 C247.25916835 15.94768352 245.36973841 15.94646938 243.48030847 15.94525287 C225.7558932 15.93437307 208.03149696 15.93654196 190.30708062 15.94263772 C174.08691304 15.94780777 157.86680549 15.9365499 141.64664979 15.9175395 C124.99685412 15.89817494 108.34708688 15.88990264 91.69727987 15.89366275 C82.34763707 15.89557683 72.99804538 15.89306707 63.64841175 15.87894821 C55.68938736 15.86705107 47.73044556 15.86561078 39.77142007 15.87773838 C35.70992889 15.8836387 31.64858888 15.88469478 27.58710766 15.87273598 C23.86939647 15.86191649 20.15196339 15.86493329 16.43426543 15.87899766 C14.45162863 15.882915 12.46897967 15.87206546 10.48637158 15.86070079 C9.30708787 15.86790733 8.12780416 15.87511387 6.91278458 15.8825388 C5.89708501 15.88248378 4.88138545 15.88242876 3.83490711 15.88237208 C0.27235623 16.34389407 -2.04737877 17.29926029 -5.05897236 19.25726891 Z M56.94102764 384.25726891 C56.61102764 389.86726891 56.28102764 395.47726891 55.94102764 401.25726891 C54.28965048 406.63756223 52.44197435 411.2769185 49.94102764 416.25726891 C90.42654061 416.30305122 130.91205021 416.3382906 171.3975839 416.35939956 C176.17777157 416.36190096 180.95795919 416.36448961 185.73814678 416.36713219 C186.6897921 416.36765681 187.64143742 416.36818143 188.62192047 416.36872195 C204.02881412 416.37742346 219.43569284 416.39319205 234.84257763 416.4115745 C250.65262365 416.43028058 266.46266185 416.44138713 282.27271849 416.4454459 C292.02757242 416.44818948 301.78238414 416.45685353 311.53722508 416.47310184 C318.22738095 416.48367745 324.91751502 416.48686822 331.60767864 416.48427166 C335.46695536 416.48299127 339.32615835 416.48494783 343.18542194 416.49567986 C347.37308384 416.50723983 351.56058911 416.50323918 355.74826336 416.49777794 C356.96326029 416.50360362 358.17825723 416.5094293 359.43007225 416.51543152 C368.49718495 416.48345438 376.68862889 416.22035232 383.94102764 410.25726891 C391.86767698 402.27359331 392.94102764 395.48944527 392.94102764 384.25726891 C282.06102764 384.25726891 171.18102764 384.25726891 56.94102764 384.25726891 Z M-7.05897236 425.25726891 C-7.133486 429.56224661 -7.18774459 433.86687624 -7.22376728 438.17230797 C-7.23879432 439.63493965 -7.25922191 441.09752673 -7.28529072 442.56000328 C-7.32194503 444.67014171 -7.33875912 446.77968117 -7.35194111 448.89008141 C-7.36765156 450.15739098 -7.38336201 451.42470055 -7.39954853 452.73041344 C-7.02045789 456.65610761 -6.2596389 458.989059 -4.05897236 462.25726891 C-0.37260862 464.14515465 2.67850533 464.50823788 6.78694344 464.5117445 C8.55195738 464.52049279 8.55195738 464.52049279 10.35262817 464.52941781 C11.64132987 464.52563849 12.93003157 464.52185917 14.25778484 464.51796532 C15.64375898 464.52098608 17.02973145 464.52487519 18.41570097 464.52955788 C22.22377805 464.53985627 26.03176117 464.5376514 29.83984601 464.53337729 C33.94694277 464.53091341 38.05401672 464.53991999 42.16110516 464.54741478 C50.20699257 464.56017305 58.25284664 464.56195408 66.29874247 464.55961452 C72.83747777 464.55783253 79.37620293 464.55957844 85.91493702 464.56383896 C86.84504861 464.56443415 87.7751602 464.56502934 88.73345699 464.56564256 C90.62288693 464.56685429 92.51231688 464.56806843 94.40174682 464.56928494 C112.12616208 464.58016474 129.85055833 464.57799585 147.57497466 464.57190009 C163.79514225 464.56673004 180.01524979 464.57798791 196.2354055 464.59699831 C212.88520116 464.61636287 229.53496841 464.62463517 246.18477541 464.62087506 C255.53441821 464.61896098 264.8840099 464.62147075 274.23364353 464.6355896 C282.19266792 464.64748674 290.15160973 464.64892703 298.11063521 464.63679943 C302.17212639 464.63089911 306.2334664 464.62984304 310.29494762 464.64180183 C314.01265881 464.65262132 317.73009189 464.64960452 321.44778986 464.63554015 C323.43042665 464.63162281 325.41307561 464.64247236 327.39568371 464.65383703 C328.57496742 464.64663048 329.75425113 464.63942394 330.96927071 464.63199902 C331.98497027 464.63205403 333.00066983 464.63210905 334.04714817 464.63216573 C337.60969905 464.17064374 339.92943406 463.21527752 342.94102764 461.25726891 C345.02018239 457.70423108 345.17978679 454.58124887 345.13634014 450.51898766 C345.12989483 449.45228844 345.12344952 448.38558922 345.11680889 447.28656578 C345.10005108 446.18377281 345.08329327 445.08097984 345.06602764 443.94476891 C345.05249249 442.26157555 345.05249249 442.26157555 345.03868389 440.54437828 C345.0151725 437.78178981 344.98230919 435.01963959 344.94102764 432.25726891 C343.87767036 432.25637327 343.87767036 432.25637327 342.79283112 432.25545955 C300.76428152 432.21955468 258.73580439 432.16289893 216.70732118 432.07934795 C211.65932844 432.06933067 206.61133538 432.05948651 201.56334209 432.04974937 C200.05591445 432.04683731 200.05591445 432.04683731 198.51803372 432.04386643 C182.25245441 432.0128572 165.9868892 431.99586878 149.7212859 431.98407468 C133.02751938 431.97165755 116.33382681 431.94414343 99.64010698 431.90265584 C89.34168919 431.87753658 79.04339406 431.86415048 68.74494521 431.86583933 C61.68001336 431.86586912 54.61520634 431.85121597 47.55032315 431.82510462 C43.47607126 431.81047731 39.40207532 431.80223967 35.3278017 431.81146622 C31.59225947 431.81978229 27.85723043 431.80951925 24.1217641 431.78493229 C22.14160798 431.77660396 20.16139892 431.7877546 18.18126172 431.79976726 C8.71424589 431.7091384 1.31904716 429.55166418 -7.05897236 425.25726891 Z " fill="#0D629A" transform="translate(87.05897235870361,15.742731094360352)"/>
<path d="M0 0 C5.28 0 10.56 0 16 0 C16 5.61 16 11.22 16 17 C17.98 17.33 19.96 17.66 22 18 C30.64122461 22.16218985 36.19280228 28.8504679 39.41113281 37.76611328 C40.43959876 41.66763212 40.31475485 45.49310372 40.1875 49.5 C40.16719727 50.73363281 40.16719727 50.73363281 40.14648438 51.9921875 C40.11155016 53.99508221 40.05776057 55.99763356 40 58 C41.27738037 58.26280762 42.55476074 58.52561523 43.87084961 58.79638672 C49.05896899 59.95166493 54.03691024 61.55155315 59.06640625 63.2578125 C59.98590561 63.56572723 60.90540497 63.87364197 61.85276794 64.19088745 C64.75746244 65.16466707 67.65999365 66.14472001 70.5625 67.125 C72.54478164 67.79078226 74.52720227 68.45615086 76.50976562 69.12109375 C81.34146314 70.74261968 86.17123234 72.36977095 91 74 C89.67342876 79.24661977 88.28150164 84.37755684 86.27514648 89.41088867 C80.46235691 104.40516992 79.98475228 118.35930633 80.0625 134.3125 C80.04935473 136.81837775 80.03309697 139.32424118 80.01367188 141.83007812 C79.973349 147.88702363 79.97099602 153.9430096 80 160 C82.64 160 85.28 160 88 160 C88 175.84 88 191.68 88 208 C35.2 208 -17.6 208 -72 208 C-72 192.16 -72 176.32 -72 160 C-69.36 160 -66.72 160 -64 160 C-62.83483488 118.02620185 -62.83483488 118.02620185 -74.09790039 78.12402344 C-75 76 -75 76 -75 74 C-68.22110143 71.71505411 -61.43988025 69.43710883 -54.65698242 67.1640625 C-52.34882122 66.38964039 -50.04120061 65.61360512 -47.73413086 64.8359375 C-44.42181251 63.71972964 -41.10760631 62.60929889 -37.79296875 61.5 C-36.7585112 61.15001953 -35.72405365 60.80003906 -34.6582489 60.43945312 C-33.6974794 60.11912109 -32.7367099 59.79878906 -31.74682617 59.46875 C-30.90077316 59.18451172 -30.05472015 58.90027344 -29.18302917 58.60742188 C-27 58 -27 58 -24 58 C-24.04640625 56.81664062 -24.0928125 55.63328125 -24.140625 54.4140625 C-24.46149467 42.83948525 -24.01166597 33.41018865 -15.703125 24.53515625 C-10.66454642 19.9935017 -6.76735681 18.1278928 0 17 C0 11.39 0 5.78 0 0 Z M-5.3125 39.6875 C-7.41328886 43.81127072 -7.79674368 47.42673271 -8 52 C-7.28714844 51.79503906 -6.57429688 51.59007813 -5.83984375 51.37890625 C-2.90134317 50.55232937 0.04687072 49.77248068 3 49 C4.134375 48.690625 5.26875 48.38125 6.4375 48.0625 C11.19944758 47.97895706 14.99018717 49.44806175 19.42578125 51.08984375 C21.85920475 52.11111464 21.85920475 52.11111464 24 52 C23.73103369 45.94825803 23.09093541 41.75433035 19 37 C14.64938655 33.06373068 11.08222994 32.36116081 5.3984375 32.6171875 C0.44974671 33.40704368 -2.14748084 36.00923449 -5.3125 39.6875 Z M1.26513672 66.8359375 C0.06404266 67.23635254 -1.13705139 67.63676758 -2.37454224 68.04931641 C-3.68982041 68.49114717 -5.00507665 68.93304325 -6.3203125 69.375 C-7.66258157 69.82366619 -9.00493911 70.27206779 -10.34738159 70.72021484 C-13.88282732 71.90124388 -17.41705713 73.08587148 -20.9510498 74.27124023 C-24.55648594 75.4798681 -28.1630548 76.68510571 -31.76953125 77.890625 C-38.84747022 80.25709093 -45.9241287 82.62735781 -53 85 C-52.01 88.63 -51.02 92.26 -50 96 C-11.72 96 26.56 96 66 96 C66.99 92.37 67.98 88.74 69 85 C61.21268849 82.3888016 53.4243103 79.78082042 45.63453865 77.17697144 C42.01770598 75.96787736 38.40125487 74.75766676 34.78564453 73.54492188 C31.29819326 72.37520931 27.80978093 71.20840705 24.3206749 70.04364014 C22.98783393 69.59812538 21.65534623 69.15155237 20.32321548 68.70391846 C18.46136199 68.07848107 16.59814425 67.45710927 14.73486328 66.8359375 C13.67341095 66.48063965 12.61195862 66.1253418 11.51834106 65.75927734 C7.48179305 64.5422621 5.22128094 65.51170512 1.26513672 66.8359375 Z M-48 112 C-48 127.84 -48 143.68 -48 160 C-42.72 160 -37.44 160 -32 160 C-32 144.16 -32 128.32 -32 112 C-37.28 112 -42.56 112 -48 112 Z M-16 112 C-16 127.84 -16 143.68 -16 160 C-10.72 160 -5.44 160 0 160 C0 144.16 0 128.32 0 112 C-5.28 112 -10.56 112 -16 112 Z M16 112 C16 127.84 16 143.68 16 160 C21.28 160 26.56 160 32 160 C32 144.16 32 128.32 32 112 C26.72 112 21.44 112 16 112 Z M48 112 C48 127.84 48 143.68 48 160 C53.28 160 58.56 160 64 160 C64 144.16 64 128.32 64 112 C58.72 112 53.44 112 48 112 Z M-56 176 C-56 181.28 -56 186.56 -56 192 C-13.76 192 28.48 192 72 192 C72 186.72 72 181.44 72 176 C29.76 176 -12.48 176 -56 176 Z " fill="#0D629A" transform="translate(248,48)"/>
<path d="M0 0 C95.04 0 190.08 0 288 0 C288 5.28 288 10.56 288 16 C192.96 16 97.92 16 0 16 C0 10.72 0 5.44 0 0 Z " fill="#0D629A" transform="translate(128,352)"/>
<path d="M0 0 C95.04 0 190.08 0 288 0 C288 5.28 288 10.56 288 16 C192.96 16 97.92 16 0 16 C0 10.72 0 5.44 0 0 Z " fill="#0D629A" transform="translate(128,312)"/>
<path d="M0 0 C95.04 0 190.08 0 288 0 C288 5.28 288 10.56 288 16 C192.96 16 97.92 16 0 16 C0 10.72 0 5.44 0 0 Z " fill="#0D629A" transform="translate(128,272)"/>
<path d="M0 0 C5.28 0 10.56 0 16 0 C16 5.28 16 10.56 16 16 C10.72 16 5.44 16 0 16 C0 10.72 0 5.44 0 0 Z " fill="#0D629A" transform="translate(96,352)"/>
<path d="M0 0 C5.28 0 10.56 0 16 0 C16 5.28 16 10.56 16 16 C10.72 16 5.44 16 0 16 C0 10.72 0 5.44 0 0 Z " fill="#0D629A" transform="translate(96,312)"/>
<path d="M0 0 C5.28 0 10.56 0 16 0 C16 5.28 16 10.56 16 16 C10.72 16 5.44 16 0 16 C0 10.72 0 5.44 0 0 Z " fill="#0D629A" transform="translate(96,272)"/>
</svg>
