<?xml version="1.0" encoding="UTF-8"?>
<svg version="1.1" xmlns="http://www.w3.org/2000/svg" width="256" height="256">
<path d="M0 0 C1.28312073 -0.04906494 2.56624146 -0.09812988 3.88824463 -0.14868164 C5.32457241 -0.1977868 6.76091327 -0.24651032 8.19726562 -0.29489136 C8.93221001 -0.32115349 9.66715439 -0.34741562 10.42436981 -0.37447357 C25.03852145 -0.89620345 39.65656476 -1.20731149 54.277771 -1.44961739 C63.57851646 -1.60762535 72.86932382 -1.82722739 82.1640625 -2.20211792 C151.14674405 -4.92282096 151.14674405 -4.92282096 169.33644104 9.88154602 C182.2340104 21.8686678 187.32832234 36.13213569 188.24724197 53.46412659 C188.46084301 61.60196388 187.9581039 69.67973865 187.3694458 77.79238892 C187.02521737 83.05899089 186.87980978 88.33126828 186.71484375 93.60598755 C186.36599661 103.86571087 185.80701068 114.1012008 185.10351562 124.34231567 C182.46351563 124.34231567 179.82351562 124.34231567 177.10351562 124.34231567 C177.10351562 96.62231567 177.10351562 68.90231567 177.10351562 40.34231567 C166.87351563 40.34231567 156.64351562 40.34231567 146.10351562 40.34231567 C145.77351562 40.01231567 145.44351563 39.68231567 145.10351562 39.34231567 C145.10351562 29.11231567 145.10351562 18.88231567 145.10351562 8.34231567 C97.58351562 8.34231567 50.06351562 8.34231567 1.10351562 8.34231567 C1.10351562 63.78231567 1.10351562 119.22231567 1.10351562 176.34231567 C24.99814176 177.56705248 24.99814176 177.56705248 35.16601562 170.34231567 C42.50835785 161.50376066 41.63204287 150.52711021 41.10449219 139.54446411 C41.10416992 138.81775513 41.10384766 138.09104614 41.10351562 137.34231567 C42.9529431 135.4928882 45.80777994 136.08312808 48.29101562 136.02981567 C53.76415621 136.08370874 57.03930015 136.38231086 61.10351562 140.34231567 C64.67075061 144.87134532 65.59229696 147.74860755 65.49414062 153.49075317 C65.48848083 154.14814484 65.48282104 154.8055365 65.47698975 155.48284912 C65.45477838 157.56177759 65.40461983 159.6389173 65.35351562 161.71731567 C65.33343052 163.13525935 65.31518328 164.55323032 65.29882812 165.97122192 C65.25496629 169.42882444 65.18605 172.88539518 65.10351562 176.34231567 C66.86779907 176.33446045 66.86779907 176.33446045 68.66772461 176.32644653 C73.01553593 176.30839905 77.36334392 176.2968846 81.71118164 176.28738403 C83.59595292 176.28234323 85.48072027 176.27551069 87.36547852 176.26687622 C90.06853198 176.2547995 92.77153393 176.24908499 95.47460938 176.24465942 C96.74648354 176.2369175 96.74648354 176.2369175 98.04405212 176.22901917 C100.06422631 176.22882373 102.08429496 176.28025357 104.10351562 176.34231567 C105.89534285 178.1341429 105.26850024 180.81431791 105.29638672 183.23562622 C105.31244965 184.49751266 105.32851257 185.75939911 105.34506226 187.05952454 C105.3565513 188.44935433 105.36715957 189.83919165 105.37695312 191.22903442 C105.3822768 191.92671244 105.38760048 192.62439045 105.39308548 193.34321022 C105.41984323 197.03943408 105.43920539 200.73562393 105.45361328 204.43191528 C105.47022422 208.24422591 105.51496261 212.05566575 105.56598473 215.86764812 C105.59971186 218.8025558 105.61119684 221.7372588 105.61684036 224.6723423 C105.62354313 226.07694935 105.6387402 227.48154339 105.66273117 228.88596153 C105.86198565 241.2612718 105.86198565 241.2612718 102.69580078 245.1892395 C99.14975392 248.13448223 97.48028801 248.47681567 92.95800781 248.56692505 C91.88218445 248.58944336 90.80636108 248.61196167 89.69793701 248.63516235 C84.73066265 248.70643718 79.76353968 248.76380624 74.79589844 248.80227661 C72.18893939 248.82875303 69.58208237 248.86953094 66.97558594 248.92532349 C63.20009352 249.00516192 59.42660804 249.03771908 55.65039062 249.06106567 C54.50399109 249.09405762 53.35759155 249.12704956 52.17645264 249.16104126 C44.70059843 249.14292322 39.96010688 247.50955159 33.44989204 243.87460995 C26.74894926 240.31253516 20.39346073 240.35876763 12.95507812 240.43997192 C11.56258838 240.43055604 10.17011637 240.41807949 8.77767944 240.40272522 C5.16397508 240.37088597 1.55155677 240.3797972 -2.06219482 240.39810181 C-5.7701147 240.4093699 -9.47772443 240.38085113 -13.18554688 240.35598755 C-20.42278707 240.31316608 -27.65913633 240.31352394 -34.89648438 240.34231567 C-34.89648438 237.70231567 -34.89648438 235.06231567 -34.89648438 232.34231567 C-19.05648438 232.34231567 -3.21648438 232.34231567 13.10351562 232.34231567 C13.10351562 216.50231567 13.10351562 200.66231567 13.10351562 184.34231567 C-2.73648438 184.34231567 -18.57648437 184.34231567 -34.89648438 184.34231567 C-34.89648438 181.70231567 -34.89648438 179.06231567 -34.89648438 176.34231567 C-25.65648437 176.34231567 -16.41648437 176.34231567 -6.89648438 176.34231567 C-6.89870499 174.15212296 -6.9009256 171.96193024 -6.9032135 169.70536804 C-6.92361265 149.11779016 -6.93851361 128.53021361 -6.94829655 107.94262791 C-6.95346003 97.35702173 -6.96050371 86.77142296 -6.97192383 76.18582153 C-6.98186909 66.96293808 -6.98833742 57.74005999 -6.99057287 48.51717132 C-6.99188025 43.63055155 -6.99496779 38.74394711 -7.00221443 33.85733223 C-7.00897216 29.26344106 -7.01110185 24.66957163 -7.00959206 20.07567596 C-7.0098685 18.38452219 -7.01187508 16.69336774 -7.01568985 15.00221825 C-7.02062324 12.70353392 -7.01948399 10.40493298 -7.01673889 8.10624695 C-7.01766068 6.81665856 -7.01858248 5.52707018 -7.0195322 4.19840336 C-6.80322148 -0.82242807 -4.51678026 0.16892849 0 0 Z M153.10351562 15.34231567 C153.10351562 20.95231567 153.10351562 26.56231567 153.10351562 32.34231567 C158.71351563 32.34231567 164.32351562 32.34231567 170.10351562 32.34231567 C165.13190345 26.3240483 159.80522319 20.67894216 154.10351562 15.34231567 C153.77351562 15.34231567 153.44351563 15.34231567 153.10351562 15.34231567 Z M49.10351562 145.34231567 C49.15701172 145.92497192 49.21050781 146.50762817 49.265625 147.10794067 C49.91777697 156.02769667 50.46585906 164.88978471 44.86132812 172.33059692 C43.52586641 173.81113305 42.14750685 175.25413401 40.72851562 176.65481567 C40.06271484 177.32319458 39.39691406 177.99157349 38.7109375 178.6802063 C32.55949763 184.1462166 30.19575344 183.5157486 21.10351562 184.34231567 C21.10351562 200.18231567 21.10351562 216.02231567 21.10351562 232.34231567 C24.73351563 232.67231567 28.36351562 233.00231567 32.10351562 233.34231567 C35.39208984 234.947052 35.39208984 234.947052 38.28320312 236.86184692 C47.23030829 241.98513377 56.99317114 241.28829017 67.02050781 241.09011841 C70.2576323 241.02926835 73.49089433 241.02859641 76.72851562 241.03567505 C78.79364878 241.02028838 80.8587602 241.00153236 82.92382812 240.97903442 C83.88733185 240.97772018 84.85083557 240.97640594 85.84353638 240.97505188 C91.11456924 240.86843462 91.11456924 240.86843462 95.73974609 238.55252075 C97.45359201 236.20780956 97.45359201 236.20780956 97.10351562 232.34231567 C86.54351562 232.34231567 75.98351562 232.34231567 65.10351562 232.34231567 C65.10351562 229.70231567 65.10351562 227.06231567 65.10351562 224.34231567 C75.66351563 224.34231567 86.22351563 224.34231567 97.10351562 224.34231567 C97.10351562 221.70231567 97.10351562 219.06231567 97.10351562 216.34231567 C86.54351562 216.34231567 75.98351562 216.34231567 65.10351562 216.34231567 C65.10351562 213.70231567 65.10351562 211.06231567 65.10351562 208.34231567 C75.66351563 208.34231567 86.22351563 208.34231567 97.10351562 208.34231567 C97.10351562 205.70231567 97.10351562 203.06231567 97.10351562 200.34231567 C86.54351562 200.34231567 75.98351562 200.34231567 65.10351562 200.34231567 C65.10351562 197.70231567 65.10351562 195.06231567 65.10351562 192.34231567 C75.66351563 192.34231567 86.22351563 192.34231567 97.10351562 192.34231567 C97.10351562 189.70231567 97.10351562 187.06231567 97.10351562 184.34231567 C77.79851562 183.84731567 77.79851562 183.84731567 58.10351562 183.34231567 C57.79101562 168.21731567 57.79101562 168.21731567 57.71557617 163.47854614 C57.68246338 162.23476196 57.64935059 160.99097778 57.61523438 159.70950317 C57.58905029 158.4421936 57.56286621 157.17488403 57.53588867 155.86917114 C57.06860504 152.05755099 56.1460683 149.58125982 54.10351562 146.34231567 C51.51937137 145.3732474 51.51937137 145.3732474 49.10351562 145.34231567 Z " fill="#0D629A" transform="translate(38.896484375,3.657684326171875)"/>
<path d="M0 0 C4.68868123 2.89549354 8.7728415 6.42339598 10.234375 11.89453125 C11.41425169 20.80033126 9.85677841 27.53325091 6.546875 35.7421875 C3.50771267 44.30293139 3.1666771 53.91052917 2.234375 62.89453125 C3.10320312 62.83652344 3.97203125 62.77851563 4.8671875 62.71875 C15.45390149 62.30428133 15.45390149 62.30428133 18.984375 65.26953125 C21.91190146 68.68497878 22.35948129 70.13709094 22.296875 74.51953125 C22.28785156 75.33679688 22.27882813 76.1540625 22.26953125 76.99609375 C22.25792969 77.62257813 22.24632812 78.2490625 22.234375 78.89453125 C22.81445312 78.83652344 23.39453125 78.77851563 23.9921875 78.71875 C28.34316876 78.4674557 31.28417746 78.39997671 34.734375 81.26953125 C38.68007751 85.41251889 38.38794296 88.47674443 38.359375 93.95703125 C38.36324219 94.70275391 38.36710937 95.44847656 38.37109375 96.21679688 C38.36101001 101.76789624 38.36101001 101.76789624 37.234375 102.89453125 C34.90140067 102.93546062 32.56732275 102.93694848 30.234375 102.89453125 C30.24597656 103.96574219 30.25757813 105.03695312 30.26953125 106.140625 C30.27890799 107.53775868 30.28800831 108.93489424 30.296875 110.33203125 C30.30525391 111.03908203 30.31363281 111.74613281 30.32226562 112.47460938 C30.33091088 114.28146684 30.28657511 116.08840728 30.234375 117.89453125 C28.5403812 119.58852505 26.43145062 119.02034705 24.17108154 119.03005981 C23.44689026 119.02803558 22.72269897 119.02601135 21.9765625 119.02392578 C21.21724426 119.0256781 20.45792603 119.02743042 19.67559814 119.02923584 C17.15350084 119.03365455 14.63147307 119.03071631 12.109375 119.02734375 C10.36442044 119.02801678 8.61946596 119.0289868 6.87451172 119.03024292 C3.21255605 119.03171992 -0.44937528 119.02956528 -4.11132812 119.02490234 C-8.81606992 119.01920505 -13.52075468 119.02248405 -18.22549438 119.02847481 C-21.83016391 119.03208037 -25.43481982 119.03094186 -29.03948975 119.02834702 C-30.77471931 119.02767773 -32.50995009 119.02850621 -34.24517822 119.03082657 C-36.66608987 119.03335302 -39.08690786 119.02951263 -41.5078125 119.02392578 C-42.59409943 119.02696213 -42.59409943 119.02696213 -43.70233154 119.03005981 C-48.65136234 119.00879391 -48.65136234 119.00879391 -49.765625 117.89453125 C-49.83876067 115.36403723 -49.85810027 112.86148288 -49.828125 110.33203125 C-49.82361328 109.62111328 -49.81910156 108.91019531 -49.81445312 108.17773438 C-49.80263364 106.41663112 -49.78469763 104.65557089 -49.765625 102.89453125 C-50.9 102.91515625 -52.034375 102.93578125 -53.203125 102.95703125 C-56.765625 102.89453125 -56.765625 102.89453125 -57.765625 101.89453125 C-57.9740269 99.31332488 -58.09025415 96.79197191 -58.140625 94.20703125 C-58.17800781 93.49869141 -58.21539062 92.79035156 -58.25390625 92.06054688 C-58.32082604 88.03420593 -57.95006232 85.6134302 -55.3671875 82.4375 C-51.7898689 78.94075164 -51.7898689 78.94075164 -48.6015625 78.796875 C-47.78945312 78.80847656 -46.97734375 78.82007813 -46.140625 78.83203125 C-45.32335937 78.84105469 -44.50609375 78.85007812 -43.6640625 78.859375 C-43.03757813 78.87097656 -42.41109375 78.88257813 -41.765625 78.89453125 C-41.85263672 78.02441406 -41.85263672 78.02441406 -41.94140625 77.13671875 C-42.19270055 72.78573749 -42.26017954 69.84472879 -39.390625 66.39453125 C-35.44883536 62.64044588 -33.50120611 62.77947653 -28.140625 62.83203125 C-26.95210937 62.84105469 -25.76359375 62.85007813 -24.5390625 62.859375 C-23.62382812 62.87097656 -22.70859375 62.88257813 -21.765625 62.89453125 C-23.18192531 47.29554179 -23.18192531 47.29554179 -27.453125 32.33203125 C-30.44403354 24.78181091 -31.7929313 16.89855138 -28.65625 9.15625 C-22.37378987 -1.16252187 -11.42331742 -4.56610004 0 0 Z M-19.765625 12.89453125 C-21.99112488 17.12561995 -22.18663938 20.47118557 -20.83203125 25.05078125 C-19.97928659 27.21680329 -19.07937023 29.36507556 -18.125 31.48828125 C-15.19280339 38.83562449 -14.43306843 46.10370667 -14.140625 53.95703125 C-14.10195312 54.82263672 -14.06328125 55.68824219 -14.0234375 56.58007812 C-13.93042019 58.68459484 -13.84699831 60.78953215 -13.765625 62.89453125 C-11.125625 62.89453125 -8.485625 62.89453125 -5.765625 62.89453125 C-5.72824219 61.67378906 -5.69085938 60.45304687 -5.65234375 59.1953125 C-5.22668376 47.74564189 -4.74476485 36.54903934 0.546875 26.14453125 C2.48450053 22.07476952 2.48412712 19.21856298 1.1875 14.9140625 C-0.54321734 11.24692781 -2.20475311 9.93873549 -5.765625 7.89453125 C-11.51576119 6.50854225 -16.21230948 8.00728499 -19.765625 12.89453125 Z M-32.33032227 72.67333984 C-34.12744795 75.01370473 -34.12744795 75.01370473 -33.765625 78.89453125 C-17.925625 78.89453125 -2.085625 78.89453125 14.234375 78.89453125 C13.739375 75.92453125 13.739375 75.92453125 13.234375 72.89453125 C9.30147898 70.27260057 5.89909624 70.57059569 1.33203125 70.55859375 C0.45792099 70.55193695 -0.41618927 70.54528015 -1.31678772 70.53842163 C-3.16519059 70.52829837 -5.01362998 70.52360451 -6.86206055 70.52392578 C-9.68925187 70.51955271 -12.51488182 70.48323123 -15.34179688 70.4453125 C-17.13801549 70.43944424 -18.93424153 70.43547491 -20.73046875 70.43359375 C-21.99781105 70.4120372 -21.99781105 70.4120372 -23.29075623 70.39004517 C-27.1052103 70.41972396 -29.13472975 70.4569584 -32.33032227 72.67333984 Z M-48.20411682 88.67489624 C-50.14921215 90.98747681 -50.14921215 90.98747681 -49.765625 94.89453125 C-23.365625 94.89453125 3.034375 94.89453125 30.234375 94.89453125 C29.739375 91.92453125 29.739375 91.92453125 29.234375 88.89453125 C25.55877938 86.44413417 23.73358515 86.6305321 19.34790039 86.60400391 C18.6516304 86.59728668 17.95536041 86.59056946 17.23799133 86.58364868 C14.93593209 86.564648 12.63416402 86.56074362 10.33203125 86.55859375 C8.73164245 86.55216767 7.13125484 86.54543946 5.53086853 86.53842163 C2.17590613 86.52644401 -1.17895327 86.52274134 -4.53393555 86.52392578 C-8.83277364 86.5241291 -13.13095158 86.49681657 -17.42963314 86.46238136 C-20.73506199 86.44014397 -24.0403311 86.43608724 -27.3458271 86.43714523 C-28.93067261 86.4347849 -30.51552223 86.42593701 -32.10029411 86.4104805 C-34.31725188 86.39088146 -36.53277496 86.39663278 -38.74975586 86.40869141 C-40.01089706 86.40584137 -41.27203827 86.40299133 -42.57139587 86.40005493 C-45.82782351 86.65385068 -45.82782351 86.65385068 -48.20411682 88.67489624 Z M-41.765625 102.89453125 C-41.765625 105.53453125 -41.765625 108.17453125 -41.765625 110.89453125 C-20.645625 110.89453125 0.474375 110.89453125 22.234375 110.89453125 C22.234375 108.25453125 22.234375 105.61453125 22.234375 102.89453125 C1.114375 102.89453125 -20.005625 102.89453125 -41.765625 102.89453125 Z " fill="#0D629A" transform="translate(213.765625,133.10546875)"/>
<path d="M0 0 C9.04841654 6.67794814 16.05564357 16.07389416 18.234375 27.23828125 C19.74505854 42.55667843 17.92956509 54.39401256 8.3671875 66.796875 C1.99990225 74.08543412 -8.03933054 80.59182268 -17.88110352 81.4152832 C-33.8624572 81.84795711 -45.41442381 80.39179021 -57.765625 69.23828125 C-67.8994995 58.01620546 -70.76254256 46.90967341 -70.20703125 32.12890625 C-69.44051676 21.05181104 -64.56691302 12.01219633 -56.765625 4.23828125 C-40.72073785 -9.62108971 -17.96668118 -11.44487742 0 0 Z M-53.765625 15.23828125 C-60.90769932 24.45440058 -61.617455 33.97642486 -60.765625 45.23828125 C-58.95404944 54.30831728 -52.79514404 61.34063219 -45.61328125 66.90625 C-36.31258579 72.99365336 -25.61715467 73.80648222 -14.8515625 71.65625 C-5.81998632 68.51670209 1.48066221 61.38517158 6.296875 53.2578125 C10.38949049 44.44163662 11.01676762 33.12598604 7.796875 23.86328125 C3.25106258 14.337957 -4.79873011 7.0250392 -14.51953125 3.13671875 C-30.02535708 -1.15490573 -43.08553421 3.72351196 -53.765625 15.23828125 Z " fill="#0D629A" transform="translate(169.765625,74.76171875)"/>
<path d="M0 0 C42.24 0 84.48 0 128 0 C128 2.64 128 5.28 128 8 C85.76 8 43.52 8 0 8 C0 5.36 0 2.72 0 0 Z " fill="#0D629A" transform="translate(48,52)"/>
<path d="M0 0 C42.24 0 84.48 0 128 0 C128 2.64 128 5.28 128 8 C85.76 8 43.52 8 0 8 C0 5.36 0 2.72 0 0 Z " fill="#0D629A" transform="translate(48,36)"/>
<path d="M0 0 C42.24 0 84.48 0 128 0 C128 2.64 128 5.28 128 8 C85.76 8 43.52 8 0 8 C0 5.36 0 2.72 0 0 Z " fill="#0D629A" transform="translate(48,20)"/>
<path d="M0 0 C2.31 0.66 4.62 1.32 7 2 C8.53326673 6.68316824 6.71210098 10.02875722 4.88671875 14.37890625 C4.55710648 15.1873851 4.2274942 15.99586395 3.88789368 16.82884216 C3.18937328 18.53640401 2.4854737 20.24177381 1.77661133 21.94506836 C0.69189234 24.551944 -0.37713992 27.16480767 -1.44335938 29.77929688 C-2.12409353 31.43787234 -2.80570496 33.09608806 -3.48828125 34.75390625 C-3.80920242 35.53520401 -4.1301236 36.31650177 -4.46076965 37.12147522 C-4.76415756 37.84910568 -5.06754547 38.57673615 -5.38012695 39.32641602 C-5.64517532 39.96499039 -5.91022369 40.60356476 -6.18330383 41.26148987 C-7 43 -7 43 -9 46 C-11.6015625 46.6875 -11.6015625 46.6875 -15 46 C-18.1094713 43.63466262 -20.71286644 40.84987896 -23.375 38 C-24.11105469 37.236875 -24.84710938 36.47375 -25.60546875 35.6875 C-27.41789848 33.80445613 -29.21486682 31.90888041 -31 30 C-29.64062915 27.1394109 -28.35479531 25.14072301 -26 23 C-22.81440048 24.39633107 -20.76056155 26.04557493 -18.375 28.5625 C-15.95478041 31.14015389 -15.95478041 31.14015389 -13 33 C-12.83709473 32.41226807 -12.67418945 31.82453613 -12.50634766 31.21899414 C-10.55556614 24.42976985 -8.08562804 17.95612324 -5.375 11.4375 C-4.96765625 10.44169922 -4.5603125 9.44589844 -4.140625 8.41992188 C-1.138656 1.138656 -1.138656 1.138656 0 0 Z " fill="#0D629A" transform="translate(156,90)"/>
</svg>
